<?xml version="1.0" encoding="UTF-8"?>
<!DOCTYPE svg PUBLIC "-//W3C//DTD SVG 1.1//EN" "http://www.w3.org/Graphics/SVG/1.1/DTD/svg11.dtd">
<!-- Creator: CorelDRAW 2020 (64-Bit Versión de evaluación) -->
<svg xmlns="http://www.w3.org/2000/svg" xml:space="preserve" width="140.269mm" height="72.3135mm" version="1.1" style="shape-rendering:geometricPrecision; text-rendering:geometricPrecision; image-rendering:optimizeQuality; fill-rule:evenodd; clip-rule:evenodd"
viewBox="0 0 13726.25 7076.33"
 xmlns:xlink="http://www.w3.org/1999/xlink"
 xmlns:xodm="http://www.corel.com/coreldraw/odm/2003">
 <defs>
  <style type="text/css">
   <![CDATA[
    .str0 {stroke:#47A147;stroke-width:7.46;stroke-miterlimit:10}
    .str1 {stroke:#4AB549;stroke-width:7.46;stroke-miterlimit:10}
    .fil0 {fill:#E5F3F5}
    .fil2 {fill:black;fill-rule:nonzero}
    .fil5 {fill:#47A147;fill-rule:nonzero}
    .fil6 {fill:#4AB549;fill-rule:nonzero}
    .fil7 {fill:#5479F7;fill-rule:nonzero}
    .fil4 {fill:#99B9FF;fill-rule:nonzero}
    .fil1 {fill:#CADDFF;fill-rule:nonzero}
    .fil3 {fill:white;fill-rule:nonzero}
   ]]>
  </style>
 </defs>
 <g id="Capa_x0020_1">
  <metadata id="CorelCorpID_0Corel-Layer"/>
  <g id="_2086707927696">
   <path class="fil0" d="M13412.18 3047.68c173.46,0 314.07,140.61 314.07,314.08 0,173.46 -140.61,314.07 -314.07,314.07 -173.46,0 -314.07,-140.61 -314.07,-314.07 0,-173.47 140.61,-314.08 314.07,-314.08zm-8154.33 2163.64l7654.14 0c435.04,0 790.99,355.95 790.99,791l0 0c0,435.06 -355.95,791.01 -790.99,791.01l-7654.14 0c-435.04,0 -790.99,-355.95 -790.99,-791.01l0 0c0,-435.05 355.95,-791 790.99,-791zm-907.32 -2210.16l7654.14 0c435.04,0 790.99,355.95 790.99,791.01l0 0c0,435.05 -355.95,791 -790.99,791l-7654.14 0c-435.04,0 -790.99,-355.95 -790.99,-791l0 0c0,-435.06 355.95,-791.01 790.99,-791.01zm2233.44 -2396.28l4629.68 0c435.06,0 791.01,355.95 791.01,791l0 0c0,435.06 -355.95,791.01 -791.01,791.01l-4629.68 0c-435.06,0 -791.01,-355.95 -791.01,-791.01l0 0c0,-435.05 355.95,-791 791.01,-791zm-2245.06 1558.74c173.46,0 314.07,140.61 314.07,314.07 0,173.47 -140.61,314.07 -314.07,314.07 -173.47,0 -314.08,-140.6 -314.08,-314.07 0,-173.46 140.61,-314.07 314.08,-314.07zm-3780.56 1233.03l1675.09 0c307.09,0 558.35,251.26 558.35,558.35l0 0.02c0,307.09 -251.26,558.35 -558.35,558.35l-1675.09 0c-307.09,0 -558.35,-251.26 -558.35,-558.35l0 -0.02c0,-307.09 251.26,-558.35 558.35,-558.35z"/>
   <g>
    <path class="fil1" d="M10093.48 2683.75c-318,-1610.1 -1917.98,-2544.13 -3265.43,-2668.24 -1116.36,-102.85 -2574.25,303.6 -3089.53,1285.84 -324.03,617.67 65.23,813.81 -199.82,2213.34 -229.38,1211.34 -630.99,1645.02 -376.48,2262.41 208.07,504.74 694.41,743.48 1005.26,896.05 1225.27,601.47 3086.53,530.88 4426.49,-566.25 313.57,-256.78 1859.14,-1601.84 1499.51,-3423.16z"/>
    <path class="fil2" d="M4063.68 1492.79c-1.36,0 -2.81,-0.23 -4.17,-0.71 -6.63,-2.31 -10.22,-9.61 -7.92,-16.24 40.94,-117.31 126.19,-293.45 300.05,-466.45 170.71,-169.82 383.81,-293.25 633.44,-366.84 6.72,-1.99 13.88,1.87 15.84,8.64 2.04,6.76 -1.89,13.87 -8.61,15.86 -653.3,192.61 -866.74,674.19 -916.53,817.18 -1.89,5.28 -6.82,8.57 -12.1,8.57z"/>
    <path class="fil2" d="M3886.08 1459.74c-1.28,0 -2.56,-0.19 -3.82,-0.6 -6.75,-2.08 -10.49,-9.24 -8.45,-15.96 0.61,-1.93 61.91,-194.82 237.22,-411.02 161.67,-199.35 456.43,-460.4 942.42,-572 6.89,-1.57 13.71,2.7 15.31,9.58 1.55,6.87 -2.72,13.72 -9.63,15.3 -478.82,109.99 -769.05,366.97 -928.29,563.22 -172.23,212.4 -231.99,400.61 -232.6,402.48 -1.7,5.48 -6.72,8.98 -12.16,8.98z"/>
    <path class="fil2" d="M3753.86 4100c-7.07,0 -12.77,-5.72 -12.77,-12.78l0 -66.05c0,-7.05 5.71,-12.76 12.77,-12.76 6.99,0 12.76,5.71 12.76,12.76l0 66.05c0,7.06 -5.77,12.78 -12.76,12.78z"/>
    <path class="fil2" d="M3753.86 4253.87c-7.07,0 -12.77,-5.72 -12.77,-12.77l0 -66.06c0,-7.05 5.71,-12.78 12.77,-12.78 6.99,0 12.76,5.73 12.76,12.78l0 66.06c0,7.05 -5.77,12.77 -12.76,12.77z"/>
    <path class="fil2" d="M3709.92 4143.9l-66.05 0c-7.07,0 -12.78,-5.71 -12.78,-12.78 0,-7.05 5.71,-12.75 12.78,-12.75l66.05 0c7.08,0 12.78,5.71 12.78,12.75 0,7.08 -5.71,12.78 -12.78,12.78z"/>
    <path class="fil2" d="M3863.78 4143.9l-66.08 0c-7.07,0 -12.76,-5.71 -12.76,-12.78 0,-7.05 5.7,-12.75 12.76,-12.75l66.08 0c7.07,0 12.77,5.71 12.77,12.75 0,7.08 -5.71,12.78 -12.77,12.78z"/>
    <path class="fil2" d="M9813.44 2498.27c-6.21,0 -11.66,-4.53 -12.59,-10.87l-9.97 -65.31c-1.02,-6.97 3.76,-13.47 10.73,-14.54 6.99,-1.04 13.55,3.74 14.56,10.73l9.87 65.31c1.12,6.97 -3.74,13.48 -10.73,14.54 -0.59,0.11 -1.28,0.15 -1.87,0.15z"/>
    <path class="fil2" d="M9836.44 2650.39c-6.21,0 -11.68,-4.52 -12.61,-10.86l-9.87 -65.29c-1.02,-6.99 3.74,-13.48 10.73,-14.54 6.91,-1.1 13.45,3.74 14.56,10.71l9.87 65.31c1.02,6.97 -3.74,13.48 -10.73,14.54 -0.67,0.1 -1.28,0.14 -1.95,0.14z"/>
    <path class="fil2" d="M9711.27 2558.13c-6.22,0 -11.66,-4.53 -12.59,-10.84 -1.02,-6.97 3.74,-13.49 10.73,-14.55l65.31 -9.89c6.97,-1.05 13.45,3.74 14.54,10.73 1.04,6.97 -3.74,13.47 -10.73,14.53l-65.31 9.89c-0.67,0.1 -1.26,0.14 -1.95,0.14z"/>
    <path class="fil2" d="M9863.41 2535.1c-6.21,0 -11.65,-4.53 -12.58,-10.84 -1.1,-6.97 3.74,-13.49 10.73,-14.55l65.3 -9.88c6.89,-1.04 13.45,3.74 14.46,10.73 1.12,6.97 -3.73,13.48 -10.62,14.54l-65.31 9.87c-0.69,0.1 -1.36,0.14 -1.98,0.14z"/>
    <path class="fil3" d="M3720.91 3699.41l0.09 0 -0.09 0zm36.34 4.93c-10.63,0 -21.19,2.26 -31.16,6.72 -39.25,17.61 -57.04,64.58 -39.76,104.7 8.44,19.58 23.83,34.53 43.44,42.13 19.07,7.44 39.91,6.89 58.64,-1.52 39.19,-17.61 57.06,-64.58 39.78,-104.7 -8.51,-19.56 -23.94,-34.53 -43.43,-42.13 -8.94,-3.47 -18.22,-5.21 -27.51,-5.21zm0 184.3c-12.43,0 -24.85,-2.31 -36.76,-6.95 -25.98,-10.09 -46.39,-29.9 -57.57,-55.8 -22.81,-52.87 0.85,-114.83 52.72,-138.13 25.02,-11.22 52.87,-11.96 78.4,-2.03 25.98,10.09 46.39,29.92 57.57,55.82 22.81,52.85 -0.85,114.81 -52.72,138.11 -13.36,5.97 -27.5,8.97 -41.64,8.97z"/>
    <path class="fil4" d="M8958.89 6780.76l-3072.17 0c-130.7,0 -236.61,-106.83 -236.61,-238.62l299.54 -6263.41c0,-131.78 105.91,-238.63 236.61,-238.63l3072.14 0c130.7,0 236.62,106.85 236.62,238.63l-299.52 6263.41c0,131.79 -105.92,238.62 -236.61,238.62z"/>
    <path class="fil3" d="M9031.08 5630l-43.75 914.52c0,131.21 -106.02,237.59 -236.71,237.59l-3072.06 0c-130.78,0 -236.69,-106.38 -236.69,-237.59l299.52 -6252.18c0,-131.2 105.91,-237.58 236.61,-237.58l3072.16 0c130.68,0 236.61,106.38 236.61,237.58l-255.68 5337.66z"/>
    <path class="fil2" d="M6907.14 6786.73l-462.9 0c-7.07,0 -12.78,-5.71 -12.78,-12.76 0,-7.07 5.71,-12.77 12.78,-12.77l462.9 0c6.99,0 12.77,5.71 12.77,12.77 0,7.06 -5.78,12.76 -12.77,12.76z"/>
    <path class="fil2" d="M8296.82 6794.64c-0.08,0 -0.08,0 -0.08,0l-1058.22 -7.92c-7.07,-0.04 -12.77,-5.81 -12.69,-12.86 0.08,-7.03 5.79,-12.67 12.78,-12.67l0.08 0 1058.22 7.9c7.07,0.06 12.69,5.81 12.69,12.88 -0.08,7.01 -5.79,12.67 -12.78,12.67z"/>
    <path class="fil2" d="M5548.82 4290.01c-0.26,0 -0.45,0 -0.69,-0.02 -6.99,-0.32 -12.43,-6.31 -12.09,-13.37l192.59 -3993.02c0,-137.44 111.86,-249.75 249.37,-249.75l3072.16 0c137.5,0 249.37,112.31 249.37,250.36l-111.36 2203.03c-0.42,7.05 -6.21,12.49 -13.45,12.1 -7.07,-0.35 -12.43,-6.34 -12.09,-13.39l111.44 -2202.39c-0.08,-123.33 -100.47,-224.18 -223.91,-224.18l-3072.16 0c-123.45,0 -223.84,100.85 -223.84,224.82l-192.67 3993.63c-0.34,6.84 -5.97,12.16 -12.67,12.16z"/>
    <path class="fil1" d="M8608.95 6603.08l-2805.49 0c-119.36,0 -216.17,-97.14 -216.17,-216.97l295.78 -5920.79c0,-119.81 96.71,-216.95 216.1,-216.95l2805.49 0c119.37,0 216.1,97.14 216.1,216.95l-295.72 5920.79c0,119.83 -96.71,216.97 -216.08,216.97z"/>
    <polygon class="fil5" points="5888,13 5067.17,802.26 5971.03,801.51 6411.11,15.02 "/>
    <polygon class="fil6" points="6411.11,15.02 5971.03,801.51 6891.98,800.76 7115.57,17.74 "/>
    <polygon class="fil5" points="9691.87,798.42 9415.06,26.63 8646.84,23.66 8861.73,799.11 "/>
    <polygon class="fil5" points="7115.57,17.74 6891.98,800.76 7924.77,799.91 7917.52,20.83 "/>
    <polygon class="fil6" points="8646.84,23.66 7917.52,20.83 7924.77,799.91 8861.73,799.11 "/>
    <path class="fil6" d="M5953.56 801.53c-1.69,8.12 -3.05,16.33 -4.34,24.47 0.17,-0.34 0.32,-0.68 0.51,-1.04 -0.34,1.28 -0.59,2.54 -0.93,3.85 -1.87,11.23 -3.85,22.32 -7.34,32.89 -24.68,465.06 826.99,539.92 933.33,-5.23 0,-18.35 0,-37.09 0,-55.72l-921.24 0.77z"/>
    <path class="fil5" d="M6871.89 800.76c0,18.63 0,37.37 0,55.72 8.51,-5.93 4.7,-11.8 6.06,-17.9 -17.03,570.19 1114.15,534.93 1035.22,-9.08 0.95,11.38 2.98,22.39 4.85,33.25 0,-21.36 -1.71,-42.62 -5.26,-62.84l-1040.87 0.85z"/>
    <path class="fil5" d="M8853.91 799.11c4.51,18.6 9.52,37.41 13.95,56.63 67.26,481.29 829.36,521.64 824,-57.32l-837.95 0.69z"/>
    <path class="fil6" d="M7914.44 799.91c3.49,20.23 3.92,41.48 3.92,62.84 53.55,483.7 1039.83,459.55 938.85,-42.33 3.23,12.05 6.8,23.79 10.65,35.33 -4.43,-19.22 -9.44,-38.03 -13.95,-56.63l-939.47 0.79z"/>
    <path class="fil5" d="M5067.17 802.26c-17.28,486.87 700.2,627.4 882.06,23.75 1.28,-8.14 2.64,-16.35 4.34,-24.47l-886.39 0.72z"/>
    <path class="fil3" d="M5067.17 815.04c-7.07,0 -12.77,-5.71 -12.77,-12.75 0,-7.08 5.71,-12.78 12.77,-12.78l4624.7 -3.84c7.08,0 12.76,5.71 12.76,12.75 0,7.06 -5.69,12.78 -12.76,12.78l-4624.7 3.84 0 0z"/>
    <path class="fil3" d="M6031.79 5163.55l2456.68 0c67.6,0 125.33,-56.05 128.98,-125.15l184.59 -3501.49c3.15,-93.79 -38.22,-147.12 -114.5,-147.12l-2456.76 0c-60.71,0 -114.95,45.35 -127.89,106.94l-186.88 3541.66c-3.66,69.1 48.19,125.15 115.77,125.15z"/>
    <path class="fil2" d="M6352.63 2298.13c-19.07,0 -35.42,16.03 -36.52,35.73l-11.18 211.24c-0.41,9.46 2.64,18.26 8.86,24.76 5.89,6.21 13.97,9.63 22.67,9.63l206.55 0c19.15,0 35.5,-16.03 36.52,-35.74l11.16 -211.23c0.5,-9.46 -2.64,-18.26 -8.78,-24.78 -5.87,-6.2 -13.95,-9.61 -22.73,-9.61l-206.55 0zm190.38 306.89l-206.55 0c-15.76,0 -30.41,-6.23 -41.22,-17.57 -11.07,-11.66 -16.62,-27.18 -15.76,-43.7l11.16 -211.23c1.7,-33.05 29.55,-59.95 61.99,-59.95l206.55 0c15.84,0 30.49,6.24 41.22,17.57 11.07,11.65 16.67,27.17 15.84,43.71l-11.18 211.24c-1.78,33.05 -29.61,59.92 -62.05,59.92z"/>
    <path class="fil7" d="M6543.16 2334.89c1.79,-1.68 4.43,0.53 3.07,2.53l-131.55 197.82c-7.74,8.99 -21.72,6.27 -24.69,-4.78l-40.62 -126.21 57.73 62.42 136.06 -131.79z"/>
    <path class="fil2" d="M6323.07 2840.12c-19.16,0 -35.49,16.03 -36.53,35.73l-11.15 211.23c-0.51,9.47 2.64,18.27 8.78,24.77 5.86,6.21 13.95,9.63 22.72,9.63l206.47 0c19.16,0 35.5,-16.03 36.63,-35.76l11.07 -211.21c0.51,-9.46 -2.55,-18.26 -8.78,-24.78 -5.89,-6.2 -13.97,-9.61 -22.75,-9.61l-206.46 0zm190.29 306.91l-206.47 0c-15.84,0 -30.48,-6.25 -41.3,-17.59 -10.99,-11.65 -16.6,-27.17 -15.75,-43.71l11.16 -211.21c1.79,-33.05 29.53,-59.95 62.06,-59.95l206.46 0c15.84,0 30.49,6.26 41.3,17.59 10.99,11.64 16.62,27.16 15.76,43.69l-11.15 211.23c-1.71,33.06 -29.56,59.95 -62.08,59.95z"/>
    <path class="fil7" d="M6530.06 2879.18c1.45,-1.33 3.58,0.43 2.47,2.04l-133.66 200.92c-7.68,8.97 -21.64,6.28 -24.62,-4.79l-40.61 -126.19 57.73 62.42 138.7 -134.4z"/>
    <path class="fil2" d="M6295.14 3369.38c-19.15,0 -35.48,16.05 -36.52,35.73l-11.15 211.26c-0.52,9.44 2.55,18.24 8.77,24.76 5.87,6.19 13.98,9.63 22.73,9.63l206.47 0c19.15,0 35.5,-16.03 36.52,-35.75l11.18 -211.24c0.51,-9.46 -2.66,-18.24 -8.78,-24.76 -5.89,-6.21 -13.97,-9.63 -22.73,-9.63l-206.49 0zm190.3 306.92l-206.47 0c-15.82,0 -30.49,-6.26 -41.3,-17.59 -10.97,-11.64 -16.6,-27.16 -15.75,-43.69l11.16 -211.24c1.7,-33.05 29.55,-59.92 62.05,-59.92l206.49 0c15.82,0 30.47,6.23 41.3,17.59 10.97,11.64 16.6,27.16 15.75,43.66l-11.16 211.26c-1.7,33.05 -29.55,59.93 -62.07,59.93z"/>
    <path class="fil3" d="M6461.26 4210.73l-206.54 0c-25.8,0 -45.65,-21.41 -44.2,-47.81l11.07 -211.26c1.44,-26.4 23.51,-47.83 49.3,-47.83l206.56 0c25.87,0 45.62,21.43 44.26,47.83l-11.16 211.26c-1.36,26.4 -23.5,47.81 -49.3,47.81z"/>
    <path class="fil7" d="M6270.89 3916.59c-19.07,0 -35.51,16.03 -36.52,35.76l-11.16 211.21c-0.43,9.47 2.64,18.27 8.86,24.79 5.87,6.19 13.95,9.61 22.65,9.61l206.54 0c19.08,0 35.51,-16.03 36.53,-35.74l11.15 -211.23c0.51,-9.46 -2.63,-18.26 -8.75,-24.77 -5.89,-6.21 -13.97,-9.63 -22.73,-9.63l-206.56 0zm190.37 306.92l-206.54 0c-15.84,0 -30.41,-6.23 -41.22,-17.59 -11.08,-11.64 -16.6,-27.16 -15.76,-43.69l11.18 -211.23c1.7,-33.05 29.53,-59.93 61.97,-59.93l206.56 0c15.82,0 30.47,6.24 41.2,17.57 11.07,11.65 16.69,27.16 15.84,43.71l-11.16 211.21c-1.78,33.06 -29.64,59.95 -62.08,59.95z"/>
    <path class="fil3" d="M6435.12 4750.63l-206.55 0c-25.79,0 -45.64,-21.41 -44.18,-47.83l11.14 -211.23c1.38,-26.43 23.42,-47.84 49.3,-47.84l206.46 0c25.9,0 45.65,21.41 44.29,47.84l-11.16 211.23c-1.36,26.42 -23.4,47.83 -49.3,47.83z"/>
    <path class="fil7" d="M6244.83 4456.5c-19.16,0 -35.49,16.02 -36.61,35.73l-11.07 211.23c-0.51,9.47 2.55,18.27 8.77,24.77 5.87,6.21 13.96,9.65 22.65,9.65l206.55 0c19.15,0 35.5,-16.05 36.52,-35.76l11.18 -211.23c0.51,-9.46 -2.64,-18.26 -8.78,-24.76 -5.87,-6.22 -13.97,-9.63 -22.75,-9.63l-206.46 0zm190.29 306.91l-206.55 0c-15.75,0 -30.38,-6.25 -41.22,-17.58 -10.99,-11.64 -16.6,-27.16 -15.75,-43.7l11.16 -211.23c1.7,-33.05 29.53,-59.95 62.06,-59.95l206.46 0c15.84,0 30.49,6.26 41.22,17.59 11.07,11.65 16.69,27.17 15.84,43.69l-11.15 211.23c-1.79,33.06 -29.54,59.95 -62.08,59.95z"/>
    <path class="fil7" d="M6503.57 3410.58c1.37,-1.36 3.5,0.42 2.49,2.03l-133.68 200.92c-7.74,8.98 -21.64,6.28 -24.6,-4.79l-40.71 -126.18 57.81 62.41 138.69 -134.39z"/>
    <path class="fil1" d="M8050.93 2012.43l-1173.49 0c-24.2,0 -42.74,-20.02 -41.38,-44.71l1.96 -37.26c1.27,-24.71 21.87,-44.74 46.06,-44.74l1173.58 0c24.09,0 42.66,20.03 41.37,44.74l-1.95 37.26c-1.36,24.69 -21.96,44.71 -46.15,44.71z"/>
    <path class="fil1" d="M8463.88 2494.08l-1650.14 0c-24.09,0 -42.66,-20.03 -41.28,-44.73 1.26,-24.7 21.88,-44.73 46.05,-44.73l1650.03 0c24.18,0 42.74,20.03 41.38,44.73 -1.28,24.7 -21.88,44.73 -46.05,44.73z"/>
    <path class="fil1" d="M8218.66 2724.66l-1416.82 0c-24.11,0 -42.66,-20.03 -41.38,-44.73 1.36,-24.7 21.96,-44.73 46.13,-44.73l1416.76 0c24.17,0 42.66,20.03 41.38,44.73 -1.28,24.7 -21.96,44.73 -46.07,44.73z"/>
    <path class="fil1" d="M8315.63 3040.08l-1528.71 0c-24.17,0 -42.66,-20.03 -41.37,-44.73 1.27,-24.7 21.98,-44.73 46.06,-44.73l1528.71 0c24.17,0 42.66,20.03 41.38,44.73 -1.28,24.7 -21.98,44.73 -46.07,44.73z"/>
    <path class="fil1" d="M7636.73 3266.35l-859.94 0c-24.17,0 -42.73,-20.02 -41.35,-44.75 1.25,-24.68 21.87,-44.7 46.05,-44.7l859.91 0c24.19,0 42.66,20.02 41.38,44.7 -1.26,24.73 -21.96,44.75 -46.05,44.75z"/>
    <path class="fil1" d="M8407.75 3557.84l-1650.01 0c-24.19,0 -42.76,-20 -41.39,-44.7 1.27,-24.71 21.98,-44.73 46.06,-44.73l1650.12 0c24.09,0 42.66,20.02 41.38,44.73 -1.36,24.7 -21.96,44.7 -46.16,44.7z"/>
    <path class="fil1" d="M8162.55 3788.44l-1416.74 0c-24.19,0 -42.73,-20.03 -41.37,-44.73 1.28,-24.7 21.88,-44.71 46.05,-44.71l1416.76 0c24.17,0 42.66,20.01 41.37,44.71 -1.27,24.7 -21.89,44.73 -46.07,44.73z"/>
    <path class="fil1" d="M8343.9 4103.84l-1616.59 0c-24.08,0 -42.66,-20 -41.37,-44.71 1.36,-24.7 21.98,-44.72 46.15,-44.72l1616.49 0c24.19,0 42.75,20.02 41.39,44.72 -1.28,24.71 -21.89,44.71 -46.07,44.71z"/>
    <path class="fil1" d="M7581.48 4314.39l-859.94 0c-24.17,0 -42.74,-20.02 -41.37,-44.73 1.27,-24.7 21.87,-44.73 46.06,-44.73l859.92 0c24.19,0 42.66,20.03 41.37,44.73 -1.27,24.71 -21.96,44.73 -46.04,44.73z"/>
    <path class="fil1" d="M8357.27 4616.38l-1650.12 0c-24.09,0 -42.66,-20.02 -41.37,-44.73 1.36,-24.7 21.96,-44.72 46.15,-44.72l1650.04 0c24.17,0 42.73,20.02 41.37,44.72 -1.28,24.71 -21.9,44.73 -46.07,44.73z"/>
    <path class="fil1" d="M8111.98 4846.96l-1416.74 0c-24.09,0 -42.66,-20.01 -41.38,-44.71 1.36,-24.72 21.98,-44.75 46.16,-44.75l1416.73 0c24.17,0 42.67,20.03 41.38,44.75 -1.36,24.7 -21.96,44.71 -46.15,44.71z"/>
    <polygon class="fil3" points="8584.6,6491.78 8572.94,6722.92 8684.3,6721.74 8717.51,6498.48 "/>
    <path class="fil2" d="M8596.69 6505.17l-10.3 204.84 86.95 -0.92 29.45 -198.56 -106.1 -5.36zm-23.75 230.52c-3.49,0 -6.82,-1.41 -9.2,-3.92 -2.47,-2.54 -3.74,-5.95 -3.58,-9.49l11.66 -231.14c0.34,-7.06 6.48,-12.44 13.37,-12.11l132.99 6.71c3.58,0.18 6.91,1.86 9.2,4.65 2.3,2.8 3.34,6.42 2.73,9.99l-33.11 223.27c-0.93,6.19 -6.21,10.82 -12.52,10.88l-111.46 1.16 -0.08 0z"/>
    <path class="fil3" d="M8686.19 7017.61c-45.56,2.53 -170.47,0 -205.2,-17.31 -30.57,-15.16 -54.93,-80.68 -37.89,-103.86 42.56,-57.95 74.67,-160.57 102,-240.65 1.62,-4.55 7.74,-5.16 10.22,-1.04l21.88 37.04 19.41 -41.18c3.07,-4.55 8.09,-7.38 13.55,-7.62l38.98 1.24c8.94,-0.36 18.14,8.74 23.08,17.16l26.23 36.5 17.12 -27.87c2.81,-4.67 9.96,-2.93 10.38,2.56l19.07 271.1c-1.27,43.33 -32.44,72.37 -58.82,73.92z"/>
    <path class="fil2" d="M8552.24 6674.64c-1.18,3.39 -2.38,6.8 -3.49,10.27 -26.21,77.55 -55.92,165.44 -95.35,219.08 -2.89,3.98 -4.85,14.48 -0.85,31.1 5.78,23.93 20.43,46.98 34.14,53.8 29.89,14.89 147.29,18.82 198.73,15.93 18.3,-1.04 45.46,-23.26 46.82,-60.88l-17.46 -248.21 -5.46 8.82c-2.21,3.66 -6.12,5.93 -10.38,6.1 -4.16,0.14 -8.33,-1.81 -10.8,-5.3l-26.3 -36.48c-0.26,-0.34 -0.51,-0.69 -0.69,-1.06 -4.08,-7.05 -9.71,-10.8 -11.41,-10.8 -0.17,0 -0.51,0 -0.75,0 -0.09,0 -0.19,0 -0.26,0l-38.31 -1.22c-1.1,0.13 -2.05,0.66 -2.81,1.43l-18.81 40.01c-2.05,4.29 -6.23,7.08 -10.99,7.31 -4.69,0.23 -9.2,-2.17 -11.58,-6.23l-13.97 -23.66zm133.95 342.97l0.08 0 -0.08 0zm-38.68 13.6c-56.93,0 -142.01,-4.42 -172.24,-19.41 -23.93,-11.9 -41.11,-44.1 -47.59,-70.67 -5.28,-21.98 -3.49,-40.54 5.12,-52.25 37.11,-50.45 66.14,-136.36 91.78,-212.15 2.8,-8.53 5.71,-16.92 8.43,-25.06 2.38,-6.89 8.35,-11.61 15.58,-12.35 7.08,-0.75 13.97,2.68 17.71,8.93l9.61 16.31 9.2 -19.4c0.27,-0.6 0.53,-1.14 0.94,-1.69 5.28,-7.88 14.06,-12.81 23.58,-13.24 0.26,0 0.61,0 0.93,0l38.57 1.23c14.31,-0.42 27.16,11.97 33.72,22.92l14.73 20.45 7.08 -11.48c4.16,-6.86 12.24,-10.15 20,-8.26 7.85,1.91 13.45,8.57 14.04,16.6l18.99 271.13c0.1,0.43 0.1,0.86 0.1,1.28 -1.46,49.22 -37.8,84.38 -70.94,86.25 -9.71,0.51 -23.42,0.85 -39.35,0.85z"/>
    <path class="fil2" d="M8615.76 6978.85c-33.97,0 -75.45,-4.25 -119.79,-18.3 -6.72,-2.13 -10.48,-9.36 -8.35,-16.09 2.21,-6.72 9.36,-10.4 16.09,-8.27 101.23,32.19 189.27,8.69 190.13,8.43 6.81,-1.87 13.88,2.13 15.75,8.96 1.87,6.7 -2.13,13.77 -8.86,15.66 -2.29,0.68 -35.59,9.61 -84.97,9.61z"/>
    <path class="fil2" d="M8650.49 6859.73c-0.23,0 -0.42,-0.02 -0.67,-0.02l-101.4 -5.12c-7,-0.36 -12.44,-6.36 -12.1,-13.41 0.33,-7.03 6.46,-12.5 13.35,-12.1l101.43 5.12c7.07,0.34 12.51,6.36 12.09,13.39 -0.34,6.83 -5.95,12.14 -12.7,12.14z"/>
    <polygon class="fil3" points="9407.83,6410.67 9426.56,6691.01 9530.87,6692.64 9544.74,6417.59 "/>
    <path class="fil2" d="M9438.56 6678.44l80.19 1.23 12.61 -249.97 -109.83 -5.54 17.03 254.28zm92.31 26.98c-0.11,0 -0.11,0 -0.19,0l-104.29 -1.63c-6.64,-0.1 -12.11,-5.27 -12.52,-11.9l-18.83 -280.34c-0.24,-3.64 1.12,-7.23 3.67,-9.81 2.54,-2.6 6.12,-3.98 9.69,-3.8l137.02 6.88c6.97,0.37 12.41,6.36 12.07,13.41l-13.88 275.06c-0.34,6.81 -5.95,12.13 -12.75,12.13z"/>
    <path class="fil3" d="M9395.91 6623c0,0 -10.38,123.36 -8.78,173.33 1.19,35.79 44.63,145.83 69.15,205.59 10.14,24.52 32.68,44.28 55.84,50.74 43.44,12.27 64.8,12.87 105.68,8.27 55.01,-6.14 74.41,-55.27 60.8,-103.87 -12.7,-44.88 -34.92,-94.65 -72.73,-156.41 -27.32,-44.77 -47.92,-174.29 -47.92,-174.29l-84.8 -4.29 -27.59 69.88 -49.64 -68.94z"/>
    <path class="fil2" d="M9405.96 6658.77c-2.98,40.16 -7.07,104.84 -6.05,137.16 0.85,24.52 25.72,97.83 68.21,201.14 8.33,20.28 27.41,37.65 47.5,43.35 41.37,11.65 61.48,12.24 100.72,7.82 19.08,-2.13 34.07,-10.46 43.17,-24.09 11.07,-16.35 13.52,-39.59 6.72,-63.6 -13.02,-46.44 -35.67,-95.13 -71.26,-153.24 -24.01,-39.33 -42.33,-136.67 -47.94,-168.72l-65.39 -3.31 -24.2 61.37c-1.68,4.34 -5.69,7.41 -10.29,7.99 -4.67,0.57 -9.18,-1.43 -11.91,-5.23l-29.29 -40.63zm173.09 417.56c-21.64,0 -41.45,-3.15 -70.4,-11.4 -27.59,-7.76 -52.8,-30.57 -64.14,-58.16 -31.32,-76.11 -68.96,-174.3 -70.14,-210.02 -1.62,-50.15 8.34,-169.75 8.76,-174.83 0.45,-5.32 4.19,-9.81 9.36,-11.23 5.12,-1.45 10.67,0.51 13.71,4.83l36.01 49.99 18.99 -48.12c2.05,-5.12 6.91,-8.35 12.52,-8.08l84.89 4.27c6.06,0.32 10.99,4.81 11.92,10.76 0.24,1.28 20.52,127.55 46.24,169.63 36.84,60.16 60.37,110.91 74.07,159.6 8.77,31.32 5.12,62.22 -10.12,84.87 -13.47,20 -34.74,32.18 -61.57,35.16 -15.16,1.7 -27.93,2.72 -40.1,2.72z"/>
    <path class="fil2" d="M9435.76 6853.51l0 0 0 0zm0.09 0.02c0,0 0,0 0,0 0,0 0,0 0,0zm159.29 172.16c-14.05,0 -26.3,-1.47 -32.18,-2.56 -25.55,-4.59 -48.62,-18.05 -65.14,-37.99 -12.43,-14.88 -21.45,-28.84 -26.89,-41.45 -9.55,-22 -19.07,-46.79 -26.06,-64.88 -4.51,-11.82 -9.27,-24.05 -10.89,-27.26 -3.42,-4.79 -3.25,-11.5 0.93,-16.05 4.68,-5.25 12.76,-5.65 18.06,-0.93 3.23,2.98 4.25,5.27 15.74,35.07 6.89,17.88 16.25,42.37 25.64,63.83 4.43,10.22 12.41,22.49 23.15,35.42 12.68,15.24 30.39,25.53 49.98,29.1 11.4,2.05 41.12,4.28 60.03,-2.03 6.72,-2.21 13.95,1.36 16.17,8.08 2.22,6.64 -1.36,13.88 -8.08,16.17 -12.43,4.19 -27.23,5.47 -40.44,5.47z"/>
    <path class="fil2" d="M9608.69 6911.49c-0.19,0 -0.43,0 -0.61,0l-92.9 -4.72c-7.06,-0.32 -12.52,-6.34 -12.09,-13.39 0.34,-7.03 6.48,-12.52 13.37,-12.1l92.89 4.69c7.08,0.35 12.44,6.34 12.09,13.41 -0.34,6.81 -5.95,12.11 -12.75,12.11z"/>
    <path class="fil2" d="M8522.71 4171.89c0,0 -31.85,851.09 -24.09,1406.59 6.72,477.71 43.92,860.3 54.21,958.11 1.55,14.85 12.61,26.94 27.26,29.64 28.78,5.34 78.83,11.88 127.55,5.22 13.52,-1.84 24.68,-11.39 28.34,-24.57 25.79,-94.14 131.8,-487.99 139.46,-640.11 8.25,-164.87 -19.15,-207.69 -15.75,-342.22 2.54,-100.73 54.32,-456.82 80.11,-629.44 3.4,-22.71 35.25,-24.9 41.63,-2.89 46.84,160.07 146.37,505.97 237.89,860.45 4.69,18.17 24.7,172.07 29.29,189.97 56.61,221.41 111.54,399.44 129.66,503.07 2.98,16.78 15.84,30.15 32.46,33.72 32.1,6.85 86.23,14.33 135.21,1.53 17.6,-4.61 30.04,-20.48 30.81,-38.67 4.67,-112.82 21.69,-532.21 15.66,-603.1 -12.86,-152.01 -123.11,-306.61 -136.22,-468.02 -13.02,-161.45 -5.04,-564.54 -51.09,-808.89 -46.15,-244.33 -146.71,-521.3 -146.71,-521.3l-735.69 90.92z"/>
    <path class="fil2" d="M8970.55 2548.4c-58.42,-38.61 -155.98,-17.82 -193.52,79.14 -30.66,79.22 37.96,140.37 55.33,198.79 56.19,188.96 -125.66,592.26 -2.13,798.17 98.6,164.29 372.75,285.45 609.28,183 224.86,-97.42 377.77,-331.87 286.49,-523.82 -81.98,-172.52 -236.85,-90.94 -330.94,-261 -92.82,-167.67 -7.66,-246.6 -75.51,-330.54 -92.73,-114.79 -183.33,-34.33 -349,-143.73z"/>
    <path class="fil3" d="M9285.22 4531.32c-1.87,0 -3.66,-0.41 -5.45,-1.22 -154.17,-72.53 -191.9,-224.75 -193.44,-231.19 -1.62,-6.86 2.64,-13.73 9.45,-15.35 6.82,-1.64 13.79,2.58 15.41,9.44 0.34,1.47 36.71,146.82 179.49,213.98 6.29,3 9.1,10.61 6.03,17.01 -2.13,4.61 -6.72,7.33 -11.49,7.33z"/>
    <path class="fil5" d="M8443.52 3202.03c-2.38,-6.21 -10.65,-7.45 -14.81,-2.21 -62.59,79.63 -185.11,324.08 -391.85,306.57 -217.77,-18.47 -307.87,-152.13 -307.87,-152.13l-161 85.14c0,0 70.16,235.88 337.08,381.08 272.38,148.2 735.19,-117.82 735.19,-117.82l-196.75 -500.64z"/>
    <path class="fil5" d="M8428.96 3200.21c176.85,-106.47 493.38,-97.5 650.81,-25.52 279.26,127.69 439.33,1142.68 350.01,1361.51 -81.48,199.82 -775.64,242.29 -968.31,71.32 -82.14,-72.82 -54.83,-507.32 -40.44,-680.95 4.43,-52.77 6.64,-105.69 6.72,-158.64l1.2 -567.71z"/>
    <path class="fil6" d="M7493.25 3098.89l243.33 -216.91 2031.3 2288.49c21.64,24.35 17.05,67.33 -12.25,104.93 -35.08,45.05 -76.96,82.4 -125.68,112.01 -40.69,24.72 -83.85,24.3 -105.49,-0.02l-2031.21 -2288.5z"/>
    <path class="fil2" d="M9301.07 4798.31c-3.49,0 -7.08,-1.44 -9.55,-4.31l-858.55 -967.25c-4.7,-5.28 -4.17,-13.35 1.01,-18.03 5.36,-4.7 13.39,-4.19 18.06,1.08l858.55 967.27c4.7,5.28 4.19,13.35 -1.1,18.02 -2.38,2.18 -5.44,3.23 -8.43,3.23z"/>
    <path class="fil2" d="M8246.16 3609.87c-3.49,0 -6.99,-1.47 -9.52,-4.31l-372.67 -419.83c-4.7,-5.28 -4.17,-13.35 1.1,-18.04 5.28,-4.67 13.29,-4.18 18.05,1.08l372.57 419.85c4.7,5.28 4.27,13.35 -1.02,18.04 -2.46,2.13 -5.44,3.21 -8.51,3.21z"/>
    <path class="fil2" d="M9462.92 5159.52c-3.57,0 -7.08,-1.45 -9.63,-4.31l-1427.47 -1608.28c-4.7,-5.26 -4.27,-13.35 1.02,-18.02 5.28,-4.72 13.37,-4.21 18.05,1.08l1427.55 1608.27c4.7,5.28 4.19,13.35 -1.1,18.03 -2.48,2.17 -5.44,3.23 -8.43,3.23z"/>
    <path class="fil3" d="M7141.29 2587.59l0.25 0.32c25.54,-13.28 57.55,-39.05 79.86,-58.95 22.3,-19.86 33.63,-32.74 49.81,-56.63l465.13 409.35c-57.74,98.64 -138.89,170.94 -243.34,216.88l-351.72 -510.98z"/>
    <path class="fil2" d="M7141.29 2587.59l0.25 0.32 -0.25 -0.32zm129.92 -115.26c-16.18,23.89 -27.51,36.76 -49.81,56.63 -22.31,19.89 -54.32,45.67 -79.86,58.95l351.46 510.67c104.45,-45.96 185.6,-118.26 243.34,-216.9l-465.13 -409.35zm4.18 37.68l427.99 376.64c-50.23,78.58 -117.91,138.89 -201.6,179.69l-323.89 -470.59c25.13,-16.92 49.39,-37.78 60.53,-47.71 15.69,-13.96 26.49,-24.92 36.97,-38.03z"/>
    <path class="fil2" d="M7213.66 2538.3c-22.33,19.88 -46.58,36.32 -72.12,49.6l-214.99 -312.31c-18.89,-27.51 35.08,-75.67 60.21,-53.62l284.45 250.35c-16.18,23.89 -35.25,46.11 -57.55,65.97z"/>
    <path class="fil3" d="M8807.92 4226.76c0,0 -111.54,6.42 -170.88,53.71 0,0 7.66,46.25 -13.54,77.23 -21.11,30.93 -88.63,69.55 -85.13,115.69 3.42,46.13 162.04,25.12 204.17,-16.76 42.15,-41.9 66.5,-112.23 115.71,-130.08 49.22,-17.88 -50.32,-99.78 -50.32,-99.78z"/>
    <path class="fil2" d="M8650.6 4286.25c1.34,15.73 1.95,51.66 -16.54,78.66 -7.65,11.23 -20,22.64 -33.1,34.71 -24.28,22.41 -51.68,47.8 -49.81,72.81 0.24,3.53 3.89,6.64 10.8,9.22 41.14,15.3 142.11,-4.77 171.56,-34.1 15.16,-15.03 28.36,-34.71 41.12,-53.74 22.06,-32.83 44.87,-66.8 79.28,-79.26 4.75,-1.75 5.02,-3.43 5.1,-3.98 2.21,-12.59 -26.15,-45.83 -55.34,-70.65 -20.94,1.83 -103.61,11.12 -153.08,46.35zm-51.86 225.88c-17.62,0 -33.55,-2.03 -45.64,-6.56 -22.47,-8.38 -26.89,-23.18 -27.51,-31.25 -2.72,-37.31 29.56,-67.15 58.08,-93.46 11.93,-11.07 23.24,-21.55 29.29,-30.38 15.08,-21.94 13.37,-56.47 11.48,-67.93 -0.75,-4.57 1.04,-9.18 4.7,-12.07 61.73,-49.25 173.35,-56.2 178.02,-56.46 3.15,-0.19 6.4,0.83 8.86,2.88 17.47,14.38 74.09,63.95 68.22,97.97 -1.28,7.68 -6.14,18.03 -21.64,23.66 -26.57,9.63 -46.07,38.7 -66.67,69.48 -13.52,20.07 -27.4,40.83 -44.36,57.67 -27.08,26.89 -98.24,46.45 -152.82,46.45z"/>
    <path class="fil5" d="M9097.83 3180.92l147.03 540.19c-0.59,63.84 -28.77,124.3 -77.21,165.88l-375.31 321.86 64.37 147.01c3.57,8.02 13.18,11.25 20.78,6.93 86.76,-49.34 542.42,-311.93 603.91,-415.18 37.8,-63.5 41.62,-241.1 43.22,-355.5 1.12,-84.68 -71.07,-262.51 -140.22,-311.5 -85.72,-58.49 -219.06,-114.04 -286.58,-99.68z"/>
    <path class="fil2 str0" d="M8792.42 4221.62c-3.65,0 -7.23,-1.51 -9.69,-4.45 -4.61,-5.36 -4.02,-13.43 1.34,-18.02l375.22 -321.88c45.65,-39.16 72.22,-96.14 72.81,-156.32l3.15 -308.76c0.08,-7.01 5.79,-12.65 12.78,-12.65l0.08 0c7.07,0.08 12.78,5.84 12.67,12.9l-3.14 308.78c-0.68,67.52 -30.47,131.47 -81.72,175.45l-375.23 321.89c-2.4,2.05 -5.36,3.06 -8.27,3.06z"/>
    <path class="fil2" d="M8993.2 4297.55c-4.43,0 -8.78,-2.31 -11.16,-6.46 -3.49,-6.14 -1.28,-13.93 4.83,-17.41 274.01,-155.4 450.25,-276.64 483.54,-332.62 18.64,-31.28 32.01,-90.07 39.84,-174.75 0.68,-7.02 6.99,-12.19 13.87,-11.55 7.08,0.66 12.27,6.89 11.59,13.9 -8.17,88.51 -22.82,150.89 -43.33,185.47 -46.24,77.63 -293.57,228.7 -492.88,341.76 -2.05,1.14 -4.16,1.66 -6.29,1.66z"/>
    <path class="fil3" d="M9033.29 2882.51c-6.05,0.26 -10.9,-4.85 -10.29,-10.95 3.15,-28.95 12.43,-83.25 -15.33,-107.6 -35.41,-31.22 -94.6,-78.71 -117.5,-49.66 -20.09,25.47 -40.37,77.15 -88.89,96.39 -4.59,1.83 -5.1,8.55 -2.98,13.1l10.14 25.76c2.32,5.1 0.26,16.94 -1.87,22.14 -6.72,16.07 -22.3,49.56 -19.32,56.6 5.87,13.71 58.91,38.18 58.91,38.18l-35.08 163.74c-1.36,6.22 -5.45,16.52 -11.58,14.99l-64.7 4.79c0,0 4,88.75 141.59,113.25 179.83,32.04 203.39,-88.55 203.39,-88.55 0,0 -175.73,-2.78 -99.19,-194.43 1.7,-4.21 5.54,-7.21 9.97,-7.89 17.11,-2.59 64.37,-11.9 73.3,-42.33 9.53,-32.31 -9.71,-48.42 -30.57,-47.53z"/>
    <path class="fil2" d="M9032.79 2869.75l0 0zm-233.12 56.13l0 0zm-49.64 235.79c6.8,23.07 32.52,71.9 128.56,89.01 128.91,22.98 171.3,-36.75 183.91,-64.82 -24.7,-3.61 -69.92,-15.41 -95.62,-53.97 -25.12,-37.78 -24.53,-90.4 1.87,-156.37 3.32,-8.37 10.89,-14.42 19.83,-15.78 34.92,-5.28 58.51,-17.73 63.1,-33.31 3.15,-10.71 2.56,-19.24 -1.7,-24.7 -3.5,-4.39 -9.45,-6.75 -16.18,-6.44 -6.56,0.3 -12.94,-2.32 -17.53,-7.13 -4.51,-4.81 -6.64,-11.35 -5.98,-17.96l0.94 -8.21c3.15,-26.4 8.27,-70.62 -12.01,-88.44 -54.23,-47.75 -79.53,-56.55 -91.18,-55.46 -3.49,0.33 -5.79,1.55 -7.82,4.1 -4.62,5.85 -9.55,13.74 -14.84,22.07 -15.82,25.27 -37.35,59.5 -74.64,76.3l9.6 24.29c4.35,9.53 0.43,25.86 -2.03,31.75 -1.04,2.53 -2.32,5.48 -3.68,8.67 -4.16,9.59 -13.45,31.1 -14.81,39.04 5.36,6.06 28.52,19.85 51.68,30.55 5.36,2.51 8.35,8.43 7.07,14.26l-34.99 163.76c-1.11,4.92 -4.51,16.93 -13.37,22.45 -3.4,2.13 -7.32,3.09 -11.23,2.7l-48.96 3.64zm183.06 119.73c-17.71,0 -37.21,-1.71 -58.93,-5.57 -145.92,-26 -151.96,-121.2 -152.15,-125.26 -0.25,-6.9 4.94,-12.79 11.85,-13.3l63.09 -4.7c0.59,-1.3 1.17,-3.1 1.6,-5.04l32.95 -153.89c-21.45,-10.5 -50.05,-26.61 -55.94,-40.35 -4.08,-9.39 0.35,-22.77 15.61,-58.15 1.36,-3.11 2.53,-5.96 3.57,-8.42 1.34,-3.13 2.38,-10.27 1.87,-12.55l-10.22 -25.74c-2.56,-5.63 -2.83,-12.92 -0.43,-18.91 2.04,-5.02 5.79,-8.82 10.65,-10.75 32.44,-12.85 51.68,-43.51 67.18,-68.13 5.61,-8.93 10.88,-17.37 16.35,-24.29 6.37,-8.02 15.24,-12.78 25.61,-13.72 25.3,-2.29 59.25,16.74 110.44,61.72 30.29,26.67 24.09,79.2 20.42,110.58l-0.51 4.76c13.79,0.3 26.06,6.14 33.99,16.29 9.44,12.05 11.58,28.97 6.03,47.66 -10.38,35.18 -56.87,47.26 -83.69,51.33 -23,57.66 -24.44,102.26 -4.34,132.62 28.27,42.58 91.26,44.29 91.96,44.31 3.74,0.06 7.33,1.8 9.71,4.76 2.38,2.92 3.31,6.76 2.55,10.45 -0.18,1.18 -22.21,104.28 -159.21,104.28z"/>
    <path class="fil3" d="M7402.25 3069.23l22.64 122.79c6.3,38.39 30.63,71.41 65.47,88.87l64.8 33.54c10.73,5.55 17.96,15.28 23.83,25.86 13.02,23.68 28.71,62.09 28.71,62.09l88.62 -44.85c0,0 -34.06,-41.28 -46.82,-54.87 -16.43,-17.39 -28.35,-39.57 -29.55,-63.46 -3.89,-75.93 -44.45,-132.89 -44.45,-132.89l-51.76 47.8c0,0 -35.35,-21.9 -60.96,-79.13 -6.31,-13.99 -13.2,-23.56 -20,-29.97 -17.71,-16.54 -46.15,0.67 -40.52,24.21z"/>
    <path class="fil2 str1" d="M7426.58 3051.24c-2.8,0 -5.1,1.14 -6.11,1.7 -3.85,2.21 -7.34,6.89 -5.79,13.33 0.08,0.23 0.08,0.42 0.17,0.65l22.57 122.79c5.71,34.46 27.66,64.19 58.66,79.77l64.96 33.6c15.05,7.82 23.83,21.47 29.11,31.06 8.69,15.66 18.22,37.13 24.01,50.66l62.16 -31.43c-11.08,-13.18 -28.09,-33.39 -36.1,-41.92 -20.01,-21.17 -31.77,-46.58 -33.04,-71.56 -2.65,-51.26 -22.99,-93.65 -34.41,-113.7l-40.44 37.32c-4.17,3.88 -10.46,4.48 -15.31,1.48 -1.62,-0.99 -39.01,-24.66 -65.92,-84.76 -5.1,-11.34 -10.8,-20.03 -17.11,-25.88 -2.46,-2.36 -5.1,-3.1 -7.42,-3.1zm181.12 363.93c-1.55,0 -3.07,-0.26 -4.53,-0.81 -3.32,-1.26 -5.96,-3.84 -7.32,-7.15 -0.16,-0.36 -15.5,-38.01 -28.09,-60.76 -5.78,-10.58 -11.65,-17.16 -18.49,-20.68l-64.77 -33.54c-38.15,-19.15 -65.23,-55.86 -72.22,-98.13l-22.57 -122.26c-3.66,-16.16 3.49,-32.59 17.98,-40.97 14.46,-8.44 31.67,-6.53 43.75,4.83 8.78,8.16 16.44,19.64 23,34.1 16.52,36.99 37.46,58.25 48.53,67.67l43.86 -40.53c2.72,-2.5 6.29,-3.69 9.95,-3.31 3.66,0.36 6.99,2.3 9.12,5.28 1.7,2.46 42.74,60.9 46.82,139.65 0.93,18.94 10.22,38.57 26.04,55.33 12.96,13.76 46.07,53.81 47.43,55.5 2.48,3 3.49,6.96 2.64,10.74 -0.77,3.8 -3.23,7.03 -6.72,8.77l-88.73 44.88c-1.77,0.91 -3.74,1.38 -5.69,1.38z"/>
    <path class="fil7" d="M5255.31 4800.85c-5.87,0 -11.13,-4.06 -12.41,-10.06l-119.37 -546.95c-40.53,-186.04 -208.26,-324.99 -398.72,-330.35 -7.07,-0.19 -12.61,-6.06 -12.43,-13.12 0.24,-7.05 6.29,-12.63 13.1,-12.41 202.05,5.69 380,153.08 422.98,350.44l119.37 546.95c1.53,6.91 -2.91,13.71 -9.71,15.22 -0.93,0.21 -1.87,0.28 -2.83,0.28z"/>
    <path class="fil7" d="M4309.67 4765.07c-6.64,0 -12.27,-5.12 -12.78,-11.84l-28.19 -387.53c-9.02,-124.85 32.87,-244.1 118.18,-335.76 47.68,-51.31 104.47,-89.6 168.76,-113.79 6.54,-2.46 13.95,0.85 16.43,7.46 2.46,6.6 -0.87,13.97 -7.52,16.45 -60.53,22.79 -113.99,58.89 -159.03,107.27 -80.3,86.42 -119.87,198.83 -111.28,316.53l28.18 387.53c0.5,7.04 -4.78,13.14 -11.83,13.65 -0.34,0.04 -0.61,0.04 -0.93,0.04z"/>
    <path class="fil6" d="M5459.15 4638.4l198.22 20.82 437.71 2126.73c1.1,5.42 -1.87,10.83 -7.08,12.78l-660.78 259.89c-1.28,0.53 28.78,-2422.66 31.93,-2420.22z"/>
    <polygon class="fil3" points="3729.59,4665.51 5449.52,4641.79 5415.91,7040.93 3095.45,7024.65 "/>
    <path class="fil5" d="M5421.35 7060.42c-0.08,0 -0.08,0 -0.17,0l-2311.42 -38.83 610.8 -2329.56c4,-15.22 17.61,-25.9 33.38,-26.17l1700.86 -27.22c2.98,-0.06 6.06,1.14 8.19,3.3 2.1,2.17 3.39,5.12 3.31,8.16l-33.64 2399.15c-0.08,2.98 -1.28,5.89 -3.49,8.02 -2.03,2.03 -4.83,3.14 -7.82,3.14z"/>
    <path class="fil2" d="M3126.21 7009.15l2293.7 38.5 33.61 -2396.21 -1699.42 27.2c-9.95,0.14 -18.64,7.01 -21.19,16.64l-606.71 2313.87zm2295.14 38.5l0 0 0 0zm0 25.53l-0.17 0 -2311.68 -38.82c-3.91,0 -7.57,-1.87 -9.95,-5.01 -2.4,-3.15 -3.17,-7.15 -2.13,-10.99l610.8 -2329.56c5.44,-20.69 24.19,-35.37 45.56,-35.7l1700.86 -27.23c6.22,-0.15 12.78,2.42 17.37,7.05 4.59,4.57 7.15,10.91 7.08,17.37l-33.64 2399.14c-0.08,6.47 -2.72,12.52 -7.31,16.95 -4.53,4.42 -10.48,6.8 -16.78,6.8z"/>
    <path class="fil2" d="M3937.84 4675.7c-6.97,0 -12.67,-5.55 -12.75,-12.5 -0.19,-7.05 5.44,-12.9 12.43,-13.03l523.27 -11.4c7.41,-0.3 12.94,5.44 13.01,12.48 0.19,7.05 -5.36,12.9 -12.43,13.05l-523.27 11.4c-0.08,0 -0.17,0 -0.26,0zm1517.31 -24.3l-0.08 0c0,0 0,0 0.08,0zm-33.8 2421.78l-1982.1 -32.44c-7.05,-0.08 -12.67,-5.95 -12.52,-12.94 0.11,-7.06 5.98,-12.68 12.95,-12.59l1980.23 32.44 33.61 -2396.21 -803.04 12.86c-7.33,-0.1 -12.94,-5.5 -13.04,-12.57 -0.08,-7.05 5.55,-12.86 12.61,-12.98l804.58 -12.88c6.22,-0.15 12.78,2.42 17.37,7.05 4.59,4.57 7.15,10.91 7.08,17.37l-33.64 2399.14c-0.08,6.47 -2.72,12.52 -7.31,16.95 -4.53,4.42 -10.48,6.8 -16.78,6.8z"/>
    <path class="fil1" d="M4032.51 4894.82c-42.55,0 -77.12,-34.62 -77.12,-77.17 0,-42.56 34.57,-77.17 77.12,-77.17 42.58,0 77.16,34.61 77.16,77.17 0,42.55 -34.58,77.17 -77.16,77.17z"/>
    <path class="fil1" d="M4957.07 4894.82c-42.58,0 -77.21,-34.62 -77.21,-77.17 0,-42.56 34.63,-77.17 77.21,-77.17 42.48,0 77.13,34.61 77.13,77.17 0,42.55 -34.65,77.17 -77.13,77.17z"/>
    <path class="fil7" d="M4959.28 4830.31c-0.23,0 -0.59,-0.02 -0.93,-0.04 -6.99,-0.51 -12.35,-6.64 -11.76,-13.67l33.06 -452.74c8.43,-117.74 -30.34,-230.19 -109.09,-316.62 -78.57,-86.35 -185.52,-133.89 -300.96,-133.89 -191.92,0 -360.85,138.97 -401.8,330.44l-122.51 574.33c-1.44,6.91 -8.27,11.32 -15.16,9.83 -6.88,-1.46 -11.31,-8.25 -9.79,-15.16l122.51 -574.35c43.43,-203.18 222.92,-350.65 426.74,-350.65 122.69,0 236.34,50.52 319.87,142.25 83.53,91.65 124.56,210.85 115.71,335.64l-33.11 452.78c-0.51,6.72 -6.14,11.84 -12.78,11.84z"/>
    <path class="fil2" d="M5989.16 6760.69c-2.13,0 -4.34,-0.57 -6.39,-1.75l-299.52 -174.79c-6.83,-3.96 -11.25,-11.05 -11.85,-18.94l-98.58 -1725.76c-0.34,-7.05 5.02,-13.08 12.08,-13.48 6.99,-0.35 13.03,4.99 13.47,12.02l98.41 1724.51 298.84 174.39c6.14,3.55 8.17,11.37 4.62,17.47 -2.4,4.06 -6.64,6.34 -11.08,6.34z"/>
    <path class="fil2" d="M5939.25 6017.24c-5.87,0 -11.16,-4.08 -12.43,-10.08l-208.77 -968.53c-1.52,-6.88 2.91,-13.69 9.8,-15.17 6.89,-1.49 13.71,2.91 15.16,9.79l208.76 968.53c1.55,6.89 -2.89,13.69 -9.8,15.18 -0.83,0.19 -1.76,0.28 -2.72,0.28z"/>
    <path class="fil7" d="M5130.74 1356.14c-6.37,0 -11.9,-4.79 -12.67,-11.31 -0.77,-7.02 4.27,-13.35 11.23,-14.16 34.49,-3.96 69.15,-6.44 102.94,-7.36 6.97,-0.38 12.95,5.36 13.1,12.44 0.26,7.03 -5.36,12.92 -12.35,13.1 -33.19,0.89 -67.07,3.33 -100.79,7.2 -0.51,0.05 -0.94,0.09 -1.47,0.09zm305.41 6.42c-0.67,0 -1.36,-0.06 -2.1,-0.17 -32.87,-5.46 -66.59,-9.35 -100.15,-11.6 -7.06,-0.47 -12.42,-6.55 -11.91,-13.59 0.43,-7.03 6.62,-12.31 13.61,-11.88 34.42,2.29 68.96,6.27 102.6,11.86 6.97,1.15 11.65,7.72 10.56,14.69 -1.03,6.25 -6.48,10.69 -12.61,10.69zm-505.65 33.12c-5.61,0 -10.73,-3.69 -12.25,-9.36 -1.97,-6.79 2.04,-13.84 8.86,-15.73 33.46,-9.29 67.27,-17.33 100.29,-23.89 6.91,-1.39 13.63,3.1 14.99,10.03 1.36,6.91 -3.07,13.63 -10.06,15.01 -32.44,6.44 -65.54,14.35 -98.41,23.47 -1.1,0.3 -2.3,0.46 -3.42,0.46zm702.51 20.24c-1.55,0 -3.06,-0.26 -4.61,-0.85 -31.25,-11.97 -63.5,-22.49 -95.86,-31.25 -6.8,-1.85 -10.8,-8.86 -8.93,-15.66 1.79,-6.81 8.86,-10.85 15.66,-8.98 33.11,8.98 66.25,19.77 98.26,32.02 6.64,2.53 9.87,9.91 7.42,16.51 -1.98,5.08 -6.83,8.21 -11.93,8.21zm-895.18 47.37c-4.93,0 -9.71,-2.93 -11.74,-7.8 -2.72,-6.5 0.24,-13.99 6.81,-16.74 32.01,-13.52 64.28,-26.04 95.96,-37.19 6.63,-2.32 13.95,1.15 16.24,7.8 2.4,6.65 -1.1,13.95 -7.74,16.28 -31.24,10.99 -63.01,23.3 -94.51,36.63 -1.6,0.69 -3.32,1.02 -5.02,1.02zm1077.48 44.16c-2.4,0 -4.7,-0.64 -6.81,-2 -28.53,-17.98 -58.08,-34.69 -87.79,-49.66 -6.38,-3.17 -8.87,-10.85 -5.71,-17.14 3.15,-6.32 10.83,-8.84 17.12,-5.69 30.55,15.35 60.78,32.48 89.99,50.92 5.95,3.76 7.74,11.64 4,17.61 -2.48,3.84 -6.64,5.95 -10.8,5.95zm-1259.51 47.94c-4.26,0 -8.35,-2.07 -10.82,-5.87 -3.82,-5.93 -2.03,-13.84 3.84,-17.65 24.52,-15.76 49.99,-30.25 75.61,-43.09 5.03,-2.46 9.97,-4.91 14.88,-7.33 6.32,-3.11 13.97,-0.49 17.12,5.84 3.07,6.34 0.43,14 -5.87,17.09 -4.93,2.4 -9.79,4.81 -14.73,7.25 -24.78,12.42 -49.38,26.45 -73.15,41.73 -2.21,1.36 -4.59,2.04 -6.89,2.04zm1420.75 77c-3.06,0 -6.21,-1.14 -8.67,-3.45 -24.52,-22.98 -50.32,-45.01 -76.81,-65.53 -5.54,-4.31 -6.56,-12.32 -2.29,-17.91 4.34,-5.57 12.35,-6.59 17.96,-2.28 27.08,21.01 53.46,43.58 78.59,67.1 5.18,4.8 5.44,12.9 0.59,18.03 -2.53,2.7 -5.87,4.04 -9.36,4.04zm-1577.92 52.83c-3.15,0 -6.3,-1.17 -8.84,-3.55 -5.04,-4.89 -5.21,-12.99 -0.34,-18.05 24.09,-25.07 49.62,-48.78 75.85,-70.52 5.46,-4.5 13.45,-3.76 17.98,1.69 4.51,5.42 3.74,13.48 -1.71,17.98 -25.45,21.11 -50.23,44.18 -73.65,68.56 -2.54,2.59 -5.87,3.89 -9.29,3.89zm1712.97 100.2c-3.91,0 -7.84,-1.83 -10.29,-5.28 -19.42,-26.85 -40.63,-53.34 -63.09,-78.77 -4.7,-5.27 -4.19,-13.36 1.09,-18.03 5.28,-4.67 13.37,-4.16 18.06,1.12 23,26.07 44.77,53.22 64.61,80.73 4.1,5.72 2.83,13.71 -2.89,17.83 -2.21,1.64 -4.85,2.42 -7.5,2.42zm-1837.85 61.04c-2.3,0 -4.61,-0.61 -6.72,-1.91 -5.98,-3.72 -7.85,-11.6 -4.11,-17.59 18.22,-29.33 38.08,-57.93 58.93,-84.99 4.33,-5.59 12.35,-6.61 17.96,-2.27 5.55,4.28 6.57,12.32 2.3,17.89 -20.41,26.37 -39.76,54.24 -57.47,82.85 -2.46,3.89 -6.63,6.03 -10.88,6.03zm-89.4 183.41c-1.46,0 -2.98,-0.26 -4.43,-0.79 -6.63,-2.44 -10.05,-9.78 -7.57,-16.4 11.82,-32.16 25.45,-64.18 40.61,-95.17 3.06,-6.33 10.73,-8.99 17.02,-5.89 6.4,3.11 8.94,10.74 5.89,17.09 -14.75,30.21 -28.03,61.42 -39.5,92.79 -1.97,5.16 -6.83,8.38 -12.01,8.38zm-49.73 197.87c-0.61,0 -1.19,-0.02 -1.78,-0.12 -6.99,-0.96 -11.93,-7.4 -10.91,-14.38 4.7,-33.78 11.33,-67.99 19.85,-101.66 1.71,-6.85 8.59,-10.97 15.5,-9.27 6.8,1.75 10.97,8.67 9.27,15.52 -8.33,32.76 -14.82,66.03 -19.32,98.9 -0.86,6.4 -6.38,11.01 -12.6,11.01zm-3.76 203.84c-6.46,0 -12,-4.85 -12.67,-11.42 -3.06,-28.48 -4.61,-57.75 -4.61,-87.01 0,-5.53 0,-11.08 0.19,-16.61 0.08,-7.05 5.95,-12.79 12.94,-12.51 7.07,0.12 12.67,5.97 12.52,13.02 -0.09,5.36 -0.09,10.73 -0.09,16.09 0,28.35 1.45,56.73 4.43,84.29 0.77,7.01 -4.34,13.31 -11.33,14.06 -0.43,0.04 -0.94,0.08 -1.37,0.08zm43.69 199.29c-5.46,0 -10.48,-3.49 -12.18,-8.96 -10.38,-33.14 -19.4,-66.71 -26.73,-99.68 -1.52,-6.88 2.81,-13.71 9.63,-15.24 6.89,-1.56 13.69,2.79 15.24,9.67 7.23,32.3 16.09,65.13 26.23,97.63 2.13,6.74 -1.62,13.9 -8.43,15.98 -1.2,0.41 -2.47,0.6 -3.75,0.6zm75.18 189.78c-4.78,0 -9.28,-2.68 -11.5,-7.25 -15.07,-31.42 -28.95,-63.16 -41.37,-94.35 -2.64,-6.55 0.59,-13.97 7.14,-16.58 6.57,-2.62 13.96,0.59 16.6,7.15 12.17,30.65 25.88,61.85 40.71,92.75 2.97,6.33 0.35,13.97 -6.05,17.02 -1.79,0.86 -3.66,1.26 -5.53,1.26zm735.1 140.53c-1.1,0 -2.11,-0.15 -3.23,-0.41 -32.28,-8.39 -65.21,-12.84 -97.92,-13.22 -7.07,-0.09 -12.77,-5.87 -12.67,-12.92 0.08,-7.02 5.77,-12.62 12.76,-12.62 0.08,0 0.18,0 0.18,0 34.82,0.41 69.8,5.15 104.05,14.04 6.88,1.76 10.97,8.73 9.18,15.56 -1.53,5.74 -6.72,9.57 -12.35,9.57zm-296.37 37.03c-4.35,0 -8.59,-2.26 -10.99,-6.32 -3.58,-6.07 -1.53,-13.9 4.5,-17.47 30.23,-17.79 63.1,-31.27 97.5,-40.08 6.81,-1.74 13.8,2.38 15.59,9.21 1.68,6.84 -2.41,13.79 -9.29,15.54 -32.1,8.2 -62.67,20.77 -90.84,37.35 -2.05,1.2 -4.27,1.77 -6.48,1.77zm-339.54 1.02c-4.27,0 -8.43,-2.11 -10.82,-6 -18.54,-29.41 -36.26,-59.17 -52.53,-88.44 -3.4,-6.16 -1.18,-13.93 4.93,-17.37 6.22,-3.43 13.97,-1.19 17.37,4.94 16.09,28.86 33.48,58.23 51.78,87.28 3.83,5.96 2.05,13.84 -3.99,17.61 -2.05,1.32 -4.43,1.98 -6.73,1.98zm813.61 58.5c-3.15,0 -6.3,-1.15 -8.78,-3.47 -23.4,-22.11 -50.4,-41.42 -80.11,-57.4 -6.21,-3.36 -8.5,-11.1 -5.2,-17.31 3.42,-6.19 11.07,-8.53 17.39,-5.18 31.59,17.07 60.35,37.68 85.48,61.31 5.1,4.83 5.36,12.92 0.51,18.05 -2.56,2.66 -5.87,4 -9.29,4zm-615.32 85.12c-2.3,0 -4.68,-0.62 -6.73,-1.92 -6.03,-3.69 -7.82,-11.58 -4.16,-17.57 9.71,-15.75 20.68,-31.65 32.44,-47.25 9.71,-12.72 20.01,-24.88 30.81,-36.16 4.85,-5.1 12.94,-5.28 18.05,-0.41 5.02,4.87 5.28,12.97 0.35,18.05 -10.06,10.59 -19.77,21.99 -28.79,33.93 -11.41,14.97 -21.79,30.19 -31.16,45.24 -2.38,3.92 -6.57,6.08 -10.82,6.08zm-83.35 25.25c-4,0 -7.92,-1.87 -10.37,-5.38 -15.85,-22.28 -31.68,-45.2 -47.94,-68.69l-10.65 -15.23c-4,-5.79 -2.56,-13.76 3.23,-17.76 5.79,-4.02 13.8,-2.59 17.79,3.19l10.57 15.26c16.17,23.39 32.01,46.24 47.77,68.44 4.08,5.74 2.72,13.71 -2.98,17.79 -2.21,1.6 -4.85,2.38 -7.42,2.38zm794.29 65.78c-6.21,0 -11.65,-4.56 -12.61,-10.89 -4.76,-31.87 -15.31,-62.75 -31.4,-91.8 -3.42,-6.16 -1.2,-13.93 4.93,-17.35 6.21,-3.42 13.95,-1.17 17.37,4.98 17.63,31.73 29.21,65.51 34.39,100.39 1.04,6.97 -3.74,13.47 -10.73,14.52 -0.67,0.08 -1.28,0.15 -1.95,0.15zm-775.8 100.59c-0.26,0 -0.61,-0.02 -0.95,-0.04 -6.97,-0.51 -12.25,-6.61 -11.82,-13.65 2.48,-34.63 9.71,-69.29 21.37,-103.03 2.29,-6.64 9.54,-10.2 16.24,-7.86 6.64,2.31 10.24,9.59 7.84,16.25 -0.67,2.17 -1.44,4.33 -2.13,6.5 0.77,-2.04 2.13,-3.88 3.92,-5.34 5.55,-4.34 13.63,-3.42 17.98,2.13 22.9,29.04 44.45,54.01 65.97,76.32 4.85,5.08 4.7,13.16 -0.34,18.05 -5.1,4.91 -13.18,4.74 -18.03,-0.32 -22.14,-22.94 -44.29,-48.53 -67.71,-78.23 -2.53,-3.27 -3.23,-7.4 -2.29,-11.14 -9.37,29.07 -15.24,58.79 -17.29,88.46 -0.51,6.75 -6.12,11.89 -12.76,11.89zm737.84 95.31c-2.55,0 -5.12,-0.75 -7.33,-2.32 -5.79,-4.04 -7.23,-11.99 -3.15,-17.77 17.71,-25.34 29.53,-55.28 35.25,-88.97 1.19,-6.95 7.84,-11.61 14.73,-10.47 6.9,1.18 11.58,7.76 10.48,14.73 -6.38,37.46 -19.67,70.88 -39.51,99.31 -2.48,3.57 -6.46,5.49 -10.46,5.49zm-467.1 20.96c-1.96,0 -4,-0.47 -5.87,-1.47 -30.89,-16.17 -59.6,-34.57 -87.69,-56.25 -5.63,-4.31 -6.64,-12.31 -2.38,-17.89 4.33,-5.59 12.33,-6.64 17.96,-2.32 26.91,20.74 54.32,38.35 83.95,53.85 6.21,3.27 8.59,10.97 5.36,17.22 -2.29,4.37 -6.72,6.85 -11.33,6.85zm192.77 65.84c-0.85,0 -1.78,-0.09 -2.64,-0.26 -28.27,-5.83 -55.51,-13.41 -78.32,-20.05 -7.33,-2.15 -14.56,-4.39 -21.71,-6.7 -6.72,-2.19 -10.38,-9.4 -8.16,-16.12 2.21,-6.69 9.44,-10.35 16.09,-8.16 6.88,2.23 13.87,4.38 20.94,6.46 22.38,6.48 48.95,13.9 76.36,19.54 6.91,1.42 11.33,8.19 9.89,15.1 -1.2,6.03 -6.57,10.2 -12.44,10.2zm101.41 9.22c-6.74,0 -12.35,-5.23 -12.7,-12.01 -0.42,-7.05 4.94,-13.08 11.93,-13.5 20.51,-1.26 39.35,-5.02 55.94,-11.21 12.59,-4.74 24.59,-10.22 35.67,-16.29 6.21,-3.4 13.97,-1.14 17.37,5.04 3.42,6.19 1.1,13.95 -5.02,17.35 -12.18,6.65 -25.29,12.67 -39.08,17.81 -18.99,7.09 -40.26,11.4 -63.33,12.8 -0.26,0 -0.53,0.02 -0.77,0.02zm-530.61 8.33c-5.12,0 -9.86,-3.08 -11.84,-8.14 -13.61,-34.84 -23.15,-67.67 -29.02,-100.29 -1.28,-6.95 3.31,-13.58 10.22,-14.86 6.97,-1.28 13.61,3.35 14.89,10.27 5.63,31.02 14.75,62.29 27.66,95.62 2.55,6.56 -0.68,13.97 -7.23,16.54 -1.53,0.59 -3.07,0.87 -4.68,0.87zm95.27 180.45c-4.25,0 -8.35,-2.11 -10.8,-5.98 -21.13,-33.61 -37.8,-61.81 -52.29,-88.75 -3.41,-6.19 -1.01,-13.93 5.13,-17.31 6.19,-3.35 13.95,-1.01 17.36,5.19 14.23,26.4 30.55,54.15 51.41,87.29 3.76,5.97 1.98,13.83 -4,17.6 -2.13,1.32 -4.42,1.96 -6.8,1.96z"/>
   </g>
  </g>
 </g>
</svg>
