<?xml version="1.0" encoding="utf-8"?>
<!-- Generator: Adobe Illustrator 19.0.0, SVG Export Plug-In . SVG Version: 6.00 Build 0)  -->
<svg version="1.1" id="Capa_1" xmlns:xodm="http://www.corel.com/coreldraw/odm/2003"
	 xmlns="http://www.w3.org/2000/svg" xmlns:xlink="http://www.w3.org/1999/xlink" x="0px" y="0px" viewBox="-106 294.9 397.6 204.1"
	 style="enable-background:new -106 294.9 397.6 204.1;" xml:space="preserve">
<style type="text/css">
	.st0{fill:#E5F3F5;}
	.st1{fill:#CADDFF;}
	.st2{fill:#FFFFFF;}
	.st3{fill:#4AB549;}
	.st4{fill:#99B9FF;}
	.st5{fill:#5479F7;}
	.st6{fill:#47A147;}
</style>
<g id="Capa_x0020_1">
	<path class="st0" d="M282.5,382.7c5,0,9.1,4.1,9.1,9.1c0,5-4.1,9.1-9.1,9.1c-5,0-9.1-4.1-9.1-9.1
		C273.4,386.8,277.5,382.7,282.5,382.7z M46.3,445.4H268c12.6,0,22.9,10.3,22.9,22.9l0,0c0,12.6-10.3,22.9-22.9,22.9H46.3
		c-12.6,0-22.9-10.3-22.9-22.9l0,0C23.4,455.7,33.7,445.4,46.3,445.4L46.3,445.4z M20,381.4h221.7c12.6,0,22.9,10.3,22.9,22.9l0,0
		c0,12.6-10.3,22.9-22.9,22.9H20c-12.6,0-22.9-10.3-22.9-22.9l0,0C-2.9,391.7,7.4,381.4,20,381.4z M84.7,312h134.1
		c12.6,0,22.9,10.3,22.9,22.9l0,0c0,12.6-10.3,22.9-22.9,22.9H84.7c-12.6,0-22.9-10.3-22.9-22.9l0,0C61.8,322.3,72.1,312,84.7,312z
		 M19.7,357.1c5,0,9.1,4.1,9.1,9.1c0,5-4.1,9.1-9.1,9.1c-5,0-9.1-4.1-9.1-9.1C10.6,361.2,14.7,357.1,19.7,357.1z M-89.8,392.9h48.5
		c8.9,0,16.2,7.3,16.2,16.2v0c0,8.9-7.3,16.2-16.2,16.2h-48.5c-8.9,0-16.2-7.3-16.2-16.2v0C-106,400.1-98.7,392.9-89.8,392.9z"/>
	<g id="_2086710473648">
		<path class="st1" d="M158.2,385.8c-7-20,32.1-38.4,28.5-58.8c-3.8-22.1-57.7-37.8-103.3-30.2c-13.7,2.3-65.2,10.8-88.6,57.1
			c-23.2,46-9.3,108.1,28.1,132.1c21,13.5,45,12.3,69.9,11c24.5-1.2,50.3-0.4,69.7-18c20.4-18.4,30.5-53.7,19.2-72.6
			C174.3,394.2,162,396.6,158.2,385.8L158.2,385.8z"/>
		<path d="M30,323.2c-0.2,0-0.4-0.2-0.4-0.4V321c0-0.2,0.2-0.4,0.4-0.4s0.4,0.2,0.4,0.4v1.9C30.3,323.1,30.2,323.2,30,323.2z"/>
		<path d="M30,327.7c-0.2,0-0.4-0.2-0.4-0.4v-1.9c0-0.2,0.2-0.4,0.4-0.4s0.4,0.2,0.4,0.4v1.9C30.3,327.5,30.2,327.7,30,327.7z"/>
		<path d="M28.7,324.5h-1.9c-0.2,0-0.4-0.2-0.4-0.4c0-0.2,0.2-0.4,0.4-0.4h1.9c0.2,0,0.4,0.2,0.4,0.4
			C29.1,324.3,28.9,324.5,28.7,324.5z"/>
		<path d="M33.1,324.5h-1.9c-0.2,0-0.4-0.2-0.4-0.4c0-0.2,0.2-0.4,0.4-0.4h1.9c0.2,0,0.4,0.2,0.4,0.4
			C33.5,324.3,33.4,324.5,33.1,324.5z"/>
		<path d="M124.5,301.4c-0.2,0-0.4-0.2-0.4-0.4v-1.9c0-0.2,0.2-0.4,0.4-0.4s0.4,0.2,0.4,0.4v1.9
			C124.8,301.2,124.7,301.4,124.5,301.4z"/>
		<path d="M124.5,305.8c-0.2,0-0.4-0.2-0.4-0.4v-1.9c0-0.2,0.2-0.4,0.4-0.4s0.4,0.2,0.4,0.4v1.9
			C124.8,305.7,124.7,305.8,124.5,305.8z"/>
		<path d="M123.2,302.7h-1.9c-0.2,0-0.4-0.2-0.4-0.4c0-0.2,0.2-0.4,0.4-0.4h1.9c0.2,0,0.4,0.2,0.4,0.4
			C123.6,302.5,123.4,302.7,123.2,302.7z"/>
		<path d="M127.6,302.7h-1.9c-0.2,0-0.4-0.2-0.4-0.4c0-0.2,0.2-0.4,0.4-0.4h1.9c0.2,0,0.4,0.2,0.4,0.4
			C128,302.5,127.9,302.7,127.6,302.7z"/>
		<path d="M21.7,374.2c-0.1,0-0.2,0-0.3-0.1c-0.1-0.1-0.1-0.4,0-0.5l14.9-14.5c0.1-0.1,0.4-0.1,0.5,0c0.1,0.1,0.1,0.4,0,0.5
			l-14.9,14.5C21.8,374.2,21.8,374.2,21.7,374.2L21.7,374.2z"/>
		<path d="M29.3,359.3c-0.1,0-0.2,0-0.3-0.1c-0.1-0.1-0.1-0.4,0-0.5l7.2-7c0.1-0.1,0.4-0.1,0.5,0c0.1,0.1,0.1,0.4,0,0.5l-7.2,7
			C29.5,359.3,29.4,359.3,29.3,359.3L29.3,359.3z"/>
		<path d="M94.2,405.7c-0.1,0-0.2,0-0.3-0.1c-0.1-0.1-0.1-0.4,0-0.5l11.8-11.5c0.1-0.1,0.4-0.1,0.5,0c0.1,0.1,0.1,0.4,0,0.5
			l-11.8,11.5C94.4,405.7,94.3,405.7,94.2,405.7L94.2,405.7z"/>
		<path d="M94.9,396c-0.1,0-0.2,0-0.3-0.1c-0.1-0.1-0.1-0.4,0-0.5l16.4-16.2c0.1-0.1,0.4-0.1,0.5,0c0.1,0.1,0.1,0.4,0,0.5
			l-16.4,16.2C95.1,396,95,396,94.9,396L94.9,396z"/>
		<polygon class="st2" points="61,482.7 59.9,490.7 63.6,490.7 66,482 		"/>
		<path d="M60.3,490.3h3l2.2-7.9l-4.1,0.6L60.3,490.3z M63.6,491.1h-3.7c-0.1,0-0.2,0-0.3-0.1c-0.1-0.1-0.1-0.2-0.1-0.3l1.1-8
			c0-0.2,0.2-0.3,0.3-0.3l5-0.7c0.1,0,0.2,0,0.3,0.1c0.1,0.1,0.1,0.2,0.1,0.3l-2.4,8.7C63.9,490.9,63.7,491.1,63.6,491.1L63.6,491.1
			z"/>
		<path class="st3" d="M76.2,497.2H59.4c-0.9,0-1.5-0.9-1.4-1.9c0.3-2.2,0.8-5.9,1.2-7.3c0.7-2.2,2.8,1.3,2.8,1.3l2.3-2.2
			c0,0,10,4.7,12.5,8.6C77.3,496.3,76.9,497.2,76.2,497.2L76.2,497.2z"/>
		<path d="M59.9,487.6C59.9,487.6,59.9,487.6,59.9,487.6c-0.1,0-0.2,0.2-0.3,0.5c-0.4,1.5-1,5.2-1.2,7.3c-0.1,0.4,0.1,0.8,0.3,1.1
			c0.2,0.2,0.5,0.4,0.7,0.4h16.8c0.2,0,0.3-0.2,0.4-0.3c0.1-0.2,0.1-0.5,0-0.7c-2.2-3.4-10.7-7.7-12.2-8.4l-2.2,2.1
			c-0.1,0.1-0.2,0.1-0.3,0.1c-0.1,0-0.2-0.1-0.3-0.2C61.1,488.6,60.3,487.6,59.9,487.6L59.9,487.6z M76.2,497.6H59.4
			c-0.5,0-1-0.2-1.3-0.6c-0.4-0.4-0.6-1.1-0.5-1.7c0.3-2.6,0.8-6,1.3-7.4c0.2-0.6,0.5-0.9,0.9-1c0.9-0.1,1.8,1.1,2.3,1.8l2-1.9
			c0.1-0.1,0.3-0.1,0.4-0.1c0.4,0.2,10.1,4.8,12.7,8.8c0.3,0.4,0.3,1,0.1,1.4C77,497.3,76.6,497.6,76.2,497.6L76.2,497.6z"/>
		<path d="M75.2,496.1H59.5c-0.2,0-0.4-0.2-0.4-0.4c0-0.2,0.2-0.4,0.4-0.4h15.7c0.2,0,0.4,0.2,0.4,0.4S75.4,496.1,75.2,496.1z"/>
		<path class="st2" d="M40.5,476.8c-0.3,0.9-4.3,10-4.3,10l3,3.7l2-2.4l4-10.4L40.5,476.8L40.5,476.8z"/>
		<path d="M36.7,486.8l2.5,3.2l1.7-2l3.9-10l-4-0.8C40.1,478.9,37.2,485.5,36.7,486.8L36.7,486.8z M39.2,490.9
			C39.2,490.9,39.2,490.9,39.2,490.9c-0.1,0-0.2-0.1-0.3-0.1l-3-3.7c-0.1-0.1-0.1-0.2-0.1-0.4c0-0.1,3.9-9.1,4.3-10
			c0.1-0.2,0.2-0.3,0.4-0.2l4.8,0.9c0.1,0,0.2,0.1,0.3,0.2c0.1,0.1,0.1,0.2,0,0.3l-4,10.4c0,0,0,0.1-0.1,0.1l-2,2.4
			C39.4,490.9,39.3,490.9,39.2,490.9L39.2,490.9z"/>
		<path class="st3" d="M34,486.2c-0.5,0.5-0.7,1.3-0.4,2c0.9,2.3,3.2,7.5,7.3,9c3.3,1.2,5.6,1.2,6.8,1c0.6-0.1,0.9-0.8,0.6-1.3
			c-1.4-2.2-4.6-7.7-4.9-10.6c-0.4-3.6-4.7,0.7-4.7,0.7l-2.3-3.1L34,486.2L34,486.2z"/>
		<path d="M34.3,486.5c-0.4,0.4-0.6,1-0.4,1.6c0.8,2.1,3.1,7.3,7.1,8.8c3.2,1.2,5.4,1.2,6.6,1c0.2,0,0.3-0.1,0.4-0.3
			c0.1-0.1,0.1-0.3,0-0.5c-1.4-2.3-4.7-7.8-5-10.7c-0.1-0.6-0.2-1-0.5-1.1c-0.8-0.3-2.6,1.1-3.5,2c-0.1,0.1-0.2,0.1-0.3,0.1
			c-0.1,0-0.2-0.1-0.3-0.1l-2.1-2.8L34.3,486.5L34.3,486.5z M46.5,498.6c-1.4,0-3.3-0.3-5.7-1.1c-4.3-1.6-6.7-7-7.6-9.2
			c-0.3-0.8-0.1-1.7,0.5-2.4l2.4-2.3c0.1-0.1,0.2-0.1,0.3-0.1c0.1,0,0.2,0.1,0.3,0.1l2.1,2.8c0.8-0.7,2.7-2.3,4-1.9
			c0.6,0.2,0.9,0.8,1,1.7c0.3,2.8,3.5,8.2,4.9,10.4c0.2,0.4,0.2,0.8,0.1,1.2c-0.2,0.4-0.5,0.6-0.9,0.7
			C47.4,498.6,47,498.6,46.5,498.6L46.5,498.6z"/>
		<path d="M45.9,496.9C45.9,496.9,45.9,496.9,45.9,496.9c-9.2-1.4-11.4-9.2-11.4-9.3c-0.1-0.2,0.1-0.4,0.3-0.5
			c0.2-0.1,0.4,0.1,0.5,0.3c0,0.1,2.1,7.4,10.8,8.8c0.2,0,0.3,0.2,0.3,0.4C46.3,496.8,46.1,496.9,45.9,496.9L45.9,496.9z"/>
		<path d="M41.7,492c-0.1,0-0.3-0.1-0.3-0.2c-0.1-0.2,0-0.4,0.2-0.5l2.9-1.5c0.2-0.1,0.4,0,0.5,0.2c0.1,0.2,0,0.4-0.2,0.5l-2.9,1.5
			C41.8,492,41.8,492,41.7,492L41.7,492z"/>
		<path d="M66,492.7c-0.1,0-0.1,0-0.2-0.1c-0.2-0.1-0.2-0.3-0.1-0.5l2-3.1c0.1-0.2,0.3-0.2,0.5-0.1c0.2,0.1,0.2,0.3,0.1,0.5l-2,3.1
			C66.2,492.7,66.1,492.7,66,492.7L66,492.7z"/>
		<path class="st4" d="M53.3,424.1c0,0-6.1-4.8-2.9-7.5c2.9-2.3,5.1-2.2,5.1-2.2L53.3,424.1L53.3,424.1z"/>
		<path d="M55,414.8c-0.8,0.1-2.4,0.5-4.4,2.1c-0.5,0.4-0.8,1-0.8,1.6c0,1.8,2.2,4,3.2,4.9L55,414.8L55,414.8z M53.3,424.5
			c-0.1,0-0.2,0-0.2-0.1c-0.2-0.1-3.9-3.2-3.9-5.9c0-0.9,0.4-1.6,1.1-2.2c2.9-2.4,5.2-2.3,5.3-2.3c0.1,0,0.2,0.1,0.3,0.1
			c0.1,0.1,0.1,0.2,0.1,0.3l-2.2,9.7c0,0.1-0.1,0.2-0.2,0.3C53.3,424.5,53.3,424.5,53.3,424.5L53.3,424.5z"/>
		<path d="M57.6,412.1c0,0-8.1,6.5-10,13.3c-1.6,5.6-4.5,38.4-4.5,38.4s-4.7,13.1-4.9,16.9c0,0,3.7,2.7,6.6,2.3l6.5-15.8
			c0,0,1.4-1.9,2.1-4.1c0.7-2.2,6.6-23.1,6.6-23.1s0.5,30.9-0.5,44c0,0,4.3,0.7,6.8,0.1c0,0,1-10.7,2.1-13.3c1.2-2.6,1.4-6.7,1-10.7
			c-0.4-3.9,3.5-26.3,2.5-46L57.6,412.1L57.6,412.1z"/>
		<path class="st5" d="M45.3,471.6c-0.2,0-0.3-0.1-0.4-0.3c0-0.2,0.1-0.4,0.3-0.4c0,0,2.7-0.3,4.8-3.1c0.1-0.2,0.4-0.2,0.5-0.1
			c0.2,0.1,0.2,0.4,0.1,0.5C48.3,471.2,45.5,471.5,45.3,471.6C45.3,471.6,45.3,471.6,45.3,471.6L45.3,471.6z"/>
		<path class="st5" d="M57.6,448.7c0,0-0.1,0-0.1,0c-0.2-0.1-0.3-0.3-0.2-0.5l4.8-15.3c0-0.1,0.1-0.2,0.2-0.2l3.6-1.9
			c0.2-0.1,0.4,0,0.5,0.2c0.1,0.2,0,0.4-0.2,0.5l-3.5,1.8L58,448.4C57.9,448.6,57.8,448.7,57.6,448.7L57.6,448.7z"/>
		<path class="st6" d="M49.8,417.9c-0.2-1,2.7-2.6,3.5-2.8c1.9-0.6,3.8-0.1,5.5,0.8c6.9,3.6,15.1,1.8,15.1,1.8s1.2-16.6-2.3-25.7
			c-0.5-1.4-2-2.9-3.5-3.2c-3.2-0.7-5.5-1.7-9-2c-2.6-0.2-7.8,0.3-9.4,0.6c-1.6,0.4-3.7,2.1-3.3,3.2l3.8,5.5
			C48.6,407.1,48.7,410.7,49.8,417.9L49.8,417.9z"/>
		<path d="M55,414.5c1.5,0,3,0.5,4,1.1c6,3.2,13.2,2.1,14.6,1.8c0.1-2.2,0.8-17-2.3-25.3c-0.5-1.4-1.9-2.7-3.2-3
			c-1.1-0.2-2.1-0.5-3.1-0.8c-1.9-0.5-3.6-1-5.9-1.2c-2.5-0.2-7.6,0.3-9.3,0.6c-1.1,0.2-2.5,1.2-2.9,2.1c-0.1,0.2-0.2,0.4-0.1,0.6
			l3.8,5.5c0.1,0.1,0.1,0.2,0.1,0.3c-1.6,10.4-1.6,14.2-0.7,20.6c0.9-1,2.8-1.9,3.2-2C53.8,414.6,54.4,414.5,55,414.5L55,414.5z
			 M68.9,418.5c-3,0-6.8-0.5-10.3-2.3c-1.3-0.7-3.3-1.4-5.2-0.8c-1,0.3-3.3,1.8-3.2,2.4c0,0,0,0,0,0c0,0.2-0.1,0.4-0.3,0.4
			c-0.2,0-0.4-0.1-0.4-0.3c-1.2-7.1-1.2-10.9,0.5-21.8l-3.7-5.4c0,0,0,0,0-0.1c-0.1-0.3-0.2-0.7,0.1-1.2c0.6-1.1,2.1-2.1,3.4-2.4
			c1.7-0.4,6.8-0.8,9.5-0.6c2.3,0.2,4.1,0.7,6,1.2c1,0.3,1.9,0.5,3,0.8c1.7,0.4,3.2,2,3.7,3.5c3.4,9.1,2.3,25.7,2.3,25.9
			c0,0.2-0.1,0.3-0.3,0.3C73.9,418.1,71.8,418.5,68.9,418.5L68.9,418.5z"/>
		<path d="M60.1,382.8c-0.8,0.7-1.7,0.9-2.2,1c-1,0.1-5.1,0.4-7.9-2.8c-2.7-3.1-3-8-1.5-9.1c1.1-0.7,2.9,0.8,4.6-0.4
			c0.7-0.5,0.6-0.9,1.4-1.4c1.3-0.9,3.1-0.5,4.4-0.3c2.4,0.5,2.3,1.2,4.4,1.7c3,0.8,4.7-0.2,5.3,0.8c0.5,0.8-0.1,2.2-0.9,3
			c-1.7,1.7-3.8,0.3-5.1,1.8c-0.8,1-0.7,2.3-1.9,4.7C60.7,382.1,60.5,382.4,60.1,382.8L60.1,382.8z"/>
		<path class="st2" d="M62.5,385.1c-0.1-0.3-0.2-0.7-0.3-1c0.7,0.3,1.4,0.3,1.8,0.1c0.5-0.3,0.6-0.8,0.8-1.5
			c0.1-0.3,0.2-0.6,0.5-0.9c0.2-0.2,0.3-0.3,0.5-0.3c0.2-0.1,0.3-0.3,0.3-0.5l-0.1-0.1c-0.4-1-0.7-2.1-0.7-3.2l0-2.2
			c-1.2-0.5-1.6-0.4-1.8-0.2c-0.1,0.1-0.1,0.1-0.1,0.4c0,1.6-1.4,1.4-2.6,1.1c-1.2-0.3-0.8,1.9-0.8,1.9s-0.7-1-1.6-0.1
			c-0.6,0.6,0.6,1.6,1.3,2.1l-0.5,4.6c-0.1,1.2-1.3,1.2-2.4,1.6l-3.1,0.8c0,0,8.1,3.6,13.1,1.1l-2.7-0.9
			C63.2,387.5,62.7,385.9,62.5,385.1L62.5,385.1z"/>
		<path d="M54.9,387.9c2.2,0.8,7.2,2.3,10.9,1l-1.8-0.6c0,0,0,0-0.1,0c-1-0.5-1.5-2-1.8-3.1c-0.1-0.4-0.2-0.7-0.3-1
			c0-0.1,0-0.3,0.1-0.4c0.1-0.1,0.3-0.1,0.4-0.1c0.6,0.2,1.2,0.3,1.5,0.1c0.3-0.2,0.4-0.5,0.6-1c0-0.1,0.1-0.2,0.1-0.3l0-0.1
			c0.1-0.3,0.2-0.6,0.5-1c0.2-0.2,0.4-0.3,0.6-0.4c0,0,0,0,0-0.1l0-0.1c-0.4-1.1-0.7-2.2-0.7-3.3l0-1.9c-0.9-0.3-1.1-0.2-1.1-0.2
			c0,0,0,0,0,0c0,0,0,0,0,0.2c0,0.6-0.2,1.1-0.5,1.4c-0.6,0.5-1.7,0.3-2.5,0.1c-0.2,0-0.2,0-0.2,0c-0.2,0.2-0.2,1-0.1,1.5
			c0,0.2-0.1,0.3-0.2,0.4c-0.2,0.1-0.3,0-0.4-0.1c-0.1-0.1-0.3-0.3-0.6-0.3c-0.2,0-0.3,0.1-0.5,0.2c-0.1,0.1-0.1,0.1-0.1,0.1
			c0,0.2,0.4,0.7,1.3,1.4c0.1,0.1,0.2,0.2,0.2,0.3l-0.5,4.6c-0.1,1.2-1,1.5-1.9,1.7c-0.2,0.1-0.5,0.1-0.7,0.2c0,0,0,0,0,0
			L54.9,387.9L54.9,387.9z M62.4,390.2c-4.3,0-8.6-1.9-8.9-2c-0.1-0.1-0.2-0.2-0.2-0.4c0-0.2,0.1-0.3,0.3-0.3l3.1-0.8
			c0.3-0.1,0.5-0.2,0.8-0.2c0.9-0.3,1.3-0.4,1.4-1.1l0.5-4.4c-0.9-0.7-1.4-1.3-1.4-1.8c0-0.3,0.1-0.5,0.3-0.7c0.4-0.4,0.8-0.5,1-0.4
			c0.1,0,0.2,0,0.4,0.1c0-0.5,0.1-1,0.4-1.3c0.2-0.2,0.5-0.3,0.9-0.2c0.6,0.2,1.5,0.3,1.9,0c0.2-0.1,0.3-0.4,0.3-0.8
			c0-0.4,0.1-0.5,0.2-0.7c0.4-0.4,1-0.4,2.2,0.1c0.1,0.1,0.2,0.2,0.2,0.3l0,2.2c0,1,0.2,2.1,0.6,3l0.1,0.1c0,0,0,0,0,0.1
			c0.1,0.4-0.1,0.8-0.5,1c-0.1,0.1-0.3,0.1-0.4,0.2c-0.2,0.2-0.3,0.4-0.3,0.7l0,0.1c0,0.1-0.1,0.2-0.1,0.3c-0.2,0.6-0.3,1.1-0.9,1.5
			c-0.4,0.2-0.9,0.2-1.5,0.1c0,0.1,0.1,0.2,0.1,0.4c0,0,0,0,0,0c0.2,0.5,0.6,2.1,1.4,2.6l2.6,0.9c0.1,0,0.2,0.2,0.2,0.3
			c0,0.1-0.1,0.3-0.2,0.4C65.6,389.9,64,390.2,62.4,390.2L62.4,390.2z"/>
		<path d="M62.4,384.5c0,0-0.1,0-0.1,0c-1.5-0.5-2.1-2.5-2.1-2.6c-0.1-0.2,0.1-0.4,0.2-0.5c0.2-0.1,0.4,0.1,0.5,0.2
			c0,0,0.5,1.7,1.6,2.1c0.2,0.1,0.3,0.3,0.2,0.5C62.7,384.4,62.5,384.5,62.4,384.5L62.4,384.5z"/>
		<path class="st3" d="M61.9,414.9l21.3,0c0.5,0,1-0.4,1.1-0.9l4.3-17.3c0.2-0.7-0.4-1.5-1.1-1.5l-21.3,0c-0.5,0-1,0.4-1.1,0.9
			l-4.3,17.3C60.6,414.2,61.2,414.9,61.9,414.9L61.9,414.9z"/>
		<path d="M87.5,395.6C87.5,395.6,87.5,395.6,87.5,395.6l-21.3,0c-0.4,0-0.7,0.3-0.8,0.6l-4.3,17.3c-0.1,0.2,0,0.5,0.1,0.7
			c0.2,0.2,0.4,0.3,0.6,0.3c0,0,0,0,0,0l21.3,0c0.4,0,0.7-0.3,0.8-0.6l4.3-17.3c0.1-0.2,0-0.5-0.1-0.7
			C88,395.7,87.7,395.6,87.5,395.6L87.5,395.6z M61.9,415.3c-0.5,0-0.9-0.2-1.2-0.6c-0.3-0.4-0.4-0.9-0.3-1.3l4.3-17.3
			c0.2-0.7,0.8-1.2,1.5-1.2l21.3,0c0,0,0,0,0,0c0.5,0,0.9,0.2,1.2,0.6c0.3,0.4,0.4,0.9,0.3,1.3l-4.3,17.3c-0.2,0.7-0.8,1.2-1.5,1.2
			L61.9,415.3C61.9,415.3,61.9,415.3,61.9,415.3L61.9,415.3z"/>
		<path class="st2" d="M87,403.8l-0.6,1.7l-5.1-2.4c0,0-2.8,2.4,4,5.6C88.2,410,87,403.8,87,403.8L87,403.8z"/>
		<path d="M81.4,403.6c-0.2,0.2-0.4,0.6-0.3,1.1c0.1,0.8,1,2.1,4.4,3.7c0.6,0.3,0.8,0.1,0.9,0c0.5-0.4,0.6-1.7,0.5-3l-0.1,0.3
			c0,0.1-0.1,0.2-0.2,0.2c-0.1,0-0.2,0-0.3,0L81.4,403.6L81.4,403.6z M86,409.2c-0.2,0-0.5-0.1-0.9-0.2c-3-1.3-4.6-2.8-4.8-4.2
			c-0.2-1.2,0.6-1.9,0.7-1.9c0.1-0.1,0.3-0.1,0.4-0.1l4.8,2.3l0.5-1.4c0.1-0.2,0.2-0.3,0.4-0.2c0.2,0,0.3,0.1,0.3,0.3
			c0.1,0.4,0.7,4.2-0.6,5.2C86.6,409.1,86.4,409.2,86,409.2L86,409.2z"/>
		<path class="st2" d="M50.2,425.5c1,0.2,1.6,0.2,2.1-1.2c0.3-0.7-0.8-2.7-1-3.4c-1.6-4.4-2.1-8.7-1.4-13.3
			c0.8-4.8,2.4-9.9,1.1-14.7c-0.4-1.6-2-5.7-4.3-3.3c-0.5,0.5-0.8,1.1-0.9,1.8c-1.3,5.5-2.3,11.2-2.3,16.9c0,5.1,1.9,10,4.4,14.5
			C48.4,423.9,49.2,425.3,50.2,425.5L50.2,425.5z"/>
		<path d="M48,389.3c-0.4,0-0.7,0.2-1.1,0.6c-0.4,0.4-0.7,1-0.8,1.6c-1.2,5.3-2.3,11-2.3,16.8c0,4.4,1.4,9.1,4.3,14.3
			c0.5,1,1.3,2.3,2.1,2.5c0.9,0.2,1.2,0.3,1.7-0.9c0.1-0.4-0.5-1.8-0.7-2.4c-0.1-0.3-0.2-0.5-0.3-0.7c-1.7-4.7-2.1-9-1.4-13.5
			c0.2-1.1,0.4-2.2,0.6-3.3c0.7-3.7,1.5-7.6,0.5-11.3c-0.5-1.7-1.4-3.5-2.3-3.8C48.2,389.3,48.1,389.3,48,389.3L48,389.3z M51,426
			c-0.3,0-0.6-0.1-0.9-0.1c-1.2-0.3-2-1.7-2.6-2.9c-2.9-5.3-4.4-10.1-4.4-14.6c0-5.9,1.1-11.6,2.3-17c0.2-0.8,0.5-1.4,1-2
			c0.7-0.7,1.4-1,2-0.8c1.7,0.4,2.6,3.4,2.9,4.3c1.1,3.8,0.3,7.8-0.5,11.6c-0.2,1.1-0.4,2.2-0.6,3.3c-0.7,4.3-0.2,8.5,1.4,13.1
			c0.1,0.2,0.2,0.4,0.3,0.7c0.5,1.3,1,2.3,0.8,3C52.2,425.7,51.7,426,51,426L51,426z"/>
		<path class="st5" d="M48.2,426.1c-0.2,0-0.4-0.2-0.4-0.4c0-0.2,0.2-0.4,0.4-0.4c7.3,0,10.1-7.7,10.1-7.8c0.1-0.2,0.3-0.3,0.5-0.2
			c0.2,0.1,0.3,0.3,0.2,0.5C59,417.9,56,426.1,48.2,426.1C48.2,426.1,48.2,426.1,48.2,426.1L48.2,426.1z"/>
		<polygon class="st2" points="-0.3,482.6 -1.4,490.7 -4.4,490.7 -4.5,482.7 		"/>
		<path d="M-4.2,483.1l0.1,7.3l2.3,0l1-7.4L-4.2,483.1z M-4.4,491.1c-0.2,0-0.4-0.2-0.4-0.4l-0.1-8c0-0.2,0.2-0.4,0.4-0.4l4.3-0.1
			c0.1,0,0.2,0,0.3,0.1c0.1,0.1,0.1,0.2,0.1,0.3l-1.2,8.1c0,0.2-0.2,0.3-0.4,0.3L-4.4,491.1C-4.4,491.1-4.4,491.1-4.4,491.1
			L-4.4,491.1z"/>
		<path class="st2" d="M-1.3,498.4c-1.2,0.1-2.9,0.2-5.2,0c-0.8-0.1-1.4-0.8-1.3-1.7c0.4-2.2,1.4-6.1,2.9-7.9l0.8,1.1l0.5-1.1
			c0.1-0.1,2-0.2,2.1,0l0.1,1.1l1.1-1.2l-0.1,4.1c0,0.5,0,0.9,0.1,1.3l0.3,1.4c0.2,0.9,0,1.8-0.6,2.4
			C-0.8,498.2-1.1,498.4-1.3,498.4L-1.3,498.4z"/>
		<path d="M-3.5,489.2L-3.5,489.2z M-4.9,489.5c-1.4,1.9-2.2,5.4-2.6,7.3c0,0.3,0,0.6,0.2,0.8c0.2,0.2,0.4,0.4,0.7,0.4
			c2.5,0.2,4.1,0.1,5.1,0c0.1,0,0.3-0.1,0.5-0.3c0.5-0.5,0.7-1.3,0.5-2.1l-0.3-1.4c-0.1-0.5-0.1-0.9-0.1-1.4l0-3.1l-0.5,0.5
			c-0.1,0.1-0.2,0.1-0.4,0.1c-0.1,0-0.2-0.2-0.3-0.3l-0.1-0.9c-0.3,0-1.1,0-1.5,0l-0.4,1c-0.1,0.1-0.2,0.2-0.3,0.2
			c-0.1,0-0.3,0-0.3-0.2L-4.9,489.5L-4.9,489.5z M-1.3,498.4L-1.3,498.4L-1.3,498.4z M-3.6,498.9c-0.8,0-1.8,0-3-0.1
			c-0.5,0-0.9-0.3-1.2-0.7c-0.3-0.4-0.4-0.9-0.4-1.4c0.1-0.6,1-5.7,3-8.1c0.1-0.1,0.2-0.1,0.3-0.1c0.1,0,0.2,0.1,0.3,0.2l0.4,0.6
			l0.2-0.5c0,0,0,0,0-0.1c0.3-0.4,2.2-0.3,2.2-0.2c0.1,0,0.5,0.1,0.5,0.4c0,0,0,0,0,0l0,0.3l0.6-0.6c0.1-0.1,0.3-0.2,0.4-0.1
			c0.1,0.1,0.2,0.2,0.2,0.3L0,492.8c0,0.4,0,0.9,0.1,1.3l0.3,1.4c0.2,1-0.1,2-0.7,2.7c-0.3,0.3-0.6,0.5-1,0.6l0,0
			C-1.9,498.9-2.6,498.9-3.6,498.9L-3.6,498.9z"/>
		<path d="M-3.5,497.5c-0.8,0-1.8-0.1-3-0.3c-0.2,0-0.3-0.2-0.3-0.4c0-0.2,0.2-0.3,0.4-0.3c2.8,0.5,4.8,0.1,4.9,0.1
			c0.2,0,0.4,0.1,0.4,0.3c0,0.2-0.1,0.4-0.3,0.4C-1.4,497.3-2.2,497.5-3.5,497.5L-3.5,497.5z"/>
		<path d="M-2.5,494.4h-2.7c-0.2,0-0.4-0.2-0.4-0.4c0-0.2,0.2-0.4,0.4-0.4h2.7c0.2,0,0.4,0.2,0.4,0.4
			C-2.1,494.2-2.3,494.4-2.5,494.4z"/>
		<polygon class="st2" points="20.9,483.3 22,492.8 26,493.6 25.7,482.5 		"/>
		<path d="M22.3,492.4l3.3,0.7l-0.2-10.2l-4,0.7L22.3,492.4L22.3,492.4z M26,494C25.9,494,25.9,493.9,26,494l-4.1-0.8
			c-0.2,0-0.3-0.2-0.3-0.3l-1-9.5c0-0.2,0.1-0.4,0.3-0.4l4.8-0.8c0.1,0,0.2,0,0.3,0.1c0.1,0.1,0.1,0.2,0.1,0.3l0.2,11.1
			c0,0.1,0,0.2-0.1,0.3C26.1,493.9,26,494,26,494L26,494z"/>
		<path class="st2" d="M20.3,497.3c-0.1-1.7-0.1-4.7,0.9-6.2l3.2,1.1v-0.7c0-0.2,0.2-0.4,0.4-0.4l1.8-0.1c0.7,0,1.3,0.1,1.9,0.4
			c1.8,0.9,7.2,3.1,8,5.7c0.2,0.7-0.4,1.5-1.1,1.5c-1.8,0.1-6.1,0.1-13.8-0.2C20.8,498.4,20.3,497.9,20.3,497.3L20.3,497.3z"/>
		<path d="M21.4,491.5c-0.6,1.1-0.8,3.1-0.7,5.7c0,0.5,0.4,0.8,0.8,0.8c7.6,0.3,11.9,0.2,13.8,0.2c0.3,0,0.5-0.1,0.7-0.4
			c0.1-0.2,0.2-0.5,0.1-0.7c-0.6-2.1-4.9-4.1-7-5.1c-0.3-0.1-0.6-0.3-0.8-0.4c-0.5-0.3-1.2-0.4-1.7-0.4l-1.8,0.1c0,0,0,0,0,0v0.7
			c0,0.1-0.1,0.2-0.2,0.3c-0.1,0.1-0.2,0.1-0.3,0L21.4,491.5z M31.7,499c-2.4,0-5.7,0-10.2-0.2c-0.8,0-1.5-0.7-1.5-1.5
			c-0.1-1.7-0.1-4.9,1-6.4c0.1-0.1,0.3-0.2,0.4-0.1l2.7,1v-0.2c0-0.4,0.3-0.8,0.7-0.8l1.8-0.1c0.7,0,1.4,0.1,2.1,0.4
			c0.2,0.1,0.5,0.2,0.8,0.4c2.3,1.1,6.7,3.1,7.4,5.5c0.1,0.5,0.1,0.9-0.2,1.3c-0.3,0.4-0.8,0.6-1.3,0.7C34.5,499,33.3,499,31.7,499
			L31.7,499z"/>
		<path d="M30.5,497.4c-2.3,0-5.3-0.1-8.7-0.5c-0.2,0-0.3-0.2-0.3-0.4c0-0.2,0.2-0.3,0.4-0.3c6.8,0.8,12.4,0.4,12.4,0.4
			c0.2,0,0.4,0.1,0.4,0.3c0,0.2-0.1,0.4-0.3,0.4C34.4,497.3,32.9,497.4,30.5,497.4L30.5,497.4z"/>
		<path d="M29.5,494.7c-0.1,0-0.2,0-0.2-0.1l-3.1-2.2c-0.2-0.1-0.2-0.3-0.1-0.5c0.1-0.2,0.3-0.2,0.5-0.1l3.1,2.2
			c0.2,0.1,0.2,0.3,0.1,0.5C29.7,494.7,29.6,494.7,29.5,494.7L29.5,494.7z"/>
		<path d="M22.2,417.2c0,0,5.7,43.8,4.5,69.9l-1.8,0.2c-1,0.1-1.9,0.1-2.9,0.1l-1.7-0.1c0,0-6.8-44.4-10.2-51c0,0-9.2,40-9.6,49.5
			c0,0-4.1,0.4-5.7-0.2c-0.9-9.2-1.1-23.5-1.2-29.5c-0.1-17.1,1.5-24.9,2.4-28.6c0.8-3.4,1.7-6.2,2.4-8l2.2-6.2L22.2,417.2
			L22.2,417.2z"/>
		<path class="st1" d="M10.2,437.4C10.2,437.4,10.2,437.4,10.2,437.4c-0.3,0-0.4-0.2-0.4-0.4l0.5-2.9c0,0,0,0,0,0
			c0.3-1.1,1.1-1.9,2.2-2.1l0.9-0.2c0.2,0,0.4,0.1,0.4,0.3c0,0.2-0.1,0.4-0.3,0.4l-0.9,0.2c-0.8,0.2-1.4,0.8-1.7,1.6l-0.5,2.9
			C10.5,437.2,10.4,437.4,10.2,437.4L10.2,437.4z"/>
		<path class="st1" d="M-1.5,432.3c-0.2,0-0.3-0.1-0.4-0.3c0-0.2,0.1-0.4,0.3-0.4c4.9-0.8,5.8-4.5,5.9-4.6c0-0.2,0.2-0.3,0.4-0.3
			c0.2,0,0.3,0.2,0.3,0.4C5,427.3,3.9,431.4-1.5,432.3C-1.4,432.3-1.5,432.3-1.5,432.3L-1.5,432.3z"/>
		<path class="st1" d="M22.4,428.9c0,0-0.1,0-0.1,0c-3.2-1.4-3.1-4.3-3.1-4.4c0-0.2,0.2-0.4,0.4-0.4c0.2,0,0.4,0.2,0.4,0.4
			c0,0.1,0,2.5,2.6,3.7c0.2,0.1,0.3,0.3,0.2,0.5C22.7,428.8,22.6,428.9,22.4,428.9L22.4,428.9z"/>
		<path d="M-4.6,420.9c-0.5,1.8-1.3,4.2-0.4,5.4c1.6,2.1,3,1.8,5,1.1c4-1.5,10.5-3.8,12.4-2.5l0.1-4L-4.6,420.9L-4.6,420.9z"/>
		<path class="st6" d="M18.6,382.9c3.4,0,6.4,1.9,7.9,4.9c1.7,3.5,4.1,12.6,4.2,16.5c0.2,6.9-5.9,7.3-6.1,7.3c0,0,0,0,0,0
			c0,0.2,0.7,7.7,0.8,9.1c0.1,2.4-4.4,6.3-9.6,4.4c-5.2-1.9-19.3-5.6-20.8-2.4c0,0,0,0,0,0l5.9-22c0,0,0,0,0,0l-4.9,0.2c0,0,0,0,0,0
			l-4-2.3c0,0,0,0,0,0l1-4.5c1.9-7.6,7-11.1,13.6-11.1L18.6,382.9L18.6,382.9z"/>
		<path class="st2" d="M2.9,399.9c-0.9-0.2-0.7-1.2-3.9-1.4c-9.2-0.6-4.8-5.2,0.5-4.4c1.8,0.3,2.4,1.4,3.1,1.7
			C8.2,398.3,4.7,400.3,2.9,399.9z"/>
		<path d="M-1.7,394.4c-1.8,0-3.4,0.6-4,1.4c-0.2,0.3-0.3,0.6-0.2,0.8c0.1,0.3,0.9,1.3,4.9,1.5c2.3,0.1,2.9,0.7,3.4,1.1
			c0.2,0.2,0.3,0.3,0.5,0.3c0.8,0.2,2.1-0.3,2.3-0.9c0.2-0.7-0.8-1.6-2.8-2.4c-0.3-0.1-0.5-0.3-0.8-0.5c-0.5-0.4-1.2-1-2.2-1.2
			C-0.9,394.5-1.3,394.4-1.7,394.4L-1.7,394.4z M3.4,400.3c-0.2,0-0.3,0-0.5,0c-0.4-0.1-0.6-0.3-0.9-0.5c-0.4-0.3-0.9-0.8-3-0.9
			c-3.1-0.2-5.1-0.9-5.6-2c-0.2-0.5-0.1-1.1,0.2-1.6c0.8-1.1,3.2-2,5.9-1.6c1.3,0.2,2,0.9,2.6,1.3c0.2,0.2,0.4,0.4,0.6,0.4
			c3,1.3,3.4,2.5,3.2,3.3C5.7,399.8,4.4,400.3,3.4,400.3z"/>
		<path class="st2" d="M14.6,384.2c0.3-0.3,0.1-0.8-0.3-0.8l-0.6-0.1c-0.7-0.1-1.2-0.5-1.5-1.1l-1-7.6l-2.1,0.8l-2.8-1.4l0.3,8.1
			c0,0.7-0.5,1.3-1.2,1.6L4.5,384c-0.4,0.2-0.5,0.7,0,0.9C6.2,385.6,12.9,385.6,14.6,384.2L14.6,384.2z"/>
		<path d="M14.6,384.2L14.6,384.2L14.6,384.2z M6.7,374.5l0.2,7.5c0,0.9-0.6,1.6-1.4,1.9l-0.8,0.3c-0.1,0-0.1,0.1-0.1,0.1
			c0,0,0,0.1,0.1,0.1c1.7,0.7,8.2,0.6,9.7-0.6c0,0,0,0,0-0.1c0,0,0-0.1-0.1-0.1l-0.6-0.1c-0.8-0.1-1.5-0.6-1.8-1.4c0,0,0,0,0-0.1
			l-1-7.2l-1.7,0.6c-0.1,0-0.2,0-0.3,0L6.7,374.5L6.7,374.5z M8.6,385.7c-1.8,0-3.5-0.2-4.2-0.5c-0.3-0.1-0.5-0.5-0.5-0.8
			c0-0.4,0.2-0.7,0.6-0.8l0.8-0.3c0.5-0.2,0.9-0.7,0.9-1.2L5.9,374c0-0.1,0.1-0.3,0.2-0.3c0.1-0.1,0.2-0.1,0.4,0l2.7,1.3l2-0.7
			c0.1,0,0.2,0,0.3,0c0.1,0.1,0.2,0.2,0.2,0.3l1,7.6c0.2,0.5,0.6,0.8,1.1,0.9l0.6,0.1c0.3,0,0.6,0.3,0.7,0.6c0.1,0.3,0,0.7-0.3,0.9
			C13.8,385.4,11.1,385.7,8.6,385.7L8.6,385.7z"/>
		<path class="st2" d="M12.1,368.5c3.6,1.3,3,3.7,3,3.7c0,0.6-0.1,1.8,0,2.2c0.1,0.4,0.7,1,0.7,1.2c0,0.2-0.3,0.6-0.9,0.7
			c0,0-0.2,3.1-1.1,3.6c-0.8,0.5-4-0.5-4-0.5l-0.5-0.2c-1.7-0.7-2.7-2.1-3.2-3.9C6.2,375.4,3.9,365.5,12.1,368.5z"/>
		<path d="M15.5,375.7L15.5,375.7z M10.1,379.2c1.4,0.4,3.2,0.8,3.6,0.5c0.4-0.3,0.8-1.9,0.9-3.3c0-0.2,0.1-0.3,0.3-0.3
			c0.4-0.1,0.5-0.3,0.6-0.3c0-0.1-0.1-0.2-0.2-0.3c-0.2-0.3-0.4-0.6-0.5-0.8c-0.2-0.6-0.1-2.4-0.1-2.4c0,0,0,0,0-0.1
			c0-0.1,0.5-2-2.8-3.2c-2.1-0.8-3.6-0.7-4.6,0.1c-2,1.7-0.9,6.4-0.9,6.4c0.5,1.8,1.5,3,3,3.6L10.1,379.2L10.1,379.2z M13.1,380.5
			c-1.2,0-2.9-0.5-3.3-0.6c0,0,0,0,0,0l-0.5-0.2c-1.7-0.7-2.9-2.1-3.5-4.1c-0.1-0.2-1.2-5.1,1.1-7.1c1.2-1,3-1.1,5.3-0.2
			c3.6,1.3,3.3,3.7,3.2,4.1c-0.1,0.8-0.1,1.8,0,2.1c0,0.1,0.2,0.4,0.4,0.6c0.2,0.3,0.3,0.5,0.4,0.7c0.1,0.4-0.3,0.8-0.9,1.1
			c-0.1,0.9-0.4,3.1-1.2,3.7C13.9,380.5,13.5,380.5,13.1,380.5L13.1,380.5z"/>
		<path d="M10.9,366.8c0.9,0.2,1.9,0.8,2.4,0.9c0.8,0.1,1.4-0.9,2.4-0.6c0.9,0.3,1.4,1.1,1.5,1.9c0,0.1,0,0.3,0,0.4
			c-0.2,2.1-1.5,2.6-2.1,2.7c0,0-3.1-0.3-3.7-0.1c-0.6,0.1-1.5,1-1.7,2.3c0,0.2-0.2,0.3-0.3,0.3c-0.2,0-0.4-0.1-0.4-0.3
			c-0.1-0.6-0.4-1.8-1-1.9c-0.7,0-1.6,1.4-0.7,2.3c0.3,0.3,0.2,0.8-0.2,0.9c-0.3,0.1-0.7,0.1-1.1-0.2c0,0-1.9-3.3-1-6
			C5.8,366.7,9.7,366.5,10.9,366.8z"/>
		<path d="M16,375.8c-0.1,0-0.2,0-0.3-0.1c-0.1-0.1-0.1-0.4,0-0.5c0.1-0.1,0.3-0.5,0.3-1c0-0.7-0.2-1.1-0.3-1.1
			c-0.1,0-0.3,0.2-0.3,0.7c0,0.2-0.2,0.3-0.4,0.3c-0.2,0-0.3-0.2-0.3-0.4c0.2-0.8,0.6-1.3,1.1-1.3c0.2,0,0.6,0.1,0.8,0.7
			c0.1,0.3,0.2,0.8,0.2,1.2c0,0.7-0.2,1.2-0.6,1.5C16.2,375.7,16.1,375.8,16,375.8L16,375.8z"/>
		<path d="M13.6,373c-0.3,0-0.6,0.5-0.6,1.1c0,0.3,0,0.6,0.2,0.9c0.1,0.2,0.2,0.3,0.3,0.3c0.3,0,0.6-0.5,0.6-1.1
			c0-0.3,0-0.6-0.2-0.9C13.9,373.1,13.7,373,13.6,373C13.6,373,13.6,373,13.6,373L13.6,373z M13.5,376C13.5,376,13.5,376,13.5,376
			c-0.4,0-0.8-0.3-1-0.7c-0.2-0.4-0.3-0.8-0.3-1.3c0.1-1,0.7-1.8,1.4-1.8c0.4,0,0.7,0.3,0.9,0.7c0.2,0.4,0.3,0.8,0.3,1.3
			C14.8,375.2,14.2,376,13.5,376L13.5,376z"/>
		<path d="M12.7,373.8C12.7,373.8,12.7,373.8,12.7,373.8l-3.5-0.3c-0.2,0-0.4-0.2-0.3-0.4c0-0.2,0.2-0.4,0.4-0.3l3.4,0.3
			c0.2,0,0.4,0.2,0.3,0.4C13.1,373.6,12.9,373.8,12.7,373.8L12.7,373.8z"/>
		<path class="st2" d="M7.3,388.4c0,0,1.3,2.1,2.5,1.7c0.6-0.2,1.3-2.3,1.5-2.3c0.8-0.2,2.4-0.6,3.3-2.3c0.9-1.6,0.7-2.4,0.5-2.8
			c-0.1-0.2-0.1-0.4,0-0.6c0.2-0.2,0.3-0.6,0.2-1c-0.1-0.1-0.1-0.3,0-0.4c0.2-0.5,0.6-1.7-0.2-2c-0.2-0.1-0.5,0-0.6,0.2
			c-0.3,0.4-0.8,1-1.5,1.4c-0.9,0.6-1.5,1-2,1.3c-0.4,0.2-0.6-1.8-1.6-2.5c-0.9-0.7-1.2-0.3-1.2,0c-0.1,0.3,0.4,0.4,0.7,1.9
			c0.4,1.8,0,3.2-0.1,4C8.7,386,7.3,388.4,7.3,388.4L7.3,388.4z"/>
		<path d="M7.7,388.4c0.4,0.6,1.3,1.6,2,1.4c0.2-0.1,0.7-1,0.8-1.4c0.3-0.6,0.4-0.9,0.7-1l0.1,0c0.8-0.2,2.1-0.6,3-2.1
			c0.8-1.5,0.6-2.2,0.5-2.4c-0.2-0.3-0.2-0.7,0-1c0.2-0.2,0.2-0.5,0.1-0.7c-0.1-0.2-0.1-0.5,0-0.7c0.3-0.6,0.3-1.1,0.2-1.3
			c0,0-0.1-0.1-0.2-0.1c-0.1,0-0.1,0-0.2,0.1c-0.3,0.4-0.8,1.1-1.6,1.5c-0.4,0.3-0.7,0.5-1,0.7c-0.4,0.3-0.7,0.5-1,0.6
			c-0.1,0.1-0.3,0.1-0.4,0c-0.3-0.1-0.4-0.5-0.6-1c-0.2-0.5-0.5-1.3-0.9-1.6c-0.4-0.3-0.6-0.3-0.6-0.3c0,0,0,0,0,0.1
			c0,0,0,0.1,0.1,0.1c0.2,0.3,0.5,0.7,0.7,1.7c0.3,1.5,0.1,2.9-0.1,3.7c0,0.2,0,0.3-0.1,0.4C9.1,385.9,8.1,387.8,7.7,388.4z
			 M9.5,390.6c-1.3,0-2.4-1.7-2.6-1.9c-0.1-0.1-0.1-0.3,0-0.4c0.4-0.7,1.5-2.6,1.6-3.2c0-0.1,0-0.3,0.1-0.4c0.1-0.8,0.3-2,0.1-3.5
			c-0.2-0.8-0.4-1.2-0.6-1.4c-0.1-0.2-0.3-0.4-0.2-0.7c0.1-0.3,0.3-0.5,0.5-0.6c0.4-0.1,0.8,0,1.3,0.4c0.6,0.5,0.9,1.3,1.2,1.9
			c0.1,0.2,0.1,0.3,0.2,0.5c0.2-0.1,0.4-0.3,0.7-0.5c0.3-0.2,0.6-0.4,1-0.7c0.6-0.4,1.1-1,1.4-1.3c0.2-0.3,0.6-0.4,1-0.3
			c0.3,0.1,0.5,0.3,0.6,0.5c0.3,0.6,0,1.4-0.2,1.9c0,0,0,0.1,0,0.1c0.2,0.4,0.1,0.9-0.2,1.4c0,0.1,0,0.1,0,0.2
			c0.3,0.5,0.5,1.5-0.5,3.2c-1,1.8-2.6,2.2-3.4,2.5l0,0c-0.1,0.1-0.2,0.4-0.3,0.6c-0.4,0.9-0.8,1.6-1.3,1.8
			C9.8,390.6,9.6,390.6,9.5,390.6L9.5,390.6z"/>
		<path class="st6" d="M11.7,389.4l-4.1-2.6c0,0-5.5,8.9-9.6,11.9c-2,1.5-5.9-0.3-5.9-0.3s-3.8,14.5,3.5,16.6
			C7.6,418.4,11.7,389.4,11.7,389.4L11.7,389.4z"/>
		<path class="st1" d="M23.9,412.2c-4.6,0-11-3.5-15.7-7c-0.2-0.1-0.2-0.4-0.1-0.5c0.1-0.2,0.4-0.2,0.5-0.1c4.6,3.5,11.6,7.3,16,6.8
			c0.2,0,0.4,0.1,0.4,0.3c0,0.2-0.1,0.4-0.3,0.4C24.5,412.2,24.2,412.2,23.9,412.2L23.9,412.2z"/>
		<path class="st1" d="M17.8,401c-2.6,0-7.3-2.2-7.5-2.3c-0.2-0.1-0.3-0.3-0.2-0.5c0.1-0.2,0.3-0.3,0.5-0.2c1.6,0.7,6.1,2.6,7.8,2.2
			c3.4-0.8,2.6-5.1,2.6-5.3c0-0.2,0.1-0.4,0.3-0.4c0.2,0,0.4,0.1,0.4,0.3c0,0.1,0.9,5.1-3.1,6.1C18.3,401,18,401,17.8,401L17.8,401z
			"/>
		<path class="st1" d="M-2.4,399.5c-0.1,0-0.2-0.1-0.3-0.1c-0.1-0.2-0.1-0.4,0.1-0.5c4.3-3.2,9.7-12.2,9.8-12.3
			c0.1-0.2,0.3-0.2,0.5-0.1c0.2,0.1,0.2,0.3,0.1,0.5c-0.2,0.4-5.5,9.2-10,12.5C-2.2,399.4-2.3,399.5-2.4,399.5L-2.4,399.5z"/>
		<path class="st1" d="M-2.7,415.8c-0.2,0-0.3,0-0.5,0c-0.2,0-0.4-0.2-0.3-0.4c0-0.2,0.2-0.3,0.4-0.3c8.9,0.8,13.9-22.8,14.4-25.5
			l-1.6-1c-0.2-0.1-0.2-0.3-0.1-0.5c0.1-0.2,0.3-0.2,0.5-0.1l1.8,1.1c0.1,0.1,0.2,0.2,0.2,0.4C11.8,390.5,7,415.8-2.7,415.8
			L-2.7,415.8z"/>
		<path class="st6" d="M145.5,492.3h-30.1c-1.8,0-3.2-1.7-2.8-3.4l4.6-22.2c0.4-1.9,2-3.2,3.9-3.2H147L145.5,492.3z"/>
		<path d="M121.1,463.8c-1.7,0-3.2,1.2-3.6,2.9l-4.6,22.2c-0.2,0.7,0,1.5,0.5,2.1c0.5,0.6,1.2,0.9,1.9,0.9h29.8l1.4-28.1H121.1
			L121.1,463.8z M145.5,492.7h-30.1c-1,0-1.9-0.4-2.5-1.2c-0.6-0.8-0.9-1.7-0.7-2.7l4.6-22.2c0.4-2,2.2-3.5,4.3-3.5H147
			c0.1,0,0.2,0,0.3,0.1c0.1,0.1,0.1,0.2,0.1,0.3l-1.4,28.9C145.9,492.5,145.7,492.7,145.5,492.7L145.5,492.7z"/>
		<path class="st4" d="M149.4,492.3h-5.8c-1.8,0-3.2-1.7-2.8-3.4l5-24.5c0.1-0.6,0.6-1,1.2-1h1.5c0.6,0,1.1,0.5,1.2,1.1l2.1,25.2
			C151.8,491.1,150.7,492.3,149.4,492.3L149.4,492.3z"/>
		<path d="M146.9,463.8c-0.4,0-0.7,0.3-0.8,0.7l-5,24.5c-0.2,0.7,0,1.5,0.5,2.1c0.5,0.6,1.2,0.9,1.9,0.9h5.8c0.6,0,1.1-0.2,1.4-0.6
			c0.4-0.4,0.6-0.9,0.5-1.5l-2.1-25.2c0-0.4-0.4-0.8-0.8-0.8L146.9,463.8L146.9,463.8z M149.4,492.7h-5.8c-1,0-1.9-0.4-2.5-1.2
			c-0.6-0.8-0.9-1.7-0.7-2.7l5-24.5c0.1-0.7,0.8-1.2,1.5-1.2h1.5c0.8,0,1.5,0.6,1.6,1.4l2.1,25.2c0.1,0.7-0.2,1.5-0.7,2
			C150.9,492.3,150.1,492.7,149.4,492.7L149.4,492.7z"/>
		<path d="M141.4,475.5h-23.6c-0.2,0-0.4-0.2-0.4-0.4c0-0.2,0.2-0.4,0.4-0.4h23.6c0.5,0,1-0.4,1.1-0.9l2.1-8.8
			c0-0.2,0.2-0.3,0.4-0.3c0.2,0,0.3,0.2,0.3,0.4l-2.1,8.8C143,474.9,142.3,475.5,141.4,475.5L141.4,475.5z"/>
		<path class="st2" d="M132.3,475.1l-0.7,2.7c-0.1,0.5-0.5,0.8-1,0.8H126c-0.5,0-0.9-0.5-0.7-1l0.7-2.5L132.3,475.1L132.3,475.1z"/>
		<path d="M126.2,475.5l-0.6,2.2c0,0.1,0,0.2,0.1,0.3c0.1,0.1,0.2,0.2,0.3,0.2h4.7c0.3,0,0.5-0.2,0.6-0.5l0.5-2.2H126.2L126.2,475.5
			z M130.7,478.9H126c-0.4,0-0.7-0.2-0.9-0.4c-0.2-0.3-0.3-0.6-0.2-1l0.7-2.5c0-0.2,0.2-0.3,0.4-0.3h6.4c0.1,0,0.2,0.1,0.3,0.1
			c0.1,0.1,0.1,0.2,0.1,0.3l-0.7,2.7C131.9,478.5,131.3,478.9,130.7,478.9L130.7,478.9z"/>
		<path d="M139.3,490.4h-25.1c-0.2,0-0.4-0.2-0.4-0.4s0.2-0.4,0.4-0.4h25.1c0.2,0,0.4,0.2,0.4,0.4
			C139.6,490.3,139.5,490.4,139.3,490.4z"/>
		<path class="st5" d="M127.1,462.4h-2c-0.5,0-1,0.4-1,1h3.9C128,462.9,127.6,462.4,127.1,462.4L127.1,462.4z"/>
		<path d="M124.7,463h2.9c-0.1-0.1-0.3-0.2-0.5-0.2h-2C124.9,462.8,124.8,462.9,124.7,463L124.7,463z M128,463.8h-3.9
			c-0.2,0-0.4-0.2-0.4-0.4c0-0.7,0.6-1.3,1.3-1.3h2c0.7,0,1.3,0.6,1.3,1.3C128.4,463.6,128.2,463.8,128,463.8L128,463.8z"/>
		<path class="st5" d="M142.7,462.4h-2c-0.5,0-1,0.4-1,1h3.9C143.7,462.9,143.3,462.4,142.7,462.4L142.7,462.4z"/>
		<path d="M140.3,463h2.9c-0.1-0.1-0.3-0.2-0.5-0.2h-2C140.6,462.8,140.4,462.9,140.3,463L140.3,463z M143.7,463.8h-3.9
			c-0.2,0-0.4-0.2-0.4-0.4c0-0.7,0.6-1.3,1.3-1.3h2c0.7,0,1.3,0.6,1.3,1.3C144.1,463.6,143.9,463.8,143.7,463.8L143.7,463.8z"/>
		<path class="st2" d="M142.2,462.4l0.3-1.9c0.2-1.3-0.7-2.4-2-2.4h-11.7c-1.3,0-2.6,1.1-2.8,2.4l-0.3,1.9h0.9l0.2-1.5
			c0.2-1,1.2-1.9,2.2-1.9h11c1,0,1.7,0.8,1.6,1.9l-0.2,1.5H142.2L142.2,462.4z"/>
		<path d="M141.8,462h0.2l0.3-1.6c0.1-0.5,0-1-0.3-1.4c-0.3-0.4-0.8-0.6-1.3-0.6h-11.7c-1.2,0-2.3,0.9-2.4,2.1l-0.2,1.4h0.2l0.2-1.2
			c0.2-1.2,1.3-2.2,2.5-2.2h11c0.6,0,1.1,0.2,1.5,0.7c0.4,0.4,0.5,1,0.4,1.6L141.8,462L141.8,462z M142.2,462.8h-0.9
			c-0.1,0-0.2,0-0.3-0.1c-0.1-0.1-0.1-0.2-0.1-0.3l0.2-1.5c0.1-0.4,0-0.8-0.3-1c-0.2-0.3-0.6-0.4-0.9-0.4h-11
			c-0.9,0-1.7,0.7-1.8,1.6l-0.2,1.5c0,0.2-0.2,0.3-0.4,0.3h-0.9c-0.1,0-0.2,0-0.3-0.1c-0.1-0.1-0.1-0.2-0.1-0.3l0.3-1.9
			c0.3-1.5,1.7-2.7,3.2-2.7h11.7c0.7,0,1.4,0.3,1.9,0.8c0.5,0.5,0.6,1.3,0.5,2l-0.3,1.9C142.6,462.6,142.4,462.8,142.2,462.8
			L142.2,462.8z"/>
		<path class="st4" d="M140,457.3h-10.3c-0.4,0-0.8,0.3-0.9,0.8l-0.2,0.9c-0.1,0.4,0.2,0.8,0.6,0.8h10.3c0.4,0,0.8-0.3,0.9-0.8
			l0.2-0.9C140.7,457.7,140.4,457.3,140,457.3z"/>
		<path d="M129.7,457.7c-0.2,0-0.5,0.2-0.5,0.4L129,459c0,0.1,0,0.2,0.1,0.2c0,0.1,0.1,0.1,0.2,0.1h10.3c0.2,0,0.5-0.2,0.5-0.4
			l0.2-0.9c0-0.1,0-0.2-0.1-0.2c0-0.1-0.1-0.1-0.2-0.1H129.7z M139.6,460.1h-10.3c-0.3,0-0.6-0.1-0.8-0.3c-0.2-0.2-0.3-0.5-0.2-0.8
			l0.2-0.9c0.1-0.6,0.6-1.1,1.2-1.1H140c0.3,0,0.6,0.1,0.8,0.3c0.2,0.2,0.3,0.5,0.2,0.8l-0.2,0.9
			C140.7,459.6,140.2,460.1,139.6,460.1z"/>
		<path class="st2" d="M143.5,490.4c-0.1,0-0.3-0.1-0.3-0.2c-0.1-0.2,0-0.4,0.1-0.5l3.9-2.2v-22.4c0-0.2,0.2-0.4,0.4-0.4
			c0.2,0,0.4,0.2,0.4,0.4v22.6c0,0.1-0.1,0.3-0.2,0.3l-4,2.3C143.6,490.4,143.5,490.4,143.5,490.4L143.5,490.4z"/>
		<polygon class="st2" points="177.9,482.6 177.3,488.2 173.6,488.6 173.6,482 		"/>
		<path d="M173.9,482.4v5.8l3.1-0.4l0.5-4.9L173.9,482.4L173.9,482.4z M173.6,489c-0.1,0-0.2,0-0.2-0.1c-0.1-0.1-0.1-0.2-0.1-0.3
			V482c0-0.1,0-0.2,0.1-0.3c0.1-0.1,0.2-0.1,0.3-0.1l4.3,0.6c0.2,0,0.3,0.2,0.3,0.4l-0.6,5.6c0,0.2-0.2,0.3-0.3,0.3L173.6,489
			C173.6,489,173.6,489,173.6,489L173.6,489z"/>
		<path class="st6" d="M173,498.3c1.6,0.2,4.1,0.4,7.2,0c1-0.1,1.6-1.1,1.4-2.1c-0.7-2.7-1.8-7.8-3.8-10.2l-0.5,1.3l-0.7-1.2
			c-0.1-0.2-0.3-0.3-0.4-0.3l-1.5-0.2c-0.3,0-0.6,0.2-0.7,0.5l-0.2,1.1l-0.5-1.5l-1.7,10.7C171.4,497.3,172.1,498.2,173,498.3
			L173,498.3z"/>
		<path d="M173.4,487.2l-1.5,9.2c-0.1,0.7,0.4,1.4,1.1,1.5c1.6,0.2,4.1,0.4,7.1,0c0.4-0.1,0.7-0.3,0.9-0.6c0.2-0.3,0.3-0.7,0.2-1
			l-0.1-0.6c-0.6-2.5-1.6-6.6-3.2-8.9l-0.3,0.7c0,0.1-0.2,0.2-0.3,0.2c-0.1,0-0.3-0.1-0.3-0.2l-0.7-1.2c0-0.1-0.1-0.1-0.2-0.1
			l-1.5-0.2c-0.1,0-0.2,0.1-0.3,0.2l-0.2,1.1c0,0.2-0.2,0.3-0.3,0.3C173.6,487.6,173.5,487.5,173.4,487.2L173.4,487.2L173.4,487.2z
			 M176.5,498.9c-1.4,0-2.7-0.1-3.6-0.2c-1.1-0.2-1.9-1.2-1.7-2.3l1.7-10.7c0-0.2,0.2-0.3,0.3-0.3c0.2,0,0.3,0.1,0.4,0.2l0.1,0.2
			c0.2-0.4,0.6-0.7,1-0.6l1.5,0.2c0.3,0,0.6,0.2,0.7,0.5l0.3,0.5l0.2-0.5c0-0.1,0.2-0.2,0.3-0.2c0.1,0,0.3,0,0.3,0.1
			c1.9,2.3,3,7,3.7,9.8l0.1,0.6c0.1,0.6,0,1.2-0.3,1.6c-0.3,0.5-0.8,0.8-1.4,0.9C178.9,498.8,177.6,498.9,176.5,498.9L176.5,498.9z"
			/>
		<path d="M177.3,497.1c-2.5,0-4.6-0.6-4.7-0.6c-0.2-0.1-0.3-0.3-0.3-0.5c0.1-0.2,0.3-0.3,0.5-0.3c0,0,3.9,1.1,7.5,0.2
			c0.2,0,0.4,0.1,0.4,0.3c0,0.2-0.1,0.4-0.3,0.4C179.4,497,178.3,497.1,177.3,497.1L177.3,497.1z"/>
		<path d="M178.2,493C178.2,493,178.2,493,178.2,493l-3.5-0.1c-0.2,0-0.4-0.2-0.4-0.4c0-0.2,0.2-0.4,0.4-0.4l3.5,0.1
			c0.2,0,0.4,0.2,0.4,0.4C178.6,492.8,178.4,493,178.2,493z"/>
		<polygon class="st2" points="160.3,479.6 159.7,487.8 155.2,487.8 155,479.6 		"/>
		<path d="M155.6,487.4h3.8l0.5-7.4h-4.5L155.6,487.4z M159.7,488.1h-4.5c-0.2,0-0.4-0.2-0.4-0.4l-0.2-8.1c0-0.1,0-0.2,0.1-0.3
			c0.1-0.1,0.2-0.1,0.3-0.1h5.3c0.1,0,0.2,0,0.3,0.1c0.1,0.1,0.1,0.2,0.1,0.3l-0.6,8.1C160.1,488,159.9,488.1,159.7,488.1
			L159.7,488.1z"/>
		<path class="st6" d="M160.9,492.3c0,0.8-0.5,1.4-1.3,1.6c-2.6,0.6-8.5,2-10.1,2.2c-2.2,0.3-4.8-0.3-6-1.6
			c-1.1-1.3,2.6-4.3,4.3-5.4c2.6-1.6,5.1-4.9,6.2-5c1.1-0.1,3,2.9,3,2.9l3.2-1.4C160.3,485.7,160.9,488.4,160.9,492.3L160.9,492.3z"
			/>
		<path d="M154.1,484.5C154.1,484.5,154.1,484.5,154.1,484.5c-0.4,0.1-1.4,1-2.3,1.9c-1.1,1.1-2.4,2.3-3.7,3.1
			c-1.7,1.1-4.2,3.2-4.4,4.4c0,0.2,0,0.4,0.1,0.4c1,1.1,3.6,1.8,5.7,1.5c1.7-0.2,7.6-1.6,10.1-2.2c0.6-0.1,1-0.7,1-1.3
			c0-2.9-0.4-5.2-0.5-6.1l-2.8,1.2c-0.2,0.1-0.4,0-0.5-0.1C155.9,485.9,154.7,484.5,154.1,484.5L154.1,484.5z M148.4,496.6
			c-2,0-4.1-0.7-5.1-1.8c-0.2-0.3-0.4-0.6-0.3-1c0.2-1.8,3.6-4.2,4.7-4.9c1.3-0.8,2.5-2,3.6-3c1.3-1.3,2.1-2,2.7-2.1
			c1.1-0.1,2.6,1.9,3.2,2.8l2.9-1.2c0.1,0,0.2,0,0.3,0c0.1,0.1,0.2,0.1,0.2,0.3c0,0,0.6,2.8,0.6,6.7c0,0.9-0.6,1.8-1.5,2
			c-2.5,0.6-8.5,2-10.2,2.2C149.2,496.6,148.8,496.6,148.4,496.6L148.4,496.6z"/>
		<path d="M148.4,495.1c-1.7,0-3.2-0.3-4.1-1.2c-0.2-0.1-0.2-0.4,0-0.5c0.1-0.2,0.4-0.2,0.5,0c3.3,3,14.7-1.6,14.8-1.7
			c0.2-0.1,0.4,0,0.5,0.2c0.1,0.2,0,0.4-0.2,0.5C159.5,492.6,153.2,495.1,148.4,495.1z"/>
		<path d="M153.4,490.2c-0.1,0-0.2,0-0.2-0.1l-2.3-2.1c-0.2-0.1-0.2-0.4,0-0.5c0.1-0.2,0.4-0.2,0.5,0l2.3,2.1c0.2,0.1,0.2,0.4,0,0.5
			C153.6,490.2,153.5,490.2,153.4,490.2L153.4,490.2z"/>
		<path d="M179.2,426.7c0,0,1.4,25.4,2.1,34.1c0.7,8.8-1.7,22.8-1.7,22.8l-7-0.4c0,0-0.5-17.1-1-21.9c0,0-3-6.4-3.8-12.2
			c-0.9-5.7-3.9-14.8-3.9-14.8s-2.4,45.3-2.7,48.9c0,0-5.5,0.2-7.4-1c0,0-3.5-16.5-3-25.5c0.5-9,0-31.3,0-31.3L179.2,426.7
			L179.2,426.7z"/>
		<path class="st2" d="M175.1,461.8h-2.1c-0.2,0-0.4-0.2-0.4-0.4c0-0.2,0.2-0.4,0.4-0.4h2.1c0.2,0,0.4,0.2,0.4,0.4
			C175.4,461.7,175.3,461.8,175.1,461.8z"/>
		<path class="st2" d="M157.7,475c-0.2,0-0.4-0.2-0.4-0.4c-0.1-4-4.7-11.6-4.8-11.7c-0.1-0.2-0.1-0.4,0.1-0.5
			c0.2-0.1,0.4-0.1,0.5,0.1c0.2,0.3,4.8,7.9,4.9,12.1C158.1,474.8,157.9,475,157.7,475C157.7,475,157.7,475,157.7,475L157.7,475z"/>
		<path class="st2" d="M148.6,386.1c-0.5,0-3,5.1-10.8,4.9c-7.8-0.2-14.1-9-14.1-9s-2.7-4.5-4.7-6.2c-2-1.6-2.4-1.9-2.4-1.9
			s-0.6,0.9,0,1.9c0.6,1,2.4,2.9,2.4,2.9s-2,1.1-1.1,3.3c1,2.6,3.9,2.4,3.9,2.4s5.8,25.6,29.7,13.5L148.6,386.1L148.6,386.1z"/>
		<path d="M121.8,384c0.2,0,0.3,0.1,0.4,0.3c0,0.1,2.6,11.1,11,15c5,2.3,11,1.8,17.9-1.7l-2.7-10.9c0,0-0.1,0.1-0.1,0.1
			c-1.2,1.4-4.1,4.6-10.5,4.4c-7.9-0.2-14.1-8.7-14.4-9.1c0,0,0,0,0,0c0,0-2.7-4.5-4.7-6.1c-1.1-0.9-1.7-1.3-2-1.6
			c-0.1,0.3-0.1,0.7,0.2,1.1c0.6,1,2.4,2.8,2.4,2.8c0.1,0.1,0.1,0.2,0.1,0.3c0,0.1-0.1,0.2-0.2,0.3c-0.1,0-1.7,1-0.9,2.8
			C119.2,384.2,121.8,384,121.8,384C121.8,384,121.8,384,121.8,384L121.8,384z M139.7,401.5c-2.4,0-4.7-0.5-6.8-1.5
			c-7.9-3.7-10.8-13.5-11.3-15.3c-0.8,0-3-0.3-3.9-2.6c-0.7-1.7,0.1-2.9,0.9-3.5c-0.5-0.6-1.7-1.8-2.2-2.6c-0.8-1.2,0-2.2,0-2.3
			c0.1-0.2,0.3-0.2,0.5-0.1c0,0,0.4,0.2,2.4,1.9c2,1.6,4.6,5.9,4.8,6.3c0.3,0.4,6.4,8.6,13.8,8.8c6,0.2,8.8-2.9,9.9-4.2
			c0.4-0.5,0.6-0.7,0.9-0.7c0.2,0,0.3,0.1,0.3,0.3l2.9,11.7c0,0.2,0,0.3-0.2,0.4C147.4,400.4,143.3,401.5,139.7,401.5L139.7,401.5z"
			/>
		<path class="st6" d="M187.3,397.9c0,0-2.3-15.1-10.6-18.9c-8.3-3.7-19.5-3.2-22.6-1.3c-3.1,1.9-11.1,10.3-11.1,10.3l7.1,9.9
			c0,0-1.6,26.7-0.3,33.8c0,0,7.9,0.9,11.3-0.4c3.4-1.3,14.4-3.2,19.7-0.8l-1-33.9L187.3,397.9L187.3,397.9z"/>
		<path d="M150.1,431.3c1.4,0.1,7.9,0.7,10.8-0.4c3.3-1.3,13.8-3.1,19.4-1l-0.9-33.3c0-0.1,0-0.2,0.1-0.3c0.1-0.1,0.2-0.1,0.3-0.1
			l7.1,1.1c-0.5-2.6-3.2-14.9-10.3-18.1c-8.2-3.7-19.4-3.1-22.2-1.4c-2.7,1.6-9.6,8.6-10.9,10l6.9,9.7c0,0.1,0.1,0.2,0.1,0.2
			C150.5,398.1,148.9,424,150.1,431.3L150.1,431.3z M155.3,432.3c-2.8,0-5.4-0.3-5.6-0.3c-0.2,0-0.3-0.1-0.3-0.3
			c-1.2-6.8,0.2-31.5,0.3-33.8l-7-9.8c-0.1-0.1-0.1-0.3,0-0.5c0.3-0.3,8.1-8.5,11.2-10.3c3.4-2,14.7-2.4,22.9,1.3
			c8.4,3.8,10.7,18.5,10.8,19.1c0,0.1,0,0.2-0.1,0.3c-0.1,0.1-0.2,0.1-0.3,0.1l-7.1-1.1l0.9,33.4c0,0.1-0.1,0.2-0.2,0.3
			c-0.1,0.1-0.2,0.1-0.4,0c-5-2.3-15.9-0.6-19.4,0.8C159.7,432.2,157.5,432.3,155.3,432.3L155.3,432.3z"/>
		<path d="M173.4,423.9C173.4,423.9,173.4,423.9,173.4,423.9c-13-2.3-16.8-11.3-16.8-11.4c-0.1-0.2,0-0.4,0.2-0.5
			c0.2-0.1,0.4,0,0.5,0.2c0,0.1,3.7,8.7,16.2,10.9c0.2,0,0.3,0.2,0.3,0.4C173.8,423.8,173.6,423.9,173.4,423.9L173.4,423.9z"/>
		<polygon points="150.7,408.4 166.8,408.4 161.8,390.4 145.7,390.4 		"/>
		<path class="st2" d="M185.9,397.9l-8.2-3.6c0,0,1.2,13.8-15.4,7.4c0,0,0.6-1.8,0.5-3.9c-0.1-2.1-1.3-0.1-1.5,1.6
			c-0.2,1.7-4,1-6.4,0.3c-2.3-0.7-5.4-0.2,0,2.7c5.4,3,6.6,1.6,6.6,1.6s6.9,9.6,15.4,7.6C187.6,409.3,185.9,397.9,185.9,397.9z"/>
		<path d="M161.6,403.8C161.6,403.8,161.6,403.8,161.6,403.8c0.1,0,0.2,0.1,0.3,0.2c0.1,0.1,6.8,9.4,15,7.4c4.2-1,6.9-3.6,8.1-7.6
			c0.7-2.6,0.6-5,0.5-5.7l-7.4-3.3c0,1.5-0.3,5.3-3.2,7.4c-2.7,2.1-7,2-12.7-0.2c-0.2-0.1-0.3-0.3-0.2-0.5c0,0,0.6-1.7,0.5-3.7
			c0-0.2,0-0.3,0-0.4c-0.3,0.3-0.6,1.2-0.7,2.1c0,0.4-0.2,0.7-0.6,1c-1.4,1-5.2,0-6.3-0.3c-1.3-0.4-2.4-0.3-2.5-0.1
			c0,0,0,0.6,2.8,2.1c4.8,2.7,6.1,1.7,6.1,1.7C161.4,403.9,161.5,403.8,161.6,403.8L161.6,403.8z M174.7,412.4
			c-6.7,0-12-6.3-13.1-7.7c-0.7,0.3-2.5,0.5-6.6-1.8c-2.5-1.4-3.4-2.3-3.1-3.1c0.4-0.9,2.4-0.6,3.4-0.3c2.2,0.6,4.8,1,5.6,0.4
			c0.2-0.1,0.2-0.2,0.3-0.4c0.1-1,0.7-2.8,1.5-2.8c0,0,0,0,0,0c0.6,0,0.7,0.9,0.7,1.2c0.1,1.6-0.3,3-0.4,3.6c5.3,2,9.2,2.1,11.7,0.2
			c3.2-2.4,2.9-7.3,2.9-7.4c0-0.1,0-0.3,0.2-0.3c0.1-0.1,0.2-0.1,0.4,0l8.2,3.6c0.1,0.1,0.2,0.2,0.2,0.3c0,0.1,1.6,11.7-9.1,14.3
			C176.3,412.3,175.5,412.4,174.7,412.4L174.7,412.4z"/>
		<path d="M164.1,372.1c0.7,0.6,2.1,1.4,3.2,0.9c0.8-0.4,1.3-1.5,1.2-2.7c0.4,0,0.9,0,1.2-0.3c0.5-0.5,0.4-1.3,0.4-1.9
			c-0.1-2.6,1.4-3,1.1-4.8c-0.3-1.4-1.4-2.2-1.6-2.4c-1-0.8-1.8-0.5-3.5-1c-3-0.8-3-2-5-2.1c-0.1,0-2.8,0-3.7,1.9
			c-0.7,1.5,0.1,3.3,1,4.2c1.1,1.2,2,0.6,3.1,1.7C163.6,367.4,162,370.2,164.1,372.1L164.1,372.1z"/>
		<path class="st2" d="M158.2,367.4l0.1-0.1c0.6-0.5,1.2-1.1,1.3-1.8c0.7-3.2,3.6-4.4,3.7-1.4c0,0.7,2.8,0.7,2.4,1.5
			c-0.8,2-0.9,1.5,0.3,2.2c0.1,0,0.3,0,0.4,0.1c0.6,0.3,0.8,1.1,0.5,1.8c-0.2,0.4-0.6,0.8-1,0.9v3.2c0,1.2,0.7,2.3,1.8,2.8l1.1,0.4
			c0,0-5.1,3.3-10.2-0.3l0.7-0.3c1.2-0.5,2-1.7,2-3.1l0-0.6c-0.3,0-0.7,0-1-0.1c-1.4-0.4-1.9-2.1-1.7-4.1l-0.6-0.3
			C158.1,368,158,367.6,158.2,367.4L158.2,367.4z"/>
		<path d="M159.6,376.7c3.6,2.2,7.2,1,8.6,0.3l-0.4-0.1c-1.3-0.5-2.1-1.7-2.1-3.1v-3.2c0-0.2,0.1-0.3,0.3-0.4
			c0.3-0.1,0.6-0.3,0.7-0.7c0.3-0.6,0.1-1.2-0.3-1.4c-0.1,0-0.2-0.1-0.3-0.1c-0.1,0-0.1,0-0.2-0.1c-0.2-0.1-0.4-0.2-0.5-0.3
			c-0.8-0.4-0.7-0.8-0.3-1.7c0.1-0.2,0.2-0.4,0.3-0.7c-0.1-0.1-0.6-0.2-0.9-0.3c-0.7-0.2-1.5-0.4-1.5-1c0-0.4-0.1-1.3-0.8-1.3
			c-0.7-0.1-1.9,0.9-2.3,2.8c-0.2,0.9-0.9,1.5-1.5,2l-0.1,0.1c0,0,0,0,0,0.1c0,0,0,0,0,0.1l0.6,0.3c0.1,0.1,0.2,0.2,0.2,0.4
			c-0.1,1-0.2,3.3,1.4,3.7c0.3,0.1,0.5,0.1,0.9,0.1c0.1,0,0.2,0,0.3,0.1c0.1,0.1,0.1,0.2,0.1,0.3l0,0.6
			C161.9,374.7,161,376.1,159.6,376.7L159.6,376.7L159.6,376.7z M164,378.7c-1.6,0-3.5-0.4-5.4-1.8c-0.1-0.1-0.2-0.2-0.2-0.3
			c0-0.1,0.1-0.2,0.2-0.3l0.7-0.3c1.1-0.5,1.8-1.6,1.8-2.7l0-0.2c-0.3,0-0.5,0-0.7-0.1c-1.5-0.4-2.2-2-2-4.3l-0.4-0.2
			c-0.2-0.1-0.4-0.4-0.4-0.6c0-0.3,0.1-0.5,0.3-0.7l0.1-0.1c0.5-0.5,1.1-1,1.2-1.6c0.5-2.2,1.9-3.5,3-3.4c0.3,0,1.3,0.2,1.4,2
			c0.1,0.1,0.7,0.3,1,0.4c0.6,0.2,1.2,0.3,1.4,0.7c0.1,0.2,0.1,0.4,0,0.5c-0.1,0.3-0.2,0.5-0.3,0.7c-0.1,0.3-0.2,0.5-0.2,0.6
			c0,0,0.1,0.1,0.2,0.1c0.1,0.1,0.3,0.1,0.5,0.3c0.2,0,0.3,0.1,0.4,0.1c0.8,0.4,1.1,1.4,0.7,2.3c-0.2,0.4-0.5,0.8-0.9,1v3
			c0,1.1,0.6,2,1.6,2.4l1.1,0.4c0.1,0.1,0.2,0.2,0.2,0.3c0,0.1-0.1,0.3-0.2,0.3C169.2,377.3,167,378.7,164,378.7L164,378.7z"/>
		<path d="M161.6,373c-0.2,0-0.3-0.1-0.4-0.3c0-0.2,0.1-0.4,0.3-0.4c1.8-0.3,2.6-1.7,2.6-1.7c0.1-0.2,0.3-0.2,0.5-0.1
			c0.2,0.1,0.2,0.3,0.1,0.5C164.7,371,163.8,372.7,161.6,373C161.6,373,161.6,373,161.6,373L161.6,373z"/>
		<path class="st3" d="M122.9,425.1c-4.4,1.2-8.9-1.4-10.1-5.8c-1.2-4.4,1.4-8.9,5.8-10.1c4.4-1.2,8.9,1.4,10.1,5.8
			C129.8,419.3,127.2,423.9,122.9,425.1z M137.1,414.3l-0.8-3.1l-3.5,0.2c-0.3-0.7-0.7-1.3-1.1-1.9l1.8-3l-2.3-2.3l-2.9,1.9
			c-0.6-0.4-1.3-0.8-1.9-1.1l0.1-3.5l-3.1-0.8l-1.6,3.1c-0.7-0.1-1.5-0.1-2.2,0l-1.6-3.1l-3.1,0.8l0.2,3.5c-0.7,0.3-1.3,0.7-1.9,1.1
			l-3-1.9l-2.3,2.3l1.9,2.9c-0.4,0.6-0.8,1.3-1.1,1.9l-3.5-0.1l-0.8,3.1l3.1,1.6c-0.1,0.7-0.1,1.5,0,2.2l-3.1,1.6l0.8,3.1l3.5-0.2
			c0.3,0.7,0.7,1.3,1.1,1.9l-1.8,3l2.3,2.3l2.9-1.9c0.6,0.4,1.3,0.8,1.9,1.1l-0.1,3.5l3.1,0.8l1.6-3.1c0.7,0.1,1.5,0.1,2.2,0
			l1.6,3.1l3.1-0.8l-0.2-3.5c0.7-0.3,1.3-0.7,1.9-1.1l3,1.8l2.3-2.3l-1.9-2.9c0.4-0.6,0.8-1.3,1.1-1.9l3.5,0.1l0.8-3.1l-3.1-1.6
			c0.1-0.7,0.1-1.5,0-2.2L137.1,414.3L137.1,414.3z"/>
		<path class="st5" d="M120.7,409.3c-0.7,0-1.4,0.1-2.1,0.3c-4.2,1.1-6.7,5.5-5.5,9.7c0.6,2,1.9,3.7,3.7,4.8c1.8,1,3.9,1.3,6,0.8
			c4.2-1.1,6.7-5.5,5.5-9.7c-0.6-2-1.9-3.7-3.7-4.8C123.4,409.6,122,409.3,120.7,409.3z M120.7,425.7c-1.5,0-2.9-0.4-4.2-1.1
			c-2-1.1-3.4-3-4-5.2c-1.3-4.6,1.5-9.3,6-10.6c2.2-0.6,4.5-0.3,6.5,0.8c2,1.1,3.4,3,4,5.2c1.3,4.6-1.5,9.3-6,10.6
			C122.2,425.6,121.4,425.7,120.7,425.7L120.7,425.7z M115.3,432.5l2.5,0.7l1.6-3.1l0.2,0c0.7,0.1,1.4,0.1,2.2,0l0.2,0l1.6,3
			l2.5-0.7l-0.2-3.4l0.2-0.1c0.7-0.3,1.3-0.7,1.9-1.1l0.2-0.1l2.9,1.8l1.8-1.9l-1.9-2.9l0.1-0.2c0.4-0.6,0.8-1.2,1.1-1.9l0.1-0.2
			l3.4,0.1l0.7-2.5l-3.1-1.6l0-0.2c0.1-0.7,0.1-1.4,0-2.2l0-0.2l3-1.6l-0.7-2.5l-3.4,0.2l-0.1-0.2c-0.3-0.7-0.7-1.3-1.1-1.9
			l-0.1-0.2l1.8-2.9l-1.9-1.8l-2.9,1.9l-0.2-0.1c-0.6-0.4-1.2-0.8-1.9-1.1l-0.2-0.1l0.1-3.4l-2.5-0.7l-1.6,3.1l-0.2,0
			c-0.7-0.1-1.4-0.1-2.2,0l-0.2,0l-1.6-3l-2.5,0.7l0.2,3.4l-0.2,0.1c-0.7,0.3-1.3,0.7-1.9,1.1l-0.2,0.1l-2.9-1.8l-1.8,1.9l1.9,2.9
			l-0.1,0.2c-0.4,0.6-0.8,1.2-1.1,1.9l-0.1,0.2l-3.4-0.1l-0.7,2.5l3.1,1.6l0,0.2c-0.1,0.7-0.1,1.4,0,2.2l0,0.2l-3,1.6l0.7,2.5
			l3.4-0.2l0.1,0.2c0.3,0.7,0.7,1.3,1.1,1.9l0.1,0.2l-1.8,2.9l1.9,1.8l2.9-1.9l0.2,0.1c0.6,0.4,1.2,0.8,1.9,1.1l0.2,0.1L115.3,432.5
			L115.3,432.5z M118.2,434l-3.7-1l0.1-3.5c-0.5-0.3-1.1-0.6-1.6-0.9l-3,1.9l-2.7-2.7l1.9-3c-0.3-0.5-0.6-1-0.9-1.6l-3.5,0.2l-1-3.7
			l3.1-1.7c0-0.6,0-1.2,0-1.8l-3.1-1.6l1-3.7l3.5,0.1c0.3-0.5,0.6-1.1,0.9-1.6l-1.9-3l2.7-2.7l3,1.9c0.5-0.3,1-0.6,1.6-0.9l-0.2-3.5
			l3.7-1l1.7,3.1c0.6,0,1.2,0,1.8,0l1.6-3.1l3.7,1l-0.1,3.5c0.5,0.3,1.1,0.6,1.6,0.9l3-1.9l2.7,2.7l-1.9,3c0.3,0.5,0.6,1,0.9,1.6
			l3.5-0.2l1,3.7l-3.1,1.7c0,0.6,0,1.2,0,1.8l3.1,1.6l-1,3.7l-3.5-0.1c-0.3,0.5-0.6,1.1-0.9,1.6l1.9,3l-2.7,2.7l-3-1.9
			c-0.5,0.3-1,0.6-1.6,0.9l0.2,3.5l-3.7,1l-1.7-3.1c-0.6,0-1.2,0-1.8,0L118.2,434L118.2,434z"/>
		<path class="st3" d="M99.7,455.4c-5.2,1.4-10.6-1.6-12.1-6.9c-1.4-5.2,1.6-10.6,6.9-12.1c5.2-1.4,10.6,1.6,12.1,6.9
			C108,448.5,105,453.9,99.7,455.4L99.7,455.4z M116.7,442.5l-1-3.7l-4.2,0.2c-0.4-0.8-0.8-1.6-1.3-2.3l2.2-3.5l-2.7-2.7l-3.5,2.2
			c-0.7-0.5-1.5-0.9-2.3-1.3l0.1-4.2l-3.7-1l-1.9,3.7c-0.9-0.1-1.8-0.1-2.7,0l-2-3.7l-3.7,1l0.2,4.2c-0.8,0.4-1.6,0.8-2.3,1.3
			l-3.5-2.2l-2.7,2.7l2.2,3.5c-0.5,0.7-0.9,1.5-1.3,2.3l-4.2-0.1l-1,3.7l3.7,1.9c-0.1,0.9-0.1,1.8,0,2.7l-3.7,2l1,3.7l4.2-0.2
			c0.4,0.8,0.8,1.6,1.3,2.3l-2.2,3.5l2.7,2.7l3.5-2.2c0.7,0.5,1.5,0.9,2.3,1.3l-0.1,4.2l3.7,1l1.9-3.7c0.9,0.1,1.8,0.1,2.7,0l2,3.7
			l3.7-1l-0.2-4.2c0.8-0.4,1.6-0.8,2.3-1.3l3.5,2.2l2.7-2.7l-2.2-3.5c0.5-0.7,0.9-1.5,1.3-2.3l4.2,0.1l1-3.7l-3.7-1.9
			c0.1-0.9,0.1-1.8,0-2.7L116.7,442.5z"/>
		<path class="st5" d="M97.8,436.6c-0.7,0-1.4,0.1-2.1,0.2c-5.1,1.2-8.3,6.3-7.1,11.3c0.6,2.5,2.1,4.6,4.2,5.9
			c2.1,1.3,4.7,1.8,7.1,1.2c5.1-1.2,8.3-6.3,7.1-11.3c-0.6-2.5-2.1-4.6-4.2-5.9C101.2,437.1,99.5,436.6,97.8,436.6L97.8,436.6z
			 M100,455.7L100,455.7L100,455.7z M97.7,456.3c-1.9,0-3.7-0.5-5.4-1.6c-2.3-1.4-3.9-3.7-4.5-6.4c-1.3-5.5,2.2-11,7.6-12.2
			c2.7-0.6,5.4-0.2,7.7,1.3c2.3,1.4,3.9,3.7,4.5,6.4c1.3,5.5-2.2,11-7.6,12.2C99.3,456.2,98.5,456.3,97.7,456.3L97.7,456.3z
			 M98.5,461.6c0.1,0,0.3,0.1,0.3,0.2l1.7,3.5l3.1-0.7l0-3.9c0-0.1,0.1-0.3,0.2-0.3c0.8-0.3,1.6-0.8,2.3-1.2c0.1-0.1,0.3-0.1,0.4,0
			l3.2,2.2l2.4-2.2l-2-3.3c-0.1-0.1-0.1-0.3,0-0.4c0.5-0.7,1-1.4,1.4-2.2c0.1-0.1,0.2-0.2,0.4-0.2l3.9,0.3l0.9-3.1l-3.4-1.9
			c-0.1-0.1-0.2-0.2-0.2-0.4c0.1-0.8,0.1-1.7,0.1-2.6c0-0.1,0.1-0.3,0.2-0.3l3.5-1.7l-0.7-3.1l-3.9,0c0,0,0,0,0,0
			c-0.1,0-0.3-0.1-0.3-0.2c-0.3-0.8-0.8-1.6-1.2-2.3c-0.1-0.1-0.1-0.3,0-0.4l2.2-3.2l-2.2-2.4l-3.3,2c-0.1,0.1-0.3,0.1-0.4,0
			c-0.7-0.5-1.4-1-2.2-1.4c-0.1-0.1-0.2-0.2-0.2-0.4l0.3-3.9l-3.1-0.9l-1.9,3.4c-0.1,0.1-0.2,0.2-0.4,0.2c-0.8-0.1-1.7-0.1-2.6-0.1
			c-0.1,0-0.3-0.1-0.3-0.2l-1.7-3.5l-3.1,0.7l0,3.9c0,0.1-0.1,0.3-0.2,0.3c-0.8,0.3-1.6,0.8-2.3,1.2c-0.1,0.1-0.3,0.1-0.4,0
			l-3.2-2.2l-2.4,2.2l2,3.3c0.1,0.1,0.1,0.3,0,0.4c-0.5,0.7-1,1.4-1.4,2.2c-0.1,0.1-0.2,0.2-0.4,0.2l-3.9-0.3l-0.9,3.1l3.4,1.9
			c0.1,0.1,0.2,0.2,0.2,0.4c-0.1,0.8-0.1,1.7-0.1,2.6c0,0.1-0.1,0.3-0.2,0.3l-3.5,1.7l0.7,3.1l3.9,0h0c0.1,0,0.3,0.1,0.3,0.2
			c0.3,0.8,0.8,1.6,1.2,2.3c0.1,0.1,0.1,0.3,0,0.4l-2.2,3.2l2.2,2.4l3.3-2c0.1-0.1,0.3-0.1,0.4,0c0.7,0.5,1.4,1,2.2,1.4
			c0.1,0.1,0.2,0.2,0.2,0.4l-0.3,3.9l3.1,0.9l1.9-3.4c0.1-0.1,0.2-0.2,0.4-0.2C96.7,461.7,97.6,461.7,98.5,461.6
			C98.5,461.6,98.5,461.6,98.5,461.6L98.5,461.6z M100.3,466.1c-0.1,0-0.3-0.1-0.3-0.2l-1.7-3.5c-0.8,0-1.5,0-2.2-0.1l-1.9,3.4
			c-0.1,0.1-0.3,0.2-0.4,0.2l-3.6-1.1c-0.2-0.1-0.3-0.2-0.3-0.4l0.3-3.9c-0.7-0.4-1.3-0.7-1.9-1.2l-3.4,2c-0.1,0.1-0.3,0.1-0.5-0.1
			l-2.6-2.8c-0.1-0.1-0.1-0.3,0-0.5l2.2-3.2c-0.4-0.6-0.7-1.3-1-2l-3.9,0c0,0,0,0,0,0c-0.2,0-0.3-0.1-0.4-0.3l-0.9-3.7
			c0-0.2,0-0.3,0.2-0.4l3.5-1.7c0-0.8,0-1.5,0.1-2.2l-3.4-1.9c-0.1-0.1-0.2-0.3-0.2-0.4l1.1-3.6c0.1-0.2,0.2-0.3,0.4-0.3l3.9,0.3
			c0.4-0.7,0.7-1.3,1.2-1.9l-2-3.4c-0.1-0.1-0.1-0.3,0.1-0.5l2.8-2.6c0.1-0.1,0.3-0.1,0.5,0l3.2,2.2c0.6-0.4,1.3-0.7,2-1l0-3.9
			c0-0.2,0.1-0.3,0.3-0.4l3.7-0.9c0.2,0,0.3,0,0.4,0.2l1.7,3.5c0.8,0,1.5,0,2.2,0.1l1.9-3.4c0.1-0.1,0.3-0.2,0.4-0.2l3.6,1.1
			c0.2,0.1,0.3,0.2,0.3,0.4l-0.3,3.9c0.7,0.4,1.3,0.7,1.9,1.2l3.4-2c0.1-0.1,0.3-0.1,0.5,0.1l2.6,2.8c0.1,0.1,0.1,0.3,0,0.5
			l-2.2,3.2c0.4,0.6,0.7,1.3,1,2l3.9,0h0c0.2,0,0.3,0.1,0.4,0.3l0.9,3.7c0,0.2,0,0.3-0.2,0.4l-3.5,1.7c0,0.8,0,1.5-0.1,2.2l3.4,1.9
			c0.1,0.1,0.2,0.3,0.2,0.4l-1.1,3.6c-0.1,0.2-0.2,0.3-0.4,0.3l-3.9-0.3c-0.4,0.7-0.7,1.3-1.2,1.9l2,3.4c0.1,0.1,0.1,0.3-0.1,0.5
			l-2.8,2.6c-0.1,0.1-0.3,0.1-0.5,0l-3.2-2.2c-0.6,0.4-1.3,0.7-2,1l0,3.9c0,0.2-0.1,0.3-0.3,0.4L100.3,466.1
			C100.4,466.1,100.3,466.1,100.3,466.1L100.3,466.1z"/>
	</g>
</g>
</svg>
