<?xml version="1.0" encoding="utf-8"?>
<!-- Generator: Adobe Illustrator 21.1.0, SVG Export Plug-In . SVG Version: 6.00 Build 0)  -->
<svg version="1.1" id="Calque_1" xmlns="http://www.w3.org/2000/svg" xmlns:xlink="http://www.w3.org/1999/xlink" x="0px" y="0px"
	 viewBox="0 0 512 512" style="enable-background:new 0 0 512 512;" xml:space="preserve">
<style type="text/css">
	.st0{fill:#FFFDFD;}
</style>
<g>
	<path class="st0" d="M380.7,327.3c-9.1-9.1-21.3-14.2-34.3-14.2s-25.2,5-34.3,14.2l-23.2,23.2c-9.1,9.1-14.2,21.3-14.2,34.3
		s5,25.2,14.2,34.3l68.7,68.7c9.1,9.1,21.3,14.2,34.3,14.2s25.2-5,34.3-14.2l23.2-23.2c18.9-18.9,18.9-49.7,0-68.7L380.7,327.3z
		 M428.6,443.7l-23.2,23.2c-7.1,7.1-19.7,7.1-26.8,0l-68.7-68.7c-3.6-3.6-5.5-8.3-5.5-13.4s2-9.9,5.5-13.4l23.2-23.2
		c3.6-3.6,8.3-5.5,13.4-5.5s9.9,2,13.4,5.5l68.7,68.7C436,424.3,436,436.3,428.6,443.7z"/>
	<path class="st0" d="M52.8,172.1l54,25.9l48.2,48.2l20.9-20.9l-39.7-39.7l11-11l39.7,39.7l20.9-20.9l-48.2-48.2l-25.9-54
		c-1.4-2.9-3.7-5.2-6.5-6.7l-84-43.9c-5.7-3-12.7-1.9-17.3,2.7L6.3,62.8c-4.5,4.5-5.6,11.3-2.8,17l42.4,85.4
		C47.4,168.2,49.8,170.6,52.8,172.1z M39.2,71.7l70,36.6l20.2,42.2l-17.2,17.2l-42-20.2L34.7,76.2L39.2,71.7z"/>
	<path class="st0" d="M505,100.3c-1.5-4.9-5.6-8.7-10.6-9.9c-5-1.2-10.3,0.2-14,3.9l-63.1,63.1c-1.9,0.5-5.1,1.2-9.1,1.2
		c-11,0-21.6-4.9-31.3-14.6c-17.8-17.8-15.2-34.5-13.5-40.3l63.2-63.1c3.7-3.7,5.1-9,3.9-14s-5-9-9.9-10.6c-12.5-4-25.5-6-38.6-6
		c-34.4,0-66.7,13.4-91,37.7c-32.3,32.3-44.8,78.5-33.8,122.4l-214.1,214c-25.5,25.5-25.5,67,0,92.5l1.1,1.1
		c12.3,12.3,28.7,19.1,46.3,19.1c17.5,0,34-6.8,46.3-19.1l214.1-214.1c10.2,2.6,20.8,3.9,31.4,3.9c34.4,0,66.7-13.4,91-37.7
		C507.2,195.9,519.4,146.2,505,100.3z M452.3,209c-18.7,18.7-43.6,29-70.1,29c-10.6,0-21.1-1.7-31.1-5c-5.3-1.7-11.1-0.3-15,3.6
		L115.8,456.9c-6.7,6.7-15.7,10.4-25.4,10.4c-9.6,0-18.6-3.7-25.4-10.5l-1.1-1.1c-14-14-14-36.8,0-50.7l220.2-220.2
		c3.9-3.9,5.3-9.8,3.6-15c-11.7-35.8-2.5-74.6,24-101.2c18.7-18.7,43.6-29,70.1-29c1.2,0,2.5,0,3.7,0.1L340.3,85
		c-1.2,1.2-2.2,2.7-3,4.3c-0.7,1.6-17.5,39.3,18.7,75.5c19.2,19.2,39,23.3,52.2,23.3c13,0,21.8-3.8,23.4-4.5s3-1.7,4.2-3l45.4-45.4
		C482.3,162.4,472.1,189.2,452.3,209z"/>
	<path class="st0" d="M81.1,411c-7.9,7.9-7.9,20.8,0,28.8c7.9,7.9,20.8,7.9,28.8,0c7.9-8,7.9-20.8,0-28.8
		C102,403.1,89.1,403,81.1,411z"/>
</g>
</svg>
