<?xml version="1.0" encoding="utf-8"?>
<!-- Generator: Adobe Illustrator 21.1.0, SVG Export Plug-In . SVG Version: 6.00 Build 0)  -->
<svg version="1.1" id="Calque_1" xmlns="http://www.w3.org/2000/svg" xmlns:xlink="http://www.w3.org/1999/xlink" x="0px" y="0px"
	 viewBox="0 0 512 512" style="enable-background:new 0 0 512 512;" xml:space="preserve">
<style type="text/css">
	.st0{fill:#FFFFFF;}
</style>
<g>
	<path class="st0" d="M506.6,432.9L371.4,297.8c16.7-29.1,26.3-62.8,26.3-98.7C397.7,89.3,308.4,0,198.7,0
		C88.9,0-0.4,89.3-0.4,199.1s89.3,199.1,199.1,199.1c35.9,0,69.6-9.6,98.7-26.3L432.5,507c3.2,3.2,7.6,5,12.1,5s8.9-1.8,12.1-5
		l49.9-49.9C513.2,450.4,513.2,439.6,506.6,432.9z M198.7,364c-90.9,0-164.9-74-164.9-164.9s74-164.9,164.9-164.9
		s164.9,74,164.9,164.9C363.6,290,289.6,364,198.7,364z M325.9,352.1c9.4-7.8,18-16.4,25.8-25.8l17.3,17.3l-25.8,25.8L325.9,352.1z
		 M444.6,470.8l-77.3-77.3l25.8-25.8l77.2,77.3L444.6,470.8z"/>
	<path class="st0" d="M69.8,189.8H104c0-47.1,38.3-85.5,85.5-85.5V70.2C123.5,70.2,69.8,123.9,69.8,189.8z"/>
</g>
</svg>
