<?xml version="1.0" encoding="utf-8"?>
<!-- Generator: Adobe Illustrator 21.1.0, SVG Export Plug-In . SVG Version: 6.00 Build 0)  -->
<svg version="1.1" id="Calque_1" xmlns="http://www.w3.org/2000/svg" xmlns:xlink="http://www.w3.org/1999/xlink" x="0px" y="0px"
	 viewBox="0 0 512 512" style="enable-background:new 0 0 512 512;" xml:space="preserve">
<style type="text/css">
	.st0{fill:#FFFFFF;}
</style>
<path class="st0" d="M507.2,192.9c-5.2-7.4-13.8-11.6-23.8-11.6h-60v-53.5c0-19.4-15.8-35.2-35.2-35.2H209.5L202.2,77
	c-7.2-15.4-25.4-27.1-42.4-27.1H37.3c-19.4,0-35.2,15.8-35.2,35.2v341.8c0,19.4,15.8,35.2,35.2,35.2H61h327.3h3.2
	c16.9,0,34.1-12,39.9-27.9L510,219.3C513.4,210,512.4,200.3,507.2,192.9z M31.5,85.1c0-3.1,2.6-5.8,5.8-5.8h122.5
	c5.5,0,13.4,5.1,15.7,10l11.2,24.1c2.4,5.2,7.6,8.5,13.3,8.5h188.2c3.1,0,5.8,2.6,5.8,5.8v53.5H153c-16.9,0-34.1,12-39.9,27.9
	l-78.6,215c-0.8,2.1-1.3,4.2-1.6,6.4c-0.8-1-1.3-2.2-1.3-3.5V85.1H31.5z M403.8,424.1c-1.6,4.3-7.8,8.6-12.3,8.6H62.6l78.1-213.4
	c1.6-4.3,7.8-8.6,12.3-8.6h328.8L403.8,424.1z"/>
</svg>
