<?xml version="1.0" encoding="utf-8"?>
<!-- Generator: Adobe Illustrator 23.0.2, SVG Export Plug-In . SVG Version: 6.00 Build 0)  -->
<svg version="1.1" id="Calque_1" xmlns="http://www.w3.org/2000/svg" xmlns:xlink="http://www.w3.org/1999/xlink" x="0px" y="0px"
	 viewBox="0 0 512 512" style="enable-background:new 0 0 512 512;" xml:space="preserve">
<g>
	<path d="M255.8,277.2c35,0,63.4-28.4,63.4-63.4c0-35-28.4-63.4-63.4-63.4c-35,0-63.4,28.4-63.4,63.4
		C192.4,248.8,220.8,277.2,255.8,277.2z M255.8,174.3c21.8,0,39.5,17.7,39.5,39.5s-17.7,39.5-39.5,39.5c-21.8,0-39.5-17.7-39.5-39.5
		S234,174.3,255.8,174.3z"/>
	<path d="M126.3,162.5c35,0,63.4-28.4,63.4-63.4c0-35-28.4-63.4-63.4-63.4c-35,0-63.4,28.4-63.4,63.4
		C62.9,134,91.3,162.5,126.3,162.5z M126.3,59.6c21.8,0,39.5,17.7,39.5,39.5c0,21.8-17.7,39.5-39.5,39.5
		c-21.8,0-39.5-17.7-39.5-39.5C86.8,77.3,104.5,59.6,126.3,59.6z"/>
	<path d="M108.6,338.4H70.7v-76.4c0-6.6-5.4-12-12-12c-6.6,0-12,5.4-12,12v76.4H23.9v-77c0-33.1,27-60.1,60.1-60.1h27.7h29.3h28.8
		c6.6,0,12-5.4,12-12c0-6.6-5.4-12-12-12h-28.8h-29.3H84c-46.3,0-84,37.7-84,84v79c0,12.1,9.8,21.9,21.9,21.9h86.7
		c6.6,0,12-5.4,12-12C120.6,343.7,115.2,338.4,108.6,338.4z"/>
	<path d="M357.5,315.9c-7-7-14.9-12.6-23.6-16.6c-11.1-5.3-23.3-8-36-8c0,0,0,0,0,0h0h-27.4H241h-27.5c-46.4,0-84.2,37.8-84.2,84.2
		v79c0,12.1,9.8,21.9,21.9,21.9h209.2c12.1,0,21.9-9.8,21.9-21.9v-79c0,0,0,0,0,0c0,0,0,0,0,0C382.2,353,373.5,331.8,357.5,315.9z
		 M213.5,315.2H241h29.5h27.4c0,0,0,0,0,0c0,0,0,0,0,0c0,0,0,0,0,0c9,0,17.8,2,25.7,5.7c6.2,2.9,11.9,6.9,16.8,11.9
		c11.4,11.4,17.6,26.5,17.6,42.6c0,0.7,0.1,1.4,0.2,2v75.1h-23v-76.6c0-6.6-5.4-12-12-12c-6.6,0-12,5.4-12,12v76.6H200.2v-76.6
		c0-6.6-5.4-12-12-12c-6.6,0-12,5.4-12,12v76.6h-23v-77C153.2,342.2,180.3,315.2,213.5,315.2z"/>
	<path d="M385,162.5c35,0,63.4-28.4,63.4-63.4c0-35-28.4-63.4-63.4-63.4c-35,0-63.4,28.4-63.4,63.4C321.6,134,350.1,162.5,385,162.5
		z M385,59.6c21.8,0,39.5,17.7,39.5,39.5c0,21.8-17.7,39.5-39.5,39.5c-21.8,0-39.5-17.7-39.5-39.5C345.6,77.3,363.3,59.6,385,59.6z"
		/>
	<path d="M511.7,261.4c0-46.3-37.8-84-84.2-84c0,0,0,0,0,0h0H400h-29.5h-28.6c-6.6,0-12,5.4-12,12c0,6.6,5.4,12,12,12h28.6H400h27.5
		c0,0,0,0,0,0c0,0,0,0,0,0c0,0,0,0,0,0c33.2,0,60.3,27,60.3,60.1v77h-23v-76.4c0-6.6-5.4-12-12-12c-6.6,0-12,5.4-12,12v76.4h-37.9
		c-6.6,0-12,5.4-12,12c0,6.6,5.4,12,12,12h86.9c12.1,0,21.9-9.8,21.9-21.9V261.4C511.7,261.4,511.7,261.4,511.7,261.4
		C511.7,261.4,511.7,261.4,511.7,261.4z"/>
</g>
</svg>
