<?xml version="1.0" encoding="utf-8"?>
<!-- Generator: Adobe Illustrator 23.0.2, SVG Export Plug-In . SVG Version: 6.00 Build 0)  -->
<svg version="1.1" id="Calque_1" xmlns="http://www.w3.org/2000/svg" xmlns:xlink="http://www.w3.org/1999/xlink" x="0px" y="0px"
	 viewBox="0 0 512 512" style="enable-background:new 0 0 512 512;" xml:space="preserve">
<g>
	<path d="M256,1C155.1,1,73.1,83.1,73.1,183.9c0,117.9,140.3,295.6,151.3,309.3c7.9,11.9,19.4,18.8,31.7,18.8
		c12.2,0,23.7-6.8,31.7-18.8c11-13.7,151.3-191.4,151.3-309.3C438.9,83.1,356.9,1,256,1z M264.1,475.2c-0.3,0.4-0.7,0.9-0.9,1.3
		c-2.3,3.6-5,5.8-7.1,5.8c-2.1,0-4.9-2.2-7.2-5.8c-0.3-0.4-0.6-0.9-0.9-1.3c-1.4-1.8-145.2-181.5-145.2-291.3
		c0-84.5,68.8-153.3,153.3-153.3c84.5,0,153.3,68.8,153.3,153.3C409.3,293.6,265.5,473.4,264.1,475.2z"/>
	<path d="M255.5,91.4c-46.6,0-84.6,38-84.6,84.6c0,46.6,37.9,84.6,84.6,84.6c46.6,0,84.6-38,84.6-84.6
		C340.1,129.3,302.1,91.4,255.5,91.4z M255.5,230.9c-30.3,0-54.9-24.6-54.9-54.9s24.6-54.9,54.9-54.9c30.3,0,54.9,24.6,54.9,54.9
		S285.8,230.9,255.5,230.9z"/>
</g>
</svg>
