<?xml version="1.0" encoding="utf-8"?>
<!-- Generator: Adobe Illustrator 23.0.2, SVG Export Plug-In . SVG Version: 6.00 Build 0)  -->
<svg version="1.1" id="Calque_1" xmlns="http://www.w3.org/2000/svg" xmlns:xlink="http://www.w3.org/1999/xlink" x="0px" y="0px"
	 viewBox="0 0 512 512" style="enable-background:new 0 0 512 512;" xml:space="preserve">
<g>
	<path d="M504.8,58c-6.6-7.5-16.4-11.2-27.6-9.6L378.6,62c-11.1,1.5-19.1,7.3-22,15.8c-2.8,8.5,0.1,17.9,8,25.8l36.9,36.9
		l-82.4,82.4L222.3,126c-2.4-2.4-5.7-3.8-9.1-3.8c0,0,0,0,0,0c-3.4,0-6.7,1.4-9.1,3.8L35.6,295.6c-5,5-5,13.1,0.1,18.1
		c2.5,2.5,5.8,3.7,9,3.7c3.3,0,6.6-1.3,9.1-3.8l159.4-160.5L310,250c5,5,13.1,5,18.1,0l91.5-91.5l36.9,36.9c7.5,7.5,14.6,9,19.3,9
		c8.8,0,20-6,22.3-23l13.6-98.6C513,73.4,510.5,64.6,504.8,58z M473,175.6L384.4,87l96.3-13.3c1.6-0.2,3.6-0.3,4.8,1.1
		c0.8,0.9,1.1,2.5,0.8,4.5L473,175.6z"/>
	<path d="M484.3,439.2h-43.2V209.3c0-5.2-3.2-9.9-8-11.9c-4.8-2-10.4-0.8-14,2.9l-82.6,84.8c-2.3,2.4-3.6,5.6-3.6,8.9v145.1h-29.5
		v-148c0-3.4-1.4-6.7-3.8-9.1L217,199.6c-3.7-3.7-9.2-4.8-14-2.8c-4.8,2-7.9,6.7-7.9,11.8v230.6h-29.5V263.8c0-5.2-3.2-10-8.1-11.9
		c-4.9-1.9-10.4-0.7-14,3l-82.6,86.5c-2.3,2.4-3.6,5.6-3.6,8.9v88.9H14.2c-7.1,0-12.8,5.7-12.8,12.8c0,7.1,5.7,12.8,12.8,12.8h56.1
		h82.6h55.2h82.6h55.2h82.6h56.1c7.1,0,12.8-5.7,12.8-12.8C497.1,444.9,491.4,439.2,484.3,439.2z M83,439.2v-83.8l56.9-59.6v143.4
		H83z M220.8,439.2V239.6l56.9,56.9v142.7H220.8z M358.5,439.2V299.3l56.9-58.5v198.3H358.5z"/>
</g>
</svg>
