<?xml version="1.0" encoding="utf-8"?>
<!-- Generator: Adobe Illustrator 21.1.0, SVG Export Plug-In . SVG Version: 6.00 Build 0)  -->
<svg version="1.1" id="Calque_1" xmlns="http://www.w3.org/2000/svg" xmlns:xlink="http://www.w3.org/1999/xlink" x="0px" y="0px"
	 viewBox="0 0 512 512" style="enable-background:new 0 0 512 512;" xml:space="preserve">
<style type="text/css">
	.st0{enable-background:new    ;}
</style>
<path d="M480.7,81c-7.3-11.5-20.1-19.2-34.7-19.2h-40.7V41c0-22.6-18.4-41-41-41H162.2c-0.8,0-1.5,0.1-2.3,0.2
	c-5.9,0.5-11.3,3-15.5,7.2l-93.5,93.5c-4.8,4.8-7.4,11.2-7.3,17.9c0,0.3,0,0.7,0,1v288.3c0,22.6,18.4,41,41,41h40.7V470
	c0,22.6,18.4,41,41,41H446c22.6,0,41-18.4,41-41V102.8l0,0C487,94.8,484.7,87.4,480.7,81z M234,100.6v70.1h-70.1L234,100.6z
	 M84.5,421.3c-7.2,0-13.1-5.9-13.1-13.1V122.3c0.1-0.9,0.2-1.7,0.2-2.6L163.3,28c0.2,0,0.3,0,0.5-0.1h200.6
	c7.2,0,13.1,5.9,13.1,13.1v20.9H243.8c-0.8,0-1.5,0.1-2.3,0.2c-0.8,0.1-1.6,0.3-2.3,0.4c-0.7,0.1-1.3,0.2-2,0.3
	c-0.3,0.1-0.6,0.2-0.9,0.3c-1.1,0.3-2.1,0.7-3.2,1.1c-0.4,0.2-0.7,0.4-1,0.6c-2.2,1.2-4.3,2.6-6.1,4.4l-93.5,93.5
	c-0.9,0.8-1.6,1.8-2.2,2.7c-3.3,4.4-5.2,9.7-5.1,15.2c0,0.3,0,0.7,0,1v239.6L84.5,421.3L84.5,421.3z M459.1,470
	c0,7.2-5.9,13.1-13.1,13.1H166.1c-7.2,0-13.1-5.9-13.1-13.1V198.6h86.9c12.2,0,22-9.9,22-22V89.7H446c4.7,0,8.7,2.5,11.1,6.2
	c1.3,2,2,4.4,2,7V470z"/>
<g class="st0">
	<path d="M372.9,391.3c-9.9,6-26.7,12-45.9,12c-27.3,0-51.9-10.8-67.8-30.9c-9.6-11.1-16.2-26.1-18.9-44.7h-19.2v-18.3h16.8
		c0-1.5,0-3.3,0-4.8c0-3.6,0.3-7.5,0.6-10.8h-17.4v-18.6h20.1c3.6-18.3,11.7-33.9,22.5-45.3c16.2-18,38.1-28.2,64.8-28.2
		c18,0,33,4.5,42.9,9.3l-7.5,27.9c-7.8-4.2-20.1-8.1-33.6-8.1c-15,0-28.2,5.4-38.1,16.5c-6.3,6.6-10.8,16.5-13.2,27.9h78.6v18.6
		h-82.2c-0.6,3.3-0.6,6.9-0.6,10.5c0,1.8,0,3.3,0,5.1h82.8v18.3h-79.5c2.1,12.9,6.6,22.5,12.9,29.4c10.2,11.1,24.6,16.2,40.2,16.2
		c14.7,0,28.5-5.1,35.4-9L372.9,391.3z"/>
</g>
</svg>
