<?xml version="1.0" encoding="utf-8"?>
<!-- Generator: Adobe Illustrator 21.1.0, SVG Export Plug-In . SVG Version: 6.00 Build 0)  -->
<svg version="1.1" id="Calque_1" xmlns="http://www.w3.org/2000/svg" xmlns:xlink="http://www.w3.org/1999/xlink" x="0px" y="0px"
	 viewBox="0 0 512 512" style="enable-background:new 0 0 512 512;" xml:space="preserve">
<style type="text/css">
	.st0{fill:#FFFFFF;}
</style>
<g>
	<path class="st0" d="M256,43.2C114.8,43.2,0,158,0,299.2c0,60.4,21.5,119.1,60.5,165.2c2.4,2.8,5.9,4.4,9.6,4.4h371.7
		c3.7,0,7.2-1.6,9.6-4.4c39-46.1,60.5-104.8,60.5-165.2C512,158,397.2,43.2,256,43.2z M436,443.7H76c-32.9-40.9-50.9-92-50.9-144.6
		C25.1,171.9,128.7,68.3,256,68.3s230.9,103.6,230.9,230.9C486.9,351.7,468.8,402.8,436,443.7z"/>
	<path class="st0" d="M256,349.6c23.1,0,41.9-18.8,41.9-41.9c0-17.2-24.9-101-29.9-117.6c-1.6-5.3-6.5-9-12-9s-10.4,3.6-12,9
		c-5,16.6-29.9,100.4-29.9,117.6C214.1,330.8,232.9,349.6,256,349.6z M256,238.6c9.4,33.4,16.8,62.6,16.8,69
		c0,9.3-7.5,16.8-16.8,16.8s-16.8-7.5-16.8-16.8C239.2,301.3,246.6,272,256,238.6z"/>
	<path class="st0" d="M256,165.1c6.9,0,12.6-5.6,12.6-12.6V111c0-6.9-5.6-12.6-12.6-12.6s-12.6,5.6-12.6,12.6v41.6
		C243.4,159.5,249.1,165.1,256,165.1z"/>
	<path class="st0" d="M123.3,164.8c-4.9-4.9-12.9-4.9-17.8,0s-4.9,12.9,0,17.8l29.4,29.4c2.5,2.5,5.7,3.7,8.9,3.7s6.4-1.2,8.9-3.7
		c4.9-4.9,4.9-12.9,0-17.8L123.3,164.8z"/>
	<path class="st0" d="M107.2,298.6H65.6c-6.9,0-12.6,5.6-12.6,12.6c0,6.9,5.6,12.6,12.6,12.6h41.6c6.9,0,12.6-5.6,12.6-12.6
		C119.7,304.2,114.1,298.6,107.2,298.6z"/>
	<path class="st0" d="M446.4,298.6h-41.6c-6.9,0-12.6,5.6-12.6,12.6c0,6.9,5.6,12.6,12.6,12.6h41.6c6.9,0,12.6-5.6,12.6-12.6
		S453.4,298.6,446.4,298.6z"/>
	<path class="st0" d="M406.5,164.8c-4.9-4.9-12.9-4.9-17.8,0l-29.4,29.4c-4.9,4.9-4.9,12.9,0,17.8c2.5,2.5,5.7,3.7,8.9,3.7
		c3.2,0,6.4-1.2,8.9-3.7l29.4-29.4C411.4,177.6,411.4,169.7,406.5,164.8z"/>
	<path class="st0" d="M328.6,388.4H183.4c-6.9,0-12.6,5.6-12.6,12.6c0,6.9,5.6,12.6,12.6,12.6h145.2c6.9,0,12.6-5.6,12.6-12.6
		C341.1,394,335.5,388.4,328.6,388.4z"/>
</g>
</svg>
