<?xml version="1.0" encoding="utf-8"?>
<!-- Generator: Adobe Illustrator 23.0.2, SVG Export Plug-In . SVG Version: 6.00 Build 0)  -->
<svg version="1.1" id="Calque_1" xmlns="http://www.w3.org/2000/svg" xmlns:xlink="http://www.w3.org/1999/xlink" x="0px" y="0px"
	 viewBox="0 0 512 512" style="enable-background:new 0 0 512 512; fill:white" xml:space="preserve">
<g>
	<path d="M202.5,29.9c31.8,0,58,24.5,60.7,55.7h29.9C290.4,38,250.9,0,202.5,0c-48.3,0-87.9,38-90.6,85.6h29.9
		C144.5,54.5,170.7,29.9,202.5,29.9z"/>
	<path d="M31.8,478.6c-2-2.2-3-5.3-2.7-8.6l28.5-321c0.7-7.8,8.2-14.7,16.1-14.7h257.9c7.9,0,15.4,6.9,16.1,14.7l4.7,52.7h30.1
		l-4.9-55.4c-2.1-23.2-22.6-42-45.9-42H73.6c-23.3,0-43.9,18.8-45.9,42l-28.5,321c-1,11.8,2.7,23,10.5,31.5
		c7.8,8.5,18.6,13.2,30.4,13.2h161.2l-2.2-2.6l2.7-17.4l0.9-9.9H40.1C36.8,482.1,33.8,480.8,31.8,478.6z"/>
	<path d="M493.6,260.5c-1.6-18.3-17.2-32.6-35.6-32.6H284.2c-18.3,0-34,14.3-35.6,32.6l-19.2,216.3c-0.8,9.1,2.2,18.2,8.3,24.8
		c6.1,6.6,14.8,10.4,24,10.4h218.9c9.2,0,17.9-3.8,24-10.4c6.1-6.6,9.1-15.7,8.3-24.8L493.6,260.5z M482.5,481.4
		c-0.4,0.5-1.1,0.7-1.9,0.7H261.7c-0.8,0-1.4-0.2-1.9-0.7c-0.4-0.5-0.6-1.1-0.5-1.9l19.2-216.3c0.2-2.7,3.1-5.3,5.8-5.3h173.9
		c2.7,0,5.5,2.6,5.8,5.3L483,479.4C483.1,480.3,482.9,480.9,482.5,481.4z"/>
	<path d="M371.1,324.7c-21.6,0-39.1-18.9-39.1-42.1H302c0,39.7,31,72,69.1,72c38.1,0,69.1-32.3,69.1-72h-29.9
		C410.3,305.8,392.7,324.7,371.1,324.7z"/>
</g>
</svg>
