<?xml version="1.0" encoding="utf-8"?>
<!-- Generator: Adobe Illustrator 23.0.2, SVG Export Plug-In . SVG Version: 6.00 Build 0)  -->
<svg version="1.1" id="Calque_1" xmlns="http://www.w3.org/2000/svg" xmlns:xlink="http://www.w3.org/1999/xlink" x="0px" y="0px"
	 viewBox="0 0 512 512" style="enable-background:new 0 0 512 512; fill:white" xml:space="preserve">
<g>
	<path d="M504.8,145.8l-43.5-43.5c-5.1-5.1-14-5.1-19,0c-9.2,9.2-25.3,9.2-34.5,0c-9.5-9.5-9.5-25,0-34.5c5.3-5.3,5.3-13.8,0-19
		L366.2,7.2c-5.3-5.3-13.8-5.3-19,0c-8.1,8.2-21.8,9.3-31.2,2.7c-5.4-3.8-12.6-3.1-17.2,1.5l-288,288C6,304,5.4,311.3,9.1,316.7
		c6.6,9.4,5.6,22.2-2.2,30.6c-5,5.3-4.9,13.6,0.3,18.7l41.7,41.7c5.1,5.1,13.5,5.3,18.7,0.3c9.3-8.7,24.9-8.5,33.9,0.4
		c9.4,9.4,9.5,24.3,0.5,33.9c-5,5.3-4.9,13.6,0.3,18.7l43.7,43.7c2.6,2.6,6.1,3.9,9.5,3.9c3.3,0,6.6-1.2,9.2-3.7
		c7.8-7.3,20.1-8.6,29.2-3.1c5.3,3.2,12.1,2.4,16.5-2l288.8-288.8c4.4-4.4,5.2-11.2,2-16.5c-5.8-9.6-4.4-21.9,3.5-29.8
		C510.1,159.6,510.1,151.1,504.8,145.8z M473.6,198.8L198,474.4c-13.4-4.6-28.7-3.3-41,3.4l-27.6-27.6c10.7-19.5,7.7-44.2-8.8-60.7
		c-9.7-9.7-22.5-15-36.2-15c-8.7,0-17.1,2.2-24.5,6.2L34.2,355c7.2-13.4,8.1-29.4,2.5-43.5l273.9-274c14.3,5.8,31.4,4.6,44.7-3
		l25,25.1c-11.2,19.6-8.5,45.1,8.3,61.8c9.7,9.7,22.6,15,36.3,15c9.1,0,17.8-2.4,25.5-6.8l27,27
		C470.2,169.4,468.8,184.8,473.6,198.8z"/>
	<path d="M337.9,259.2l-36.5-18.6l6.4-40.4c1.5-9.2-3.2-18.3-11.5-22.5c-3.1-1.6-6.4-2.3-9.8-2.3c-5.6,0-11.1,2.2-15.2,6.3
		l-28.9,28.9L206,192c-3.1-1.6-6.4-2.3-9.8-2.3c-5.6,0-11.1,2.2-15.2,6.3c-6.6,6.6-8.2,16.7-4,25l18.6,36.5l-28.9,28.9
		c-6.6,6.6-8.2,16.7-4,25c3.7,7.3,11.2,11.7,19.2,11.7c1.1,0,2.2-0.1,3.4-0.3l40.4-6.4l18.6,36.5c3.7,7.3,11.2,11.7,19.2,11.7
		c1.1,0,2.2-0.1,3.4-0.3c9.2-1.5,16.4-8.7,17.9-17.9l6.4-40.4l40.4-6.4c9.2-1.5,16.4-8.7,17.9-17.9
		C350.8,272.5,346.2,263.4,337.9,259.2z M272.3,287.2l-8.8,55.9l-25.7-50.4l-55.8,8.8l40-40l-25.7-50.4l50.4,25.7l40-40l-8.9,55.9
		l50.4,25.7L272.3,287.2z"/>
	<path d="M314.9,108.6c5.3-5.3,5.3-13.9,0-19.2c-5.3-5.3-13.9-5.3-19.2,0c-5.3,5.3-5.3,13.9,0,19.2
		C301.1,113.9,309.6,113.9,314.9,108.6z"/>
	<path d="M331.2,124.9c-5.3,5.3-5.3,13.9,0,19.2c5.3,5.3,13.9,5.3,19.2,0c5.3-5.3,5.3-13.9,0-19.2
		C345.1,119.6,336.5,119.6,331.2,124.9z"/>
	<path d="M366.6,160.3c-5.3,5.3-5.3,13.9,0,19.1c5.3,5.3,13.9,5.3,19.2,0c5.3-5.3,5.3-13.9,0-19.2C380.5,155,371.9,155,366.6,160.3z
		"/>
	<path d="M402.1,195.8c-5.3,5.3-5.3,13.9,0,19.2c5.3,5.3,13.9,5.3,19.2,0c5.3-5.3,5.3-13.9,0-19.2
		C415.9,190.5,407.3,190.5,402.1,195.8z"/>
</g>
</svg>
