<?xml version="1.0" encoding="utf-8"?>
<!-- Generator: Adobe Illustrator 21.1.0, SVG Export Plug-In . SVG Version: 6.00 Build 0)  -->
<svg version="1.1" id="Calque_1" xmlns="http://www.w3.org/2000/svg" xmlns:xlink="http://www.w3.org/1999/xlink" x="0px" y="0px"
	 viewBox="0 0 512 512" style="enable-background:new 0 0 512 512;" xml:space="preserve">
<style type="text/css">
	.st0{fill:#FFFFFF;}
</style>
<g>
	<path class="st0" d="M424.2,217.6c6.7,0,12.1-5.4,12.1-12.1c0-6.7-5.4-12.1-12.1-12.1h-49.9v-13.8h93.4c14.1,0,25.6-11.5,25.6-25.6
		V26.9c0-14.1-11.5-25.6-25.6-25.6h-211c-14.1,0-25.6,11.5-25.6,25.6V154c0,14.1,11.5,25.6,25.6,25.6h93.4v13.8h-49.9
		c-6.7,0-12.1,5.4-12.1,12.1c0,6.7,5.4,12.1,12.1,12.1L424.2,217.6L424.2,217.6z M256.7,155.4c-0.8,0-1.4-0.6-1.4-1.4V26.9
		c0-0.8,0.6-1.4,1.4-1.4h211c0.8,0,1.4,0.6,1.4,1.4V154c0,0.8-0.6,1.4-1.4,1.4H256.7z"/>
	<path class="st0" d="M252.5,294.4h-211c-14.1,0-25.6,11.5-25.6,25.6v127c0,14.1,11.5,25.6,25.6,25.6h93.4v13.8H85.1
		c-6.7,0-12.1,5.4-12.1,12.1s5.4,12.1,12.1,12.1H209c6.7,0,12.1-5.4,12.1-12.1s-5.4-12.1-12.1-12.1h-49.9v-13.8h93.4
		c14.1,0,25.6-11.5,25.6-25.6V320C278.2,305.8,266.7,294.4,252.5,294.4z M41.6,448.5c-0.8,0-1.4-0.6-1.4-1.4V320
		c0-0.8,0.6-1.4,1.4-1.4h211c0.8,0,1.4,0.6,1.4,1.4v127c0,0.8-0.6,1.4-1.4,1.4h-211V448.5z"/>
	<path class="st0" d="M51.5,272.3c0.5,0,1.1,0,1.6-0.1c6.6-0.9,11.3-6.9,10.4-13.6c-5.1-38.7,6-78.4,30.2-108.9
		c15.6-19.6,36.2-34.8,59.4-44.1l-4.4,4.5c-4.7,4.7-4.7,12.4,0.1,17.1c2.4,2.3,5.4,3.5,8.5,3.5s6.2-1.2,8.6-3.6l34.6-34.8l0,0l0,0
		c0.2-0.2,0.5-0.5,0.7-0.8c0.1-0.1,0.1-0.1,0.2-0.2c0.2-0.3,0.4-0.5,0.6-0.8c0,0,0,0,0-0.1c0.2-0.3,0.4-0.6,0.5-0.9
		c0-0.1,0.1-0.2,0.1-0.3c0.1-0.3,0.3-0.5,0.4-0.8c0-0.1,0.1-0.2,0.1-0.2c0.1-0.3,0.2-0.5,0.3-0.8c0-0.1,0.1-0.2,0.1-0.4
		c0.1-0.3,0.2-0.6,0.2-0.9c0-0.1,0-0.2,0.1-0.3c0-0.3,0.1-0.5,0.1-0.8c0-0.1,0-0.2,0-0.3c0-0.3,0.1-0.7,0.1-1c0-0.1,0-0.1,0-0.2
		c0-0.3,0-0.7,0-1v-0.1l0,0c0-0.4-0.1-0.7-0.2-1.1c0-0.1,0-0.2-0.1-0.3c0-0.1,0-0.2-0.1-0.3c0-0.2-0.1-0.4-0.2-0.6
		c0-0.1,0-0.2-0.1-0.3c-0.1-0.3-0.2-0.6-0.3-0.9c0-0.1-0.1-0.2-0.2-0.4c-0.1-0.2-0.2-0.5-0.3-0.7c-0.1-0.1-0.1-0.2-0.2-0.4
		c-0.1-0.2-0.2-0.4-0.4-0.6c-0.1-0.1-0.1-0.2-0.2-0.3c-0.2-0.2-0.4-0.5-0.5-0.7c-0.1-0.1-0.1-0.2-0.2-0.2c-0.2-0.2-0.3-0.4-0.5-0.5
		c-0.1-0.1-0.2-0.2-0.3-0.3c-0.2-0.2-0.4-0.4-0.7-0.6c-0.1-0.1-0.2-0.1-0.3-0.2c-0.2-0.1-0.3-0.3-0.5-0.4c-0.1-0.1-0.2-0.2-0.3-0.2
		c-0.2-0.2-0.5-0.3-0.7-0.5c-0.1-0.1-0.3-0.1-0.4-0.2c-0.2-0.1-0.3-0.2-0.5-0.2c-0.2-0.1-0.3-0.1-0.5-0.2s-0.3-0.1-0.5-0.2
		s-0.3-0.1-0.5-0.2l-48.4-15.6c-6.4-2.1-13.2,1.4-15.2,7.8c-2.1,6.4,1.4,13.2,7.8,15.2l7.4,2.4c-7,2.7-13.9,5.8-20.6,9.4
		c-20,10.9-37.4,25.4-51.6,43.2s-24.5,38-30.6,60s-7.7,44.5-4.7,67.1C40.3,267.8,45.5,272.3,51.5,272.3z"/>
	<path class="st0" d="M495,225.7c-0.7-6.6-6.7-11.4-13.4-10.7c-6.6,0.7-11.4,6.7-10.7,13.4C479,302,435.1,370,367.8,394.7l8.3-13.5
		c3.5-5.7,1.8-13.1-3.9-16.7c-5.7-3.5-13.1-1.8-16.7,3.9l-24.3,39.3c0,0.1-0.1,0.1-0.1,0.2c-0.1,0.2-0.2,0.4-0.4,0.7
		c-0.1,0.1-0.2,0.3-0.2,0.4c-0.1,0.3-0.2,0.6-0.3,0.8c0,0.1-0.1,0.2-0.1,0.3c-0.1,0.4-0.2,0.8-0.3,1.2c0,0.1,0,0.2-0.1,0.4
		c-0.1,0.3-0.1,0.6-0.2,0.9c0,0.2,0,0.4,0,0.6s0,0.5,0,0.7s0,0.5,0,0.7s0,0.4,0,0.6c0,0.3,0.1,0.5,0.1,0.8c0,0.1,0,0.2,0,0.3
		c0,0.1,0,0.1,0,0.2c0,0.2,0.1,0.4,0.1,0.6s0.1,0.4,0.2,0.6c0,0.1,0.1,0.2,0.1,0.4c0,0.1,0.1,0.1,0.1,0.2c0.1,0.2,0.2,0.4,0.3,0.6
		c0.1,0.2,0.1,0.3,0.2,0.5c0.2,0.3,0.3,0.7,0.5,1c0.1,0.1,0.2,0.3,0.3,0.4c0.1,0.2,0.3,0.4,0.4,0.6s0.2,0.3,0.4,0.5
		c0.1,0.2,0.2,0.3,0.4,0.5c0.1,0.2,0.3,0.3,0.4,0.5c0.1,0.1,0.3,0.3,0.4,0.4c0.2,0.1,0.3,0.3,0.5,0.4c0.1,0.1,0.2,0.2,0.3,0.3
		c0.3,0.3,0.7,0.5,1,0.7c0.1,0.1,0.3,0.2,0.5,0.3c0.2,0.1,0.4,0.2,0.6,0.3c0.2,0.1,0.4,0.2,0.5,0.3c0.1,0,0.2,0.1,0.3,0.2l46.3,18.7
		c1.5,0.6,3,0.9,4.5,0.9c4.8,0,9.3-2.9,11.2-7.6c2.5-6.2-0.5-13.3-6.7-15.8l-13.2-5.4C455,387,504.2,309.5,495,225.7z"/>
</g>
</svg>
