<?xml version="1.0" encoding="utf-8"?>
<!-- Generator: Adobe Illustrator 21.1.0, SVG Export Plug-In . SVG Version: 6.00 Build 0)  -->
<svg version="1.1" id="Calque_1" xmlns="http://www.w3.org/2000/svg" xmlns:xlink="http://www.w3.org/1999/xlink" x="0px" y="0px"
	 viewBox="0 0 512 512" style="enable-background:new 0 0 512 512;" xml:space="preserve">
<style type="text/css">
	.st0{fill:#FFFFFF;}
</style>
<g>
	<path class="st0" d="M504.2,225.1c-0.8-5.8-5.1-10.5-10.9-11.8l-46.9-10.6c-3.8-12.6-8.9-24.8-15.1-36.4l25.7-40.7
		c3.1-5,2.9-11.4-0.7-16.1c-14-18.5-30.4-35-48.9-48.9c-4.7-3.5-11.1-3.8-16.1-0.7l-40.7,25.7c-11.6-6.3-23.8-11.3-36.4-15.1
		l-10.6-47c-1.3-5.7-6-10.1-11.8-10.9c-19.8-2.7-39.1-3-58.7-1.1c0.4,0.4,0.9,0.7,1.3,1.1c8,8,14.9,16.6,20.8,25.8
		c7.7-0.1,15.3,0.2,23.1,1L288.4,85c1.2,5.2,5.2,9.3,10.3,10.6c15.8,4,30.9,10.3,45,18.6c4.6,2.7,10.3,2.6,14.8-0.2l39.4-24.9
		c10.8,9,20.8,18.9,29.8,29.8l-24.9,39.4c-2.8,4.5-2.9,10.2-0.2,14.8c8.4,14.1,14.7,29.2,18.7,45c1.3,5.2,5.4,9.1,10.6,10.3
		l45.4,10.3c0.7,7.1,1,14.2,1,21.1s-0.3,14-1,21.1l-37.5,8.5c9.6,9.1,17.7,16.8,24.6,23.4l28.8-6.5c5.7-1.3,10.1-6,10.9-11.8
		c1.6-11.6,2.4-23.3,2.4-34.6C506.6,248.4,505.8,236.8,504.2,225.1z"/>
	<path class="st0" d="M288.4,434.5L278.1,480c-14.3,1.4-27.8,1.4-42.2,0l-10.3-45.5c-1.2-5.2-5.2-9.3-10.3-10.6
		c-15.8-4-30.9-10.3-45-18.6c-4.6-2.7-10.3-2.7-14.8,0.2l-39.4,24.9c-10.9-9-20.8-18.9-29.8-29.8l24.9-39.4
		c2.8-4.5,2.9-10.2,0.2-14.8c-8.4-14.1-14.7-29.2-18.7-45c-1.3-5.2-5.4-9.1-10.6-10.3l-45.4-10.3c-0.7-7.1-1-14.2-1-21.1
		c0-3.6,0.1-7.3,0.3-11c-7.3-5.1-14.3-10.8-20.7-17.3c-1.9-1.9-3.7-3.9-5.5-5.9c-1.6,11.5-2.4,23-2.4,34.1c0,11.3,0.8,22.9,2.4,34.6
		c0.8,5.8,5.1,10.6,10.9,11.9l47,10.6c3.8,12.6,8.9,24.8,15.1,36.4L57.2,394c-3.1,5-2.9,11.4,0.7,16.1c14,18.5,30.4,34.9,48.9,48.9
		c4.7,3.5,11.1,3.8,16.1,0.7l40.7-25.7c11.6,6.3,23.8,11.3,36.4,15.1l10.6,47c1.3,5.7,6,10.1,11.9,10.9c11.7,1.6,23.4,2.4,34.6,2.4
		s22.9-0.8,34.6-2.4c5.8-0.8,10.6-5.1,11.9-10.9l8.5-37.7c-6.7-7-14.4-15.1-23.3-24.5C288.6,434,288.5,434.2,288.4,434.5z"/>
	<path class="st0" d="M354.8,208.6c14.8,14.1,28.2,26.8,40.3,38.2c-5.9-63-54-113.7-115.6-123.8c0,4.5-0.2,9-0.6,13.4
		c8.4,8,16.5,15.6,24.3,23C325.3,169.7,343.5,187,354.8,208.6z"/>
	<path class="st0" d="M223.3,364.8c-35.5-11.5-63.1-40.5-72.8-76.7c-3.8-4-7.5-7.9-11.4-12c-4.8,0.4-9.6,0.7-14.4,0.7
		c-1.7,0-3.5-0.2-5.2-0.3c8.2,67.9,65.7,120.8,135.6,121.8C245.4,388.1,234.9,377.1,223.3,364.8z"/>
	<path class="st0" d="M241,149.3c9.4-40.1-2.4-82.2-31.8-111.6c-22.5-22.5-52.5-34.9-84.3-34.9c-12.2,0-24.2,1.8-35.8,5.5
		c-4.7,1.5-8.3,5.3-9.5,10.1s0.2,9.9,3.7,13.4l58.2,58.1c1.6,5.5,3.7,20.5-12.3,36.6c-8.8,8.8-18.4,13.3-28.5,13.3
		c-3.5,0-6.4-0.6-8.1-1L34.4,80.6c-3.5-3.5-8.6-4.9-13.4-3.7c-4.8,1.2-8.6,4.8-10.1,9.5C-2.4,129,8.9,175,40.4,206.5
		c22.5,22.5,52.5,34.9,84.3,34.9c9.2,0,18.3-1.1,27.3-3.1c71.8,75.7,223.9,236.1,227,238.9c14,12.8,32,19.9,50.7,19.9
		c19,0,36.7-7.2,49.7-20.3c27-27,27.2-71.2,0.4-100.5C477.1,373.2,316.6,221,241,149.3z M459.4,456.7c-7.8,7.8-18.3,12-29.8,12
		c-11.6,0-22.9-4.4-31.4-12.2c-5.3-5.3-153.9-161.8-231.7-243.9c-2.7-2.9-6.4-4.4-10.3-4.4c-1.4,0-2.8,0.2-4.2,0.6
		c-8.9,2.8-18.1,4.2-27.5,4.2c-24.3,0-47.2-9.5-64.4-26.6c-17.9-17.9-27.3-42-26.6-66.6L74.8,161c1.2,1.2,2.5,2.1,4.1,2.8
		c1.5,0.7,9.7,4.2,21.8,4.2c12.3,0,30.6-3.7,48.5-21.6c33.7-33.7,18.1-68.8,17.4-70.3c-0.7-1.5-1.7-2.9-2.8-4.1l-41-41
		c25.4-0.6,48.9,8.9,66.6,26.6c24.1,24.1,32.7,59.2,22.4,91.8c-1.6,5.2-0.2,10.8,3.8,14.5c82,77.8,238.6,226.3,243.6,231.4
		C475.6,413.4,475.8,440.4,459.4,456.7z"/>
	<path class="st0" d="M409.9,407.4c-8.1,8.1-8.1,21.3,0,29.5c8.1,8.1,21.3,8.1,29.5,0c8.1-8.1,8.1-21.3,0-29.5
		C431.2,399.2,418,399.2,409.9,407.4z"/>
</g>
</svg>
