<?xml version="1.0" encoding="utf-8"?>
<!-- Generator: Adobe Illustrator 21.1.0, SVG Export Plug-In . SVG Version: 6.00 Build 0)  -->
<svg version="1.1" id="Calque_1" xmlns="http://www.w3.org/2000/svg" xmlns:xlink="http://www.w3.org/1999/xlink" x="0px" y="0px"
	 viewBox="0 0 512 512" style="enable-background:new 0 0 512 512;" xml:space="preserve">
<style type="text/css">
	.st0{fill:#FFFFFF;}
</style>
<path class="st0" d="M365.4,26.2C337.4,10,308,1.1,282.5,1.1c-24.7,0-43.3,8.7-52.4,24.5c-9,15.6-7.4,35.4,4.3,56.4l-67.8,80.8
	c-5.4-0.6-10.6-0.9-15.7-0.9c-33.5,0-58.7,11.5-70.8,32.5C67,217.1,71,247,91.3,278.5c7.4,11.4,16.6,22.6,27.4,33.3
	c-0.4,1.2-0.9,2.4-1.2,3.7L80.4,473.3c-3.2,13.5-2.1,23.4,3.2,30.2c3.8,4.8,9.3,7.4,15.4,7.4l0,0c7.7,0,15.8-4.1,24.7-12.5
	l118.1-111.1c1-1,2-2,2.9-3c17.4,4.7,34.4,7.3,49.9,7.3c33.6,0,58.7-11.5,70.8-32.5c13.1-22.7,9.1-52.6-11.2-84.1
	c-1.5-2.3-3.2-4.6-4.8-6.9l34-100.7c23.5-0.5,41.3-9.1,50.1-24.4C452.7,110,423.4,59.7,365.4,26.2z M164.9,208.9l86.7-103.4
	c12.5,13.7,28.4,26.5,46.6,37c18.7,10.8,38,18.3,56.3,22.1l-43.4,128.5c-2.6,3.3-12.3,13.3-32.9,13.3c-17.3,0-38-6.9-61.4-20.4
	C150.6,247.8,162.5,214.1,164.9,208.9z M109.5,473l33.1-140.4c10.7,8.3,22.2,16.2,34.5,23.3c12.3,7.1,24.9,13.1,37.5,18.2L109.5,473
	z M341,345c-9.2,16-33,18.4-46.3,18.4c-30.6,0-68.3-11.6-103.4-31.9c-32.9-19-59.9-43.2-76.1-68.3c-14.1-21.9-17.9-41.8-10.5-54.6
	c7.7-13.3,25.3-17.1,38.7-18.1l-1.2,1.4c-0.5,0.6-0.9,1.2-1.3,1.8c-1.1,1.9-11,19.3-4.5,44.4c6.9,26.6,29.2,51,66.2,72.3
	c27.8,16,53.2,24.2,75.5,24.2c40.6,0,57.1-26.6,57.8-27.8c0.5-0.9,0.9-1.8,1.3-2.7l0.3-0.9C345.5,319.9,346.9,334.7,341,345z
	 M409.1,129c-3.8,6.6-14,10.4-27.9,10.4c-20.2,0-45.3-7.8-68.7-21.3c-21.7-12.5-40.1-29.1-50.7-45.4c-8.6-13.4-11.3-25.6-7.1-32.9
	c3.8-6.6,14-10.4,27.9-10.4c20.2,0,45.3,7.8,68.7,21.3C395.5,76.2,418.2,113.1,409.1,129z"/>
</svg>
