<?xml version="1.0" encoding="utf-8"?>
<!-- Generator: Adobe Illustrator 23.0.2, SVG Export Plug-In . SVG Version: 6.00 Build 0)  -->
<svg version="1.1" id="Calque_1" xmlns="http://www.w3.org/2000/svg" xmlns:xlink="http://www.w3.org/1999/xlink" x="0px" y="0px"
	 viewBox="0 0 512 512" style="enable-background:new 0 0 512 512; fill:white" xml:space="preserve">
<g>
	<path d="M510.1,339.3c0-0.1,0-0.3,0-0.4c-0.2-1.4-0.6-2.8-1.2-4.1l-53.4-126.9c-2.4-5.7-7.9-9.3-14.1-9.3l-34.8,0l10.8,30.5l13.9,0
		L472,326H40l41.2-97l13.6,0l10.9-30.5l-34.6,0c-6.1,0-11.6,3.7-14,9.3L2.9,335.3c-1.1,2.6-1.4,5.4-1,8.1v150.8
		c0,8.4,6.8,15.2,15.2,15.2H495c8.4,0,15.2-6.8,15.2-15.2V341.2C510.3,340.6,510.2,340,510.1,339.3z M32.4,478.9V356.5l447.4,0.1
		v122.3H32.4z"/>
	<path d="M256.1,372.9c-24.7,0-44.8,20.1-44.8,44.8s20.1,44.8,44.8,44.8c24.7,0,44.8-20.1,44.8-44.8S280.8,372.9,256.1,372.9z
		 M256.1,432c-7.9,0-14.3-6.4-14.3-14.3c0-7.9,6.4-14.3,14.3-14.3c7.9,0,14.3,6.4,14.3,14.3C270.4,425.6,264,432,256.1,432z"/>
	<path d="M121.9,219.1h31.3l-12.3-53l67.3-15.7c8.2-1.9,13.3-10.1,11.4-18.3l-16-68.6l117-27.3l42.6,182.9h31.3L346.9,14.4
		C345,6.2,336.9,1.1,328.6,3L170.7,39.8c-3.6,0.8-6.8,3-9,6.1l-56.3,79.8c-2.5,3.6-3.4,8-2.4,12.2L121.9,219.1z M175.9,78.7
		l10.6,45.5L135.4,136L175.9,78.7z"/>
	<rect x="109.1" y="239.8" width="298.3" height="25.3"/>
	<rect x="89" y="284.8" width="338.6" height="25.3"/>
</g>
</svg>
