<?xml version="1.0" encoding="utf-8"?>
<!-- Generator: Adobe Illustrator 23.0.2, SVG Export Plug-In . SVG Version: 6.00 Build 0)  -->
<svg version="1.1" id="Calque_1" xmlns="http://www.w3.org/2000/svg" xmlns:xlink="http://www.w3.org/1999/xlink" x="0px" y="0px"
	 viewBox="0 0 512 512" style="enable-background:new 0 0 512 512; fill:white" xml:space="preserve">
<g>
	<path d="M152.9,221.9h143.4c6.6,0,12-5.4,12-12c0-6.6-5.4-12-12-12H152.9c-6.6,0-12,5.4-12,12C140.8,216.5,146.2,221.9,152.9,221.9
		z"/>
	<path d="M246.3,241.9h-93.4c-6.6,0-12,5.4-12,12c0,6.6,5.4,12,12,12h93.4c6.6,0,12-5.4,12-12C258.3,247.3,252.9,241.9,246.3,241.9z
		"/>
	<path d="M393.5,288.5V79.7c0-6.6-5.4-12-12-12h-68.6V56.1c0-31.5-39.3-56.1-89.4-56.1c-50.1,0-89.4,24.6-89.4,56.1v11.6H65.5
		c-6.6,0-12,5.4-12,12v372.1c0,6.6,5.4,12,12,12h179.8c21.5,29.2,56,48.2,95,48.2c65.1,0,118.1-53,118.1-118.1
		C458.5,347.9,432,308,393.5,288.5z M77.6,439.8V91.7h68.6c6.6,0,12-5.4,12-12V56.1c0-15.2,26.8-32.1,65.4-32.1
		c38.5,0,65.4,16.9,65.4,32.1v23.6c0,6.6,5.4,12,12,12h68.6v187.8c-8.1-2.1-16.4-3.3-25-3.6V124.1c0-6.6-5.4-12-12-12H114.6
		c-6.6,0-12,5.4-12,12v281.7c0,6.6,5.4,12,12,12h110.1c1.6,7.6,3.9,14.9,6.8,21.9H77.6z M222.2,393.8h-95.6V136.1h193.8v141.4
		C264.8,287.1,222.3,335.5,222.2,393.8z M340.4,488c-51.9,0-94.1-42.2-94.1-94.1c0-51.9,42.2-94.1,94.1-94.1
		c51.9,0,94.1,42.2,94.1,94.1C434.4,445.8,392.2,488,340.4,488z"/>
	<path d="M223.5,81c9.8,0,17.8-8,17.8-17.8c0-9.8-8-17.8-17.8-17.8c-9.8,0-17.8,8-17.8,17.8C205.8,73.1,213.7,81,223.5,81z"/>
	<path d="M398.8,349.8l-62.6,62.6l-37.3-37.3l-17,17l45.8,45.8c2.3,2.3,5.4,3.5,8.5,3.5s6.2-1.2,8.5-3.5l71.1-71.1L398.8,349.8z"/>
</g>
</svg>
