<?xml version="1.0" encoding="utf-8"?>
<!-- Generator: Adobe Illustrator 21.1.0, SVG Export Plug-In . SVG Version: 6.00 Build 0)  -->
<svg version="1.1" id="Calque_1" xmlns="http://www.w3.org/2000/svg" xmlns:xlink="http://www.w3.org/1999/xlink" x="0px" y="0px"
	 viewBox="0 0 512 512" style="enable-background:new 0 0 512 512;" xml:space="preserve">
<style type="text/css">
	.st0{fill:#FFFFFF;}
</style>
<g>
	<rect x="198.2" y="110.1" class="st0" width="310.6" height="30.8"/>
	<path class="st0" d="M74.6,210.9c-32.6,0-59.1,26.5-59.1,59.1s26.5,59.1,59.1,59.1s59.1-26.5,59.1-59.1S107.2,210.9,74.6,210.9z
		 M74.6,298.4c-15.6,0-28.3-12.7-28.3-28.3c0-15.6,12.7-28.3,28.3-28.3s28.3,12.7,28.3,28.3C102.9,285.7,90.2,298.4,74.6,298.4z"/>
	<rect x="198.2" y="254.6" class="st0" width="166" height="30.8"/>
	<path class="st0" d="M74.6,355.4c-32.6,0-59.1,26.5-59.1,59.1s26.5,59.1,59.1,59.1s59.1-26.5,59.1-59.1S107.2,355.4,74.6,355.4z
		 M74.6,442.9c-15.6,0-28.3-12.7-28.3-28.3c0-15.6,12.7-28.3,28.3-28.3s28.3,12.7,28.3,28.3C102.9,430.2,90.2,442.9,74.6,442.9z"/>
	<rect x="198.2" y="399.2" class="st0" width="246.6" height="30.8"/>
	<path class="st0" d="M69.4,119.2L25,74.8L3.2,96.6l55.3,55.3c2.9,2.9,6.8,4.5,10.9,4.5s8-1.6,10.9-4.5L172,60.1l-21.8-21.8
		L69.4,119.2z"/>
</g>
</svg>
