<?xml version="1.0" encoding="utf-8"?>
<!-- Generator: Adobe Illustrator 21.1.0, SVG Export Plug-In . SVG Version: 6.00 Build 0)  -->
<svg version="1.1" id="Calque_1" xmlns="http://www.w3.org/2000/svg" xmlns:xlink="http://www.w3.org/1999/xlink" x="0px" y="0px"
	 viewBox="0 0 512 512" style="enable-background:new 0 0 512 512;" xml:space="preserve">
<style type="text/css">
	.st0{fill:#FFFFFF;}
</style>
<path class="st0" d="M507.5,299.7C504.9,291,457.2,141,447,109.5c-1.6-5.1-5.1-9.1-9.6-11.2c-4.9-2.3-10.8-2.4-16.4-0.2
	c-2,0.8-5.9,2.3-36.4,30.1c-15.9-5.8-39.1-11.3-57.2-14.7c-44.1-8.4-74.8-5.6-91.4,8.2c-2.3,1.9-6.4,5.2-11.3,9.1
	c-6.5,5.2-13.9,11.1-20.2,16.4c-1.5-0.9-3.1-1.5-5-1.6l-56.3-4.2c-2.4-3-6.6-9.2-9.8-13.9c-12.7-18.5-18.4-26.4-24.7-29.2
	c-7.7-3.4-13.8-2.3-17.5-0.8s-8.9,5-12,12.7C76.9,116,8.7,282.8,5.4,290.8c-6.3,15.3,1,26.9,10.5,31.2c4.4,2,10.4,2.1,27.7,1.7
	c2.9-0.1,6.7-0.1,10.3-0.2c2.4,4.7,6.7,9.3,13.8,13.6c6.2,3.8,12.2,5.8,18,6.2c1.8,6,6.4,12.1,15.5,17.6c6.9,4.2,13.7,6.4,20.1,6.4
	c1,0,2.1-0.1,3.1-0.2c2.5,4.2,6.7,8.4,13.1,12.3c6.9,4.2,13.7,6.4,20.1,6.4c2,0,3.8-0.2,5.6-0.6c2.6,3.6,6.4,7.2,11.9,10.5
	c6.9,4.2,13.7,6.4,20.1,6.4c9.8,0,18-4.9,23-13.9l4.3-7.8c9.2,7.3,24.5,19.1,37.3,27.7c7,4.7,15.9,7.1,25.2,7.1
	c3.7,0,7.4-0.4,11.1-1.2c10-2.1,17.7-7,21.9-13.6c1.8-2.9,3.1-5.6,4-8.3c2.9,0.8,6,1.2,9.1,1.2c3.6,0,7.3-0.5,11-1.6
	c12-3.5,23.3-12.2,27.4-21.3c0.9-1.9,1.5-3.8,1.9-5.8c1.9,0,3.9-0.2,6.1-0.7c11.1-2.3,26.1-10.7,32.3-21.8c1.1-2,1.9-4.1,2.6-6.2
	c1,0.1,2.1,0.2,3.1,0.2c6.7,0,13.5-2.5,19.6-7.4c1.3,0.5,2.6,0.7,4.2,0.8l50.6-0.5c1.3,0,2.7-0.3,3.9-0.7
	C506.7,323.5,511.6,313.1,507.5,299.7z M43.1,300.6c-5.3,0.1-12.7,0.3-16.7,0.1c0.1-0.3,0.2-0.7,0.4-1.1
	c3.2-7.7,65.5-160.3,73.2-179.1c3.7,4.3,10.2,13.8,14.4,19.9c2.1,3.1,3.9,5.7,5.5,8l-51.3,126l-13.1,24.1c-0.4,0.7-0.7,1.3-1,2
	C51.2,300.5,47.5,300.5,43.1,300.6z M74.4,313.1c0-0.1,0-1.1,1.4-3.6l18-33c1.4-2.4,4.2-2.6,5.4-2.6c1.7,0,3.5,0.5,5.2,1.4
	c2.4,1.3,4.2,3.3,4.9,5.5c0.3,1,0.5,2.5-0.2,3.8l-18.4,33.8c-1.1,2-2,2-2.8,2c-1,0-3.7-0.3-8.1-3C75.1,314.6,74.4,313.1,74.4,313.1z
	 M107.9,336.8c0-0.1,0-1.1,1.3-3.5l27.4-49c1.4-2.4,4.2-2.6,5.4-2.6c1.7,0,3.5,0.5,5.2,1.4c2.4,1.3,4.2,3.3,4.9,5.5
	c0.3,1,0.5,2.5-0.2,3.7l-27.8,49.8c-1.1,2-2,2-2.8,2c-1,0-3.7-0.3-8.1-3C108.7,338.4,107.9,336.8,107.9,336.8z M149.5,359.6
	c-4.6-2.8-5.3-4.3-5.4-4.3c0-0.1,0-1.1,1.3-3.5l24.7-44.2c1.4-2.4,4.2-2.6,5.4-2.6c1.7,0,3.5,0.5,5.3,1.4c2.4,1.3,4.2,3.3,4.8,5.5
	c0.3,1,0.5,2.5-0.2,3.7l-25.1,45c-1.1,2-2,2-2.8,2S154,362.3,149.5,359.6z M195.3,378.8c-1,0-3.7-0.3-8.1-3
	c-4.6-2.8-5.3-4.3-5.4-4.3c0-0.1,0-1.1,1.4-3.5l16-29.1c1.4-2.4,4.2-2.6,5.4-2.6c1.7,0,3.6,0.5,5.3,1.4c2.4,1.3,4.2,3.3,4.9,5.5
	c0.3,1,0.5,2.5-0.2,3.8l-16.4,29.9C197,378.8,196.2,378.8,195.3,378.8z M424.1,307.3c-0.3,0.3-6.3,7.8-10.1,5
	c-2.8-2.1-6.2-4.6-9.8-7.4c-0.4-0.4-0.7-0.8-1.1-1.1c-0.7-0.6-1.5-1.1-2.4-1.5c-25.8-19.7-64.4-49.8-64.9-50.2c-5-3.9-12.3-3-16.2,2
	c-3.9,5-3,12.3,2,16.2c0.5,0.4,41.4,32.3,67.3,52c2.3,2.5,2.6,5.3,0.9,8.5c-2.6,4.7-13.5,10.5-18.2,10.6l-68.8-53.9
	c-5-3.9-12.3-3.1-16.2,2c-3.9,5-3,12.3,2,16.2l55.9,43.8c0.3,0.3,0.6,0.6,0.9,0.9c1.4,1.1,5.7,4.9,3.3,10.3
	c-0.7,1.6-5.8,6.7-12.8,8.7c-4.1,1.2-7.5,0.9-10.1-0.8c-2.4-1.6-7.5-5.5-14-10.5c-0.2-0.2-0.4-0.3-0.5-0.5c-0.2-0.2-0.5-0.4-0.8-0.5
	c-16.4-12.9-40.5-32.4-51.5-41.4c-4.9-4-12.2-3.3-16.2,1.6s-3.3,12.2,1.6,16.2c4.3,3.5,32.9,26.9,52.4,42.2
	c5.7,5.1,4.9,7.3,1.7,12.3c-0.3,0.4-2.4,2.3-7.3,3.3c-6.7,1.4-14.1,0.3-18.5-2.6c-13.5-9-30.6-22.5-38.8-29l1-1.8
	c3.5-6.6,4.2-14.2,2-21.5c-2.4-8-8.3-15-16.1-19.2c-3.7-2-7.7-3.2-11.8-3.8c0-2.8-0.3-5.6-1.1-8.3c-2.4-8-8.3-15-16.1-19.2
	c-5-2.7-10.6-4.1-16.1-4.1c-0.5,0-1,0.1-1.5,0.1c-2.4-8-8.3-15-16.1-19.2c-5-2.7-10.6-4.1-16.1-4.1c-6.1,0-11.7,1.7-16.4,4.8
	c-2.8-3.4-6.3-6.4-10.4-8.6c-3.9-2-8-3.3-12.2-3.8l35.4-86.9l46.5,3.5c-5.9,11.5-4.8,24.9,3.9,35.3c10,12.1,29.9,18.4,46.8,6.4
	c11.9-8.4,19.1-13.9,30.1-22.1l2.5-1.9c0.9-0.7,1.9-1.4,2.7-2c8.5,1,19.8,4.2,29.9,7.2c5,1.5,12.1,5,17.5,8.6
	c23.2,15.5,78.4,63.6,102,84.2l7.4,6.4C431,292.4,429.3,300.9,424.1,307.3z M450.5,306.2c3.9-12,2.6-25.2-7.6-34l-7.3-6.4
	c-23.9-20.8-79.9-69.6-104.4-86c-7.4-5-16.6-9.4-23.8-11.6c-12.7-3.8-26-7.4-36.8-8.3c-0.5,0-1-0.1-1.4-0.1c-5.7,0-9.6,2.9-14.8,6.8
	l-2.5,1.9c-10.8,8.1-17.9,13.5-29.6,21.7c-6.9,4.9-13.3,0.6-15.8-2.3c-2.6-3.1-4.3-8,1.8-13.9c5.1-5,20.5-17.3,30.7-25.5
	c5-4,9.3-7.5,11.7-9.4c10.5-8.8,36.9-10,72.2-3.3c18.9,3.6,45.7,9.9,59.3,16c4.2,1.9,9.1,1.1,12.5-2c11.5-10.6,25.2-22.7,32-28.2
	c12.7,39.4,54.7,171.6,58.6,184L450.5,306.2z"/>
</svg>
