<?xml version="1.0" encoding="utf-8"?>
<!-- Generator: Adobe Illustrator 23.0.2, SVG Export Plug-In . SVG Version: 6.00 Build 0)  -->
<svg version="1.1" id="Calque_1" xmlns="http://www.w3.org/2000/svg" xmlns:xlink="http://www.w3.org/1999/xlink" x="0px" y="0px"
	 viewBox="0 0 512 512" style="enable-background:new 0 0 512 512; fill:white" xml:space="preserve">
<g>
	<path d="M452.2,162.3c1.8,0,3.6-0.6,5.1-1.7l34.1-25.6c3.8-2.8,4.5-8.2,1.7-11.9c-2.8-3.8-8.2-4.5-11.9-1.7l-34.1,25.6
		c-3.8,2.8-4.5,8.2-1.7,11.9C447,161.1,449.6,162.3,452.2,162.3z"/>
	<path d="M457.3,300.5c-3.8-2.8-9.1-2.1-11.9,1.7c-2.8,3.8-2.1,9.1,1.7,11.9l34.1,25.6c1.5,1.1,3.3,1.7,5.1,1.7
		c2.6,0,5.2-1.2,6.8-3.4c2.8-3.8,2.1-9.1-1.7-11.9L457.3,300.5z"/>
	<path d="M503.4,222h-51.2c-4.7,0-8.5,3.8-8.5,8.5s3.8,8.5,8.5,8.5h51.2c4.7,0,8.5-3.8,8.5-8.5S508.1,222,503.4,222z"/>
	<path d="M349.8,68.3c-7.8,0-15.6,6.4-28.5,16.9c-27.7,22.4-74,60-150.6,60c0,0,0,0,0,0H76.9c-42.3,0-76.8,34.4-76.8,76.8v17.1
		c0,40,30.7,72.9,69.8,76.4c25.2,119.7,43.6,128.2,49.6,128.2h51.2c3,0,5.7-1.5,7.3-4c1.6-2.5,1.7-5.7,0.4-8.3
		c-0.3-0.6-29.7-68.9-18.2-115.5h10.5c0,0,0,0,0,0c76.6,0,122.9,37.6,150.6,60c12.9,10.4,20.7,16.8,28.5,16.8
		c21.2,0,42.6-11.7,42.6-34.1V230.5V102.6C392.5,80.2,371,68.3,349.8,68.3z M157.6,426.6h-36.9c-8.3-6.9-23.1-64.5-33.3-110.8h55.2
		C134.8,354.3,149.1,405.9,157.6,426.6z M162.2,298.8H76.9c-32.9,0-59.7-26.8-59.7-59.7V222c0-32.9,26.8-59.7,59.7-59.7h85.3V298.8z
		 M375.4,230.5v127.9c0,13.5-16.7,17.1-25.3,17.1c-0.1,0-0.2-0.1-0.3-0.1V230.5c0-4.7-3.8-8.5-8.5-8.5c-4.7,0-8.5,3.8-8.5,8.5v132.6
		c-0.2-0.2-0.5-0.4-0.7-0.5c-26.5-21.5-75.2-60.8-152.9-63.6V162c77.6-2.7,126.3-42,152.9-63.6c7.2-5.8,15.3-12.4,17.7-12.9
		c8.9,0,25.6,3.6,25.6,17.1V230.5z"/>
</g>
</svg>
