<?xml version="1.0" encoding="utf-8"?>
<!-- Generator: Adobe Illustrator 21.1.0, SVG Export Plug-In . SVG Version: 6.00 Build 0)  -->
<svg version="1.1" id="Calque_1" xmlns="http://www.w3.org/2000/svg" xmlns:xlink="http://www.w3.org/1999/xlink" x="0px" y="0px"
	 viewBox="0 0 512 512" style="enable-background:new 0 0 512 512;" xml:space="preserve">
<style type="text/css">
	.st0{fill:#FFFFFF;}
</style>
<g>
	<path class="st0" d="M268.4,96.6V81.5h58.7c15.3,0,27.7-12.4,27.7-27.7V27.7c0-15.3-12.4-27.7-27.7-27.7H184.8
		c-15.3,0-27.7,12.4-27.7,27.7v26.2c0,15.3,12.4,27.7,27.7,27.7h58.7v15.1C134.6,103.2,48,193.7,48,304.2
		C48.1,418.7,141.4,512,256,512s207.9-93.3,207.9-207.9C463.9,193.6,377.3,103,268.4,96.6z M182,53.9V27.7c0-1.5,1.3-2.8,2.8-2.8
		h142.3c1.5,0,2.8,1.3,2.8,2.8v26.2c0,1.5-1.3,2.8-2.8,2.8H184.8C183.3,56.7,182,55.4,182,53.9z M256,487.1
		C155.1,487.1,73,405,73,304c0-100.9,82.1-183,183-183s183,82.1,183,183C439,405,356.9,487.1,256,487.1z"/>
	<path class="st0" d="M256,141.7c-89.5,0-162.4,72.8-162.4,162.4c0,89.5,72.8,162.4,162.4,162.4c89.5,0,162.4-72.8,162.4-162.4
		C418.4,214.6,345.5,141.7,256,141.7z M256,441.6c-75.8,0-137.5-61.7-137.5-137.5S180.2,166.6,256,166.6s137.5,61.7,137.5,137.5
		S331.8,441.6,256,441.6z"/>
	<path class="st0" d="M313.9,200.1c-6-3.4-13.6-1.3-17,4.6l-30.6,53.5c-3.3-0.7-6.7-1.2-10-1.2c-20.7,0-38.9,13.3-45.2,33.1
		c-7.9,24.9,5.9,51.6,30.9,59.5c4.7,1.5,9.5,2.2,14.3,2.2c20.7,0,38.9-13.3,45.2-33.1c3.8-12.1,2.7-24.9-3.1-36.1
		c-2.6-4.9-5.9-9.3-9.9-13l30-52.5C321.9,211.1,319.8,203.5,313.9,200.1z M277.8,311.2c-3,9.4-11.6,15.7-21.5,15.7
		c-2.3,0-4.6-0.4-6.8-1.1c-11.8-3.8-18.4-16.4-14.7-28.3c3-9.4,11.6-15.7,21.5-15.7c2.3,0,4.6,0.4,6.8,1.1
		c5.7,1.8,10.4,5.8,13.2,11.1C279.1,299.3,279.6,305.4,277.8,311.2z"/>
</g>
</svg>
