<?xml version="1.0" encoding="utf-8"?>
<!-- Generator: Adobe Illustrator 23.0.2, SVG Export Plug-In . SVG Version: 6.00 Build 0)  -->
<svg version="1.1" id="Calque_1" xmlns="http://www.w3.org/2000/svg" xmlns:xlink="http://www.w3.org/1999/xlink" x="0px" y="0px"
	 viewBox="0 0 512 512" style="enable-background:new 0 0 512 512; fill:white" xml:space="preserve">
<g>
	<g>
		<path d="M506.6,196.6c-4.7-7.1-11.9-11.8-20.2-13.5l-197.6-39.3c-2-0.4-4.1-0.6-6.2-0.6c-6.2,0-12,1.9-17,5l-20.6-57.2
			c-4.9-13.5-17.8-22.5-32.1-22.5c-3.9,0-7.8,0.7-11.5,2l-179,64.5c-8.5,3.1-15.4,9.3-19.3,17.6c-3.9,8.3-4.3,17.5-1.2,26.1
			l64.5,179c4.9,13.5,17.8,22.5,32.1,22.5c3.9,0,7.8-0.7,11.5-2l107.5-38.8l-5.3,26.9c-3.4,17.1,7.8,33.9,24.9,37.3l197.6,39.3
			c2,0.4,4.1,0.6,6.2,0.6c15.1,0,28.2-10.7,31.1-25.5l39.3-197.6C513,212.1,511.3,203.6,506.6,196.6z M102.5,356.8
			c-5.8,2.1-12.5-1.1-14.6-6.8L23.4,171c-1-2.8-0.9-5.9,0.4-8.7c1.3-2.8,3.6-4.8,6.4-5.9l179-64.5c1.2-0.4,2.5-0.7,3.8-0.7
			c4.8,0,9.1,3,10.8,7.5l26.9,74.7l-27.8,140L102.5,356.8z M489.1,215.9l-39.3,197.6c-0.9,4.7-5.7,8-10.5,7l-197.6-39.3
			c-4.9-1-8-5.7-7.1-10.6l39.3-197.6c0.8-4.2,4.5-7.2,8.8-7.2c0.6,0,1.2,0.1,1.7,0.2L482,205.4c2.3,0.5,4.3,1.8,5.7,3.8
			C489.1,211.2,489.6,213.6,489.1,215.9z"/>
	</g>
	<g>
		<path d="M365.1,277.2c-8.9-1.8-17.6,4-19.4,12.9c-1.8,8.9,4,17.6,12.9,19.4c8.9,1.8,17.6-4,19.4-12.9
			C379.8,287.6,374,279,365.1,277.2z"/>
	</g>
	<g>
		<path d="M440.9,226.5c-8.9-1.8-17.6,4-19.4,12.9c-1.8,8.9,4,17.6,12.9,19.4c8.9,1.8,17.6-4,19.4-12.9
			C455.7,236.9,449.9,228.3,440.9,226.5z"/>
	</g>
	<g>
		<path d="M314.4,201.3c-8.9-1.8-17.6,4-19.4,12.9c-1.8,8.9,4,17.6,12.9,19.4c8.9,1.8,17.6-4,19.4-12.9
			C329.1,211.8,323.3,203.1,314.4,201.3z"/>
	</g>
	<g>
		<path d="M415.8,353c-8.9-1.8-17.6,4-19.4,12.9c-1.8,8.9,4,17.6,12.9,19.4c8.9,1.8,17.6-4,19.4-12.9
			C430.5,363.5,424.7,354.8,415.8,353z"/>
	</g>
	<g>
		<path d="M289.2,327.9c-8.9-1.8-17.6,4-19.4,12.9c-1.8,8.9,4,17.6,12.9,19.4c8.9,1.8,17.6-4,19.4-12.9
			C303.9,338.3,298.1,329.7,289.2,327.9z"/>
	</g>
	<g>
		<path d="M146.9,208.9c-8.5,3.1-13,12.6-9.8,21.1c3.1,8.5,12.6,13,21.1,9.8c8.5-3.1,13-12.6,9.8-21.1
			C164.8,210.2,155.4,205.8,146.9,208.9z"/>
	</g>
	<g>
		<path d="M185.4,126.2c-8.5,3.1-13,12.6-9.8,21.1c3.1,8.5,12.6,13,21.1,9.8c8.5-3.1,13-12.6,9.8-21.1
			C203.4,127.5,194,123.1,185.4,126.2z"/>
	</g>
	<g>
		<path d="M108.3,291.6c-8.5,3.1-13,12.6-9.8,21.1c3.1,8.5,12.6,13,21.1,9.8c8.5-3.1,13-12.6,9.8-21.1
			C126.3,292.9,116.8,288.5,108.3,291.6z"/>
	</g>
</g>
</svg>
