<?xml version="1.0" encoding="utf-8"?>
<!-- Generator: Adobe Illustrator 21.1.0, SVG Export Plug-In . SVG Version: 6.00 Build 0)  -->
<svg version="1.1" id="Calque_1" xmlns="http://www.w3.org/2000/svg" xmlns:xlink="http://www.w3.org/1999/xlink" x="0px" y="0px"
	 viewBox="0 0 512 512" style="enable-background:new 0 0 512 512;" xml:space="preserve">
<style type="text/css">
	.st0{fill:#FFFFFF;}
</style>
<g>
	<path class="st0" d="M495.7,216.7L295.4,16.3C284.8,5.8,270.9,0,256,0s-28.8,5.8-39.3,16.3L16.3,216.7C5.8,227.2,0,241.2,0,256
		c0,14.9,5.8,28.8,16.3,39.3l200.4,200.4c10.5,10.5,24.5,16.3,39.3,16.3c14.9,0,28.8-5.8,39.3-16.3l200.4-200.4
		C517.4,273.7,517.4,238.4,495.7,216.7z M474.3,273.9L273.9,474.3c-9.6,9.6-26.2,9.6-35.8,0L37.7,273.9c-4.8-4.8-7.4-11.1-7.4-17.9
		c0-6.8,2.6-13.1,7.4-17.9L238.1,37.7c4.8-4.8,11.1-7.4,17.9-7.4s13.1,2.6,17.9,7.4l200.4,200.4C484.2,248,484.2,264,474.3,273.9z"
		/>
	<path class="st0" d="M256,337.1c-12.9,0-24.6,4.9-33.9,14.2c-9.3,9.3-14.2,21-14.2,33.9c0,13,4.9,24.7,14.3,33.8
		c9.3,9,20.9,13.8,33.8,13.8c12.8,0,24.5-4.8,33.8-13.8c9.4-9.1,14.3-20.8,14.3-33.8c0-12.9-4.9-24.6-14.2-33.9
		C280.7,342,268.9,337.1,256,337.1z M268.6,397.3c-3.7,3.6-7.6,5.2-12.6,5.2s-8.9-1.6-12.6-5.2c-3.6-3.5-5.2-7.2-5.2-12.1
		c0-5,1.6-8.8,5.3-12.5s7.5-5.3,12.5-5.3s8.8,1.6,12.5,5.3c3.7,3.7,5.3,7.5,5.3,12.5C273.8,390.1,272.2,393.8,268.6,397.3z"/>
	<path class="st0" d="M256,79.8c-14.8,0-27.7,5.5-37.3,15.9c-9.4,10.2-14,22.7-13.7,37.1c0.1,2.9,0.4,7.7,1.2,17
		c1.6,20.7,5,63.7,10.6,159.6c0.5,8,7.1,14.3,15.1,14.3h47.9c8,0,14.6-6.3,15.1-14.3c5.7-95.6,9.1-138.7,10.8-159.5
		c0.7-9.3,1.1-14,1.2-17.2c0.3-14.7-4.3-27.2-13.7-37.3C283.7,85.2,270.8,79.8,256,79.8z M275.6,147.6c-1.6,19.8-4.8,59.8-9.9,145.8
		h-19.3c-5.1-86.3-8.3-126.3-9.9-146c-0.7-8.3-1-12.6-1.1-15.2c-0.1-6.6,1.7-11.6,5.7-16c3.8-4.2,8.6-6.1,14.9-6.1
		c6.4,0,11.2,1.9,15,6.1c4,4.3,5.8,9.4,5.6,16.1C276.6,134.8,276.2,139.2,275.6,147.6z"/>
</g>
</svg>
