<?xml version="1.0" encoding="utf-8"?>
<!-- Generator: Adobe Illustrator 23.0.2, SVG Export Plug-In . SVG Version: 6.00 Build 0)  -->
<svg version="1.1" id="Calque_1" xmlns="http://www.w3.org/2000/svg" xmlns:xlink="http://www.w3.org/1999/xlink" x="0px" y="0px"
	 viewBox="0 0 512 512" style="enable-background:new 0 0 512 512; fill:white" xml:space="preserve">
<g>
	<path d="M216.9,468.3c-30.6,11.2-62.8,23.2-92.8,34.7h388.4v-34.7H216.9z"/>
	<path d="M357.9,373.6c0.3-40.7,26.9-120.2,34.4-141.8l92.6-53.9c4.7-2.7,7.8-7.4,8.5-12.8c0.7-5.4-1.1-10.7-5-14.5L351.5,14
		c-3.8-3.8-9.2-5.6-14.5-4.9c-5.3,0.7-10,3.8-12.8,8.4l-55,93.3c-23.6,8.2-100.6,33.6-140.4,33.9c-7.4,0.1-13.9,4.7-16.3,11.7
		c-0.7,2-68.5,198-111.7,300.5c-2.7,6.5-1.3,14,3.7,19l22,22c3.3,3.3,7.8,5.1,12.3,5.1c2.3,0,4.6-0.4,6.8-1.4
		c102.6-43.2,298.6-111.1,300.5-111.7C353.2,387.5,357.8,381,357.9,373.6z M342.9,54.4l105,104.8l-67.3,39.2l-77.2-77.2L342.9,54.4z
		 M43,465.2l-5.5-5.5c37.5-90.9,89.7-239.3,104.2-280.8c44.6-4,110.6-25.4,136.1-34.2l80.2,80.2c-8.7,25.5-30.2,91.5-34.1,136.1
		C282.3,375.4,133.9,427.6,43,465.2z"/>
	<path d="M221.1,237c-24.5,0-44.4,19.9-44.4,44.4c0,5.9,1.2,11.4,3.3,16.6l-94.4,94.4l24.6,24.6l94.4-94.4
		c5.1,2.1,10.7,3.3,16.6,3.3c24.5,0,44.4-19.9,44.4-44.4C265.5,257,245.6,237,221.1,237z M221.1,291.1c-5.3,0-9.7-4.3-9.7-9.7
		c0-5.3,4.3-9.7,9.7-9.7c5.3,0,9.7,4.3,9.7,9.7C230.8,286.8,226.4,291.1,221.1,291.1z"/>
</g>
</svg>
