<?xml version="1.0" encoding="utf-8"?>
<!-- Generator: Adobe Illustrator 21.1.0, SVG Export Plug-In . SVG Version: 6.00 Build 0)  -->
<svg version="1.1" id="Calque_1" xmlns="http://www.w3.org/2000/svg" xmlns:xlink="http://www.w3.org/1999/xlink" x="0px" y="0px"
	 viewBox="0 0 512 512" style="enable-background:new 0 0 512 512;" xml:space="preserve">
<style type="text/css">
	.st0{fill:#FFFFFF;}
</style>
<path class="st0" d="M480.7,81c-7.3-11.5-20.1-19.2-34.7-19.2h-40.7V41c0-22.6-18.4-41-41-41H162.2c-0.8,0-1.5,0.1-2.3,0.2
	c-5.9,0.5-11.3,3-15.5,7.2l-93.5,93.5c-4.8,4.8-7.4,11.2-7.3,17.9c0,0.3,0,0.7,0,1v288.3c0,22.6,18.4,41,41,41h40.7V470
	c0,22.6,18.4,41,41,41H446c22.6,0,41-18.4,41-41V102.8l0,0C487,94.8,484.7,87.4,480.7,81z M234,100.6v70.1h-70.1L234,100.6z
	 M84.5,421.3c-7.2,0-13.1-5.9-13.1-13.1V122.3c0.1-0.9,0.2-1.7,0.2-2.6L163.3,28c0.2,0,0.3,0,0.5-0.1h200.6
	c7.2,0,13.1,5.9,13.1,13.1v20.9H243.8c-0.8,0-1.5,0.1-2.3,0.2c-0.8,0.1-1.6,0.3-2.3,0.4c-0.7,0.1-1.3,0.2-2,0.3
	c-0.3,0.1-0.6,0.2-0.9,0.3c-1.1,0.3-2.1,0.7-3.2,1.1c-0.4,0.2-0.7,0.4-1,0.6c-2.2,1.2-4.3,2.6-6.1,4.4l-93.5,93.5
	c-0.9,0.8-1.6,1.8-2.2,2.7c-3.3,4.4-5.2,9.7-5.1,15.2c0,0.3,0,0.7,0,1v239.6L84.5,421.3L84.5,421.3z M459.1,470
	c0,7.2-5.9,13.1-13.1,13.1H166.1c-7.2,0-13.1-5.9-13.1-13.1V198.6h86.9c12.2,0,22-9.9,22-22V89.7H446c4.7,0,8.7,2.5,11.1,6.2
	c1.3,2,2,4.4,2,7V470z"/>
</svg>
