<?xml version="1.0" encoding="utf-8"?>
<!-- Generator: Adobe Illustrator 23.0.2, SVG Export Plug-In . SVG Version: 6.00 Build 0)  -->
<svg version="1.1" id="Calque_1" xmlns="http://www.w3.org/2000/svg" xmlns:xlink="http://www.w3.org/1999/xlink" x="0px" y="0px"
	 viewBox="0 0 512 512" style="enable-background:new 0 0 512 512; fill:white" xml:space="preserve">
<g>
	<g>
		<path d="M468.1,54.5h-1.8v-2.4c0-24.2-19.8-43.9-43.9-43.9H308.6c-24.2,0-43.9,19.8-43.9,43.9v79.2c0,24.2,19.8,43.9,43.9,43.9
			h1.8v2.1c-1.8,48.3-9.9,58.8-12.6,62.5c-2.3,3-2.7,6.7-1.2,9.7c0.8,1.5,3.2,5,9,5c0.2,0,0.8,0,1.1,0c28.9-2.3,43.6-18.2,55.5-31
			c0.6-0.6,1.2-1.4,1.8-2h104.3c24.2,0,43.9-19.6,43.9-43.9V98.3C512,74.1,492.3,54.5,468.1,54.5z M308.7,158.9
			c-15.2,0-27.7-12.5-27.7-27.7V51.9c0-15.2,12.5-27.7,27.7-27.7h113.8c15.2,0,27.7,12.5,27.7,27.7v2.4h-95.9
			c-24.2,0-43.9,19.8-43.9,43.9v60.6L308.7,158.9L308.7,158.9z M495.8,177.6c0,15.2-12.5,27.7-27.7,27.7H360.4
			c-2.3,0-4.3,0.9-5.8,2.4s-2.9,3-4.4,4.7c-8.7,9.4-17.6,19-32.1,23.4c3.6-10.2,7.4-27.5,8.5-58.4V98.1c0-15.2,12.5-27.7,27.7-27.7
			h113.8c15.2,0,27.7,12.5,27.7,27.7V177.6z"/>
		<path d="M372.1,126.8c-6.1,0-11.1,5-11.1,11.1c0,6.1,5,11.1,11.1,11.1c6.1,0,11.1-5,11.1-11.1
			C383.2,131.8,378.2,126.8,372.1,126.8z"/>
		<path d="M411.1,126.8c-6.1,0-11.1,5-11.1,11.1c0,6.1,5,11.1,11.1,11.1c6.1,0,11.1-5,11.1-11.1
			C422.2,131.8,417.2,126.8,411.1,126.8z"/>
		<path d="M450,126.8c-6.1,0-11.1,5-11.1,11.1c0,6.1,5,11.1,11.1,11.1c6.1,0,11.1-5,11.1-11.1C461.1,131.8,456.3,126.8,450,126.8z"
			/>
	</g>
	<g>
		<path d="M268.7,320c-2.6-71.3-50.9-117-124.2-117S23,248.7,20.4,320C6.6,325.6-1,338.7,0.1,356.8c0.8,13.8,3.5,25.2,8.1,33.9
			c5.6,10.5,14.1,16.6,24.6,17.9c18.2,63.1,55.8,95.3,111.8,95.3s93.6-32.1,111.8-95.3c10.5-1.4,19-7.4,24.6-17.9
			c4.6-8.5,7.3-19.9,8.1-33.9C290,338.7,282.4,325.5,268.7,320z M144.6,219.2c62.5,0,103.9,38.1,107.7,97.9
			c-6.4,0-12.3,1.5-17.3,4.1c-36.2,4.9-127.8,7.8-138.1-35.4c-0.8-2.9-2.9-5.2-5.9-5.9c-2.9-0.8-5.9,0.2-8.1,2.4l-33.4,36.9
			c-4-1.4-8.4-2.1-12.9-2.1C40.5,257.4,82.1,219.2,144.6,219.2z M266.8,382.9c-3.8,7-8.7,10-16,9.6c-0.2,0-0.2,0-0.3,0
			c-2.6,0-5,1.2-6.5,3.2l0,0c-0.3,0.5-0.6,0.8-0.8,1.2c0,0,0,0,0,0.2c-0.3,0.5-0.5,1.1-0.6,1.5l0,0c-15.7,59.9-47.7,88.9-97.9,88.9
			s-82.2-29-97.9-88.9c-0.2-0.5-0.3-1.1-0.6-1.5c-1.4-2.9-4.4-4.7-7.8-4.6l0,0c-7.3,0.5-12.2-2.6-16-9.6c-3.3-6.4-5.6-15.7-6.2-27.1
			c-0.8-14.3,5.5-21.9,18.5-22.6c5-0.3,9.3,0.6,12.6,2.7c0,0,0,0,0.2,0c0.3,0.2,0.5,0.3,0.8,0.5c0.2,0.2,0.5,0.2,0.6,0.3
			c0.3,0.2,0.5,0.2,0.8,0.2s0.5,0.2,0.8,0.2s0.5,0,0.8,0c0.3,0,0.6,0,0.8,0c0.3,0,0.5,0,0.8-0.2c0.3,0,0.5,0,0.8-0.2
			c0.3,0,0.5-0.2,0.8-0.3s0.5-0.2,0.8-0.3c0.3-0.2,0.5-0.3,0.6-0.3c0.3-0.2,0.5-0.3,0.8-0.5c0.2-0.2,0.3-0.3,0.5-0.5
			c0.3-0.2,0.5-0.5,0.6-0.6c0,0,0,0,0.2,0l28.7-31.8c17.9,31,68.2,37.4,106.1,37.4c24.6,0,44.1-2.6,46-2.9l0,0
			c0.3,0,0.6-0.2,0.9-0.3c0.2,0,0.5-0.2,0.6-0.2c0.2-0.2,0.5-0.2,0.6-0.3c0.3-0.2,0.6-0.3,0.9-0.5l0,0c3.3-2.1,7.6-3,12.6-2.7
			c13.1,0.8,19.3,8.4,18.5,22.6C272.2,367.1,270.1,376.5,266.8,382.9z"/>
		<path d="M200.2,414.8H88.8c-2.6,0-5,1.2-6.5,3.3c-1.5,2.1-2,4.9-1.1,7.3c9.1,27.5,34.5,45.9,63.4,45.9S199,453,208,425.4
			c0.8-2.4,0.5-5.2-1.1-7.3C205.4,416.2,202.9,414.8,200.2,414.8z M144.6,455.2c-17.9,0-34-9.4-43.2-24.2h86.3
			C178.6,445.8,162.4,455.2,144.6,455.2z"/>
	</g>
</g>
</svg>
