<?xml version="1.0" encoding="utf-8"?>
<!-- Generator: Adobe Illustrator 23.0.2, SVG Export Plug-In . SVG Version: 6.00 Build 0)  -->
<svg version="1.1" id="Calque_1" xmlns="http://www.w3.org/2000/svg" xmlns:xlink="http://www.w3.org/1999/xlink" x="0px" y="0px"
	 viewBox="0 0 512 512" style="enable-background:new 0 0 512 512; fill:white" xml:space="preserve">
<g>
	<path d="M432.2,193.6c9.7,24,15.2,50.1,15.2,77.6c0,113.9-92.7,206.6-206.6,206.6c-113.9,0-206.6-92.7-206.6-206.6
		c0-113.9,92.7-206.6,206.6-206.6c27.4,0,53.6,5.4,77.5,15.2l24.2-24.2C311.6,41,277.2,32.8,240.8,32.8
		c-131.5,0-238.4,107-238.4,238.4c0,131.5,107,238.4,238.4,238.4c131.5,0,238.4-107,238.4-238.4c0-36.4-8.2-70.9-22.9-101.7
		L432.2,193.6z"/>
	<path d="M240.8,177.1c7.8,0,15.3,1.1,22.6,2.9l25.2-25.2c-14.8-6.1-30.9-9.5-47.8-9.5c-69.5,0-126,56.5-126,126
		c0,69.5,56.5,126,126,126c69.5,0,126-56.5,126-126c0-16.9-3.4-33-9.5-47.8l-25.2,25.2c1.8,7.2,2.8,14.8,2.8,22.5
		c0,51.9-42.2,94.1-94.1,94.1c-51.9,0-94.1-42.2-94.1-94.1C146.7,219.3,188.9,177.1,240.8,177.1z"/>
	<path d="M508.9,64.7c-3.5-11.6-15-13.9-23.3-15.6c-5.9-1.2-13.3-2.7-16.6-6c-3.3-3.3-4.8-10.7-6-16.6C461.3,18.7,458,2.4,442,2.4
		c-7.9,0-13.7,4.9-17.4,8.5l-86,86c-13.5,13.5-14.2,51-13.9,67.8l-81.6,81.6c-0.8-0.1-1.6-0.2-2.4-0.2c-13.9,0-25.2,11.3-25.2,25.2
		c0,13.9,11.3,25.2,25.2,25.2c13.9,0,25.2-11.3,25.2-25.2c0-0.8-0.2-1.6-0.2-2.4l81.1-81.1c14.4-0.7,57.5-3.5,68.3-14.3l86-86
		C508.5,80,511.1,72.3,508.9,64.7z M394.1,149.4c-5.6,2-22.5,4.6-37.5,5.9c0.3-15.6,2.4-31.8,5-36.3l73.2-73.2
		c2.2,6.8,5.6,14,11.5,19.9c5.9,6,13.2,9.4,19.9,11.5L394.1,149.4z"/>
</g>
</svg>
