<?xml version="1.0" encoding="utf-8"?>
<!-- Generator: Adobe Illustrator 21.1.0, SVG Export Plug-In . SVG Version: 6.00 Build 0)  -->
<svg version="1.1" id="Calque_1" xmlns="http://www.w3.org/2000/svg" xmlns:xlink="http://www.w3.org/1999/xlink" x="0px" y="0px"
	 viewBox="0 0 512 512" style="enable-background:new 0 0 512 512;" xml:space="preserve">
<style type="text/css">
	.st0{fill:#FFFFFF;}
</style>
<g>
	<path class="st0" d="M487,71h-4.9V59.1l0,0l0,0c0-10-3.8-19.5-10.7-26.8c-7.2-7.6-16.7-11.7-26.8-11.7H38.9l0,0l0,0
		C20.7,20.6,0.8,34.2,0,54.4c0,0.5,0,1,0,1.5v372.4c0,0.1,0,0.1,0,0.2s0,0.1,0,0.2c0.6,17.3,8.2,33.3,21.6,45
		c12.2,10.7,27.7,16.8,44,17.4c0.9,0.2,1.8,0.3,2.7,0.3h406c20.7,0,37.5-16.8,37.5-37.5V95.8C512,82.1,500.8,71,487,71z M24.4,428
		V54.9v-0.1c0.7-5,7.7-9.8,14.5-9.8l0,0c6.8,0,14.6,5.4,14.6,10.2v373.2c0,6.7,5.5,12.2,12.2,12.2s12.2-5.5,12.2-12.2V55.1
		c0-3.6-0.7-7-1.8-10.2h368.6c7,0,13.1,6.6,13.1,14.2V71H137.1c-13.6,0-24.7,11.1-24.7,24.7v332.2c-1.1,21.4-20.8,38.8-44.1,38.8
		C44.8,466.8,25.2,449.4,24.4,428z M474.5,467h-353c9.3-10.8,14.7-24.1,15.3-38.2c0-0.1,0-0.2,0-0.3c0-0.1,0-0.2,0-0.3V95.8
		c0-0.3,0.1-0.3,0.3-0.3H487c0.4,0,0.6,0.2,0.6,0.3v358.1C487.6,461.3,481.8,467,474.5,467z"/>
	<path class="st0" d="M461.6,251.8c0-0.2,0-0.4,0-0.6c0-0.2,0-0.4,0-0.6c0-13.8-10.9-24.6-24.7-24.6h-79.3
		c-13.6,0-24.7,11.3-24.7,25.1l0,0l0,0l0.1,64.5l0,0c0,13.7,11.1,24.8,24.6,24.8h79.3c6.9,0,13.9-3,18.6-8.1
		c4.2-4.5,6.3-10.2,6.1-16.1L461.6,251.8L461.6,251.8z M357.6,316C357.5,316,357.5,316,357.6,316c-0.1,0-0.3-0.1-0.3-0.5l0,0l0,0
		l-0.1-64.5c0-0.4,0.3-0.7,0.3-0.7l0,0h79.3c0.2,0,0.3,0.1,0.3,0.1s0,0,0,0.1c0,0.2,0,0.4,0,0.6c0,0.2,0,0.4,0,0.6V316
		c-0.1,0.1-0.3,0.1-0.3,0.1h-79.2V316z"/>
	<path class="st0" d="M179,249.9h114.1c6.7,0,12.2-5.5,12.2-12.2s-5.5-12.2-12.2-12.2H179c-6.7,0-12.2,5.5-12.2,12.2
		S172.3,249.9,179,249.9z"/>
	<path class="st0" d="M179,341.2h114.1c6.7,0,12.2-5.5,12.2-12.2s-5.5-12.2-12.2-12.2H179c-6.7,0-12.2,5.5-12.2,12.2
		S172.3,341.2,179,341.2z"/>
	<path class="st0" d="M425.6,408.1H179.8c-6.7,0-12.2,5.5-12.2,12.2s5.5,12.2,12.2,12.2h245.8c6.7,0,12.2-5.5,12.2-12.2
		C437.8,413.6,432.3,408.1,425.6,408.1z"/>
	<path class="st0" d="M449.9,135.2H177.8c-6.7,0-12.2,5.5-12.2,12.2s5.5,12.2,12.2,12.2h272.1c6.7,0,12.2-5.5,12.2-12.2
		C462.1,140.7,456.6,135.2,449.9,135.2z"/>
</g>
</svg>
