<?xml version="1.0" encoding="utf-8"?>
<!-- Generator: Adobe Illustrator 21.1.0, SVG Export Plug-In . SVG Version: 6.00 Build 0)  -->
<svg version="1.1" id="Calque_1" xmlns="http://www.w3.org/2000/svg" xmlns:xlink="http://www.w3.org/1999/xlink" x="0px" y="0px"
	 viewBox="0 0 512 512" style="enable-background:new 0 0 512 512;" xml:space="preserve">
<style type="text/css">
	.st0{fill:#FFFFFF;}
</style>
<g>
	<path class="st0" d="M77.2,53.6C36,53.6,2.5,87.1,2.5,128.2c0,35.9,25.5,66,59.4,73.1V473c0,8.4,6.8,15.2,15.2,15.2
		s15.2-6.8,15.2-15.2V201.3c33.9-7.1,59.4-37.1,59.4-73.1C151.8,87.1,118.3,53.6,77.2,53.6z M77.2,172.4
		c-24.3,0-44.1-19.8-44.1-44.1s19.8-44.1,44.1-44.1s44.1,19.8,44.1,44.1C121.3,152.6,101.5,172.4,77.2,172.4z"/>
	<path class="st0" d="M271.2,304.8V39c0-8.4-6.8-15.2-15.2-15.2c-8.4,0-15.2,6.8-15.2,15.2v265.8c-33.9,7.1-59.4,37.1-59.4,73.1
		c0,35.9,25.5,66,59.4,73.1v22c0,8.4,6.8,15.2,15.2,15.2c8.4,0,15.2-6.8,15.2-15.2v-22.1c33.9-7.1,59.4-37.1,59.4-73.1
		C330.6,341.9,305.1,311.8,271.2,304.8z M256,422c-24.3,0-44.1-19.8-44.1-44.1c0-24.3,19.8-44.1,44.1-44.1s44.1,19.8,44.1,44.1
		S280.3,422,256,422z"/>
	<path class="st0" d="M509.5,197c0-35.9-25.5-66-59.4-73.1V39c0-8.4-6.8-15.2-15.2-15.2c-8.4,0-15.2,6.8-15.2,15.2v85
		c-33.9,7.1-59.4,37.1-59.4,73.1c0,35.9,25.5,66,59.4,73.1v203c0,8.4,6.8,15.2,15.2,15.2c8.4,0,15.2-6.8,15.2-15.2v-203
		C484,263,509.5,232.9,509.5,197z M434.8,241.2c-24.3,0-44.1-19.8-44.1-44.1s19.8-44.1,44.1-44.1c24.3,0,44.1,19.8,44.1,44.1
		C479,221.4,459.2,241.2,434.8,241.2z"/>
</g>
</svg>
