<?xml version="1.0" encoding="utf-8"?>
<!-- Generator: Adobe Illustrator 23.0.2, SVG Export Plug-In . SVG Version: 6.00 Build 0)  -->
<svg version="1.1" id="Calque_1" xmlns="http://www.w3.org/2000/svg" xmlns:xlink="http://www.w3.org/1999/xlink" x="0px" y="0px"
	 viewBox="0 0 512 512" style="enable-background:new 0 0 512 512; fill:white" xml:space="preserve">
<g>
	<path d="M418.4,156.3C405.4,42.7,324.5-3.9,250.1,0.3C172.3,4.7,93.6,64.4,93.6,170.1c0,85.9,44.1,145.3,76.3,188.7
		c18.4,24.8,34.3,46.1,34.3,62.2c0,62.1,30.7,91.1,96.7,91.1c77,0,77-60.9,77-97.3c0-8-6.5-14.5-14.5-14.5c-8,0-14.5,6.5-14.5,14.5
		c0,46.4-4.7,68.3-48,68.3c-50.6,0-67.6-15.7-67.6-62c0-25.6-18.5-50.6-40-79.5c-31.5-42.4-70.6-95.1-70.6-171.4
		c0-87.7,65-137.3,129.2-140.9c56.4-3.2,126.2,29,137.8,130.4c0.9,8,8.1,13.7,16.1,12.8C413.5,171.5,419.3,164.3,418.4,156.3z"/>
	<path d="M279.2,238c0,65.5,53.9,83.9,70.4,88c1.2,0.3,2.4,0.4,3.5,0.4c6.5,0,12.4-4.4,14.1-11c1.9-7.8-2.8-15.6-10.6-17.6
		c-10.6-2.6-25.4-8.5-35.8-21.3c22.4-18.6,58-56.1,37.5-108.6c-12.1-31.1-33.3-52-59.8-59c-24.2-6.4-50.5-0.5-70.2,15.6
		c-20.9,17-32.5,38-34.7,62.4c-4.5,50.5,34.3,96.7,36,98.6c2.9,3.4,6.9,5.1,11,5.1c3.3,0,6.7-1.1,9.4-3.5c6.1-5.2,6.8-14.4,1.6-20.5
		c-9.1-10.6-32-45.3-29.1-77.2c1.5-16.5,9.4-30.5,24.2-42.5c12.4-10.1,29.5-14,44.5-10c14.3,3.8,26.1,14.1,34.8,30
		C304.6,173.4,279.2,192.7,279.2,238z M335.2,194.5c1.3,14.5-3.8,32.2-26.3,53.5c-0.4-3.2-0.7-6.5-0.7-10
		C308.2,206.2,325,197.1,335.2,194.5z"/>
</g>
</svg>
